<?xml version="1.0" encoding="UTF-8" standalone="no"?>
<!DOCTYPE svg PUBLIC "-//W3C//DTD SVG 1.1//EN" "http://www.w3.org/Graphics/SVG/1.1/DTD/svg11.dtd">
<svg xmlns="http://www.w3.org/2000/svg" xmlns:xlink="http://www.w3.org/1999/xlink" version="1.1" width="842pt" height="595pt" viewBox="0 0 842 595">
<g enable-background="new">
<clipPath id="cp0">
<path transform="matrix(.12,0,0,-.12,2,593)" d="M 975 0 L 6004 0 L 6004 4923 L 975 4923 L 975 0 "/>
</clipPath>
<g clip-path="url(#cp0)">
<g id="Layer-1" data-name="MEIO FIO">
<path transform="matrix(.12,0,0,-.12,2,593)" stroke-width="1" stroke-linecap="round" stroke-linejoin="round" fill="none" stroke="#000000" d="M 1662 4880 L 1656 4515 L 1780 4545 L 1777 4880 L 1662 4880 L 1656 4515 L 1176 4415 L 1017 4349 L 1017 4880 L 1662 4880 "/>
</g>
<g id="Layer-1" data-name="LOTES">
<path transform="matrix(.12,0,0,-.12,2,593)" stroke-width="1" stroke-linecap="round" stroke-linejoin="round" fill="none" stroke="#000000" d="M 1752 4919 L 1752 4922 "/>
<path transform="matrix(.12,0,0,-.12,2,593)" stroke-width="1" stroke-linecap="round" stroke-linejoin="round" fill="none" stroke="#000000" d="M 5619 4922 L 5615 4908 "/>
<path transform="matrix(.12,0,0,-.12,2,593)" stroke-width="1" stroke-linecap="round" stroke-linejoin="round" fill="none" stroke="#000000" d="M 975 1750 L 975 1750 "/>
</g>
<g id="Layer-1" data-name="MEIO FIO">
<path transform="matrix(.12,0,0,-.12,2,593)" stroke-width="1" stroke-linecap="round" stroke-linejoin="round" fill="none" stroke="#000000" d="M 3127 4922 L 3127 4922 "/>
<path transform="matrix(.12,0,0,-.12,2,593)" stroke-width="1" stroke-linecap="round" stroke-linejoin="round" fill="none" stroke="#000000" d="M 2913 4922 L 2913 4922 "/>
<path transform="matrix(.12,0,0,-.12,2,593)" stroke-width="1" stroke-linecap="round" stroke-linejoin="round" fill="none" stroke="#000000" d="M 4806 2012 L 4563 2209 L 5106 2878 L 5640 2444 L 5496 2267 "/>
</g>
<g id="Layer-1" data-name="LOTES">
<path transform="matrix(.12,0,0,-.12,2,593)" stroke-width="1" stroke-linecap="round" stroke-linejoin="round" fill="none" stroke="#000000" d="M 4168 2061 L 4563 2209 "/>
</g>
<g id="Layer-1" data-name="MEIO FIO">
<path transform="matrix(.12,0,0,-.12,2,593)" stroke-width="1" stroke-linecap="round" stroke-linejoin="round" fill="none" stroke="#000000" d="M 4641 46 L 4908 650 L 4549 889 L 4742 1163 L 4869 1295 L 5075 1548 L 5385 1851 L 5302 1922 "/>
<path transform="matrix(.12,0,0,-.12,2,593)" stroke-width="1" stroke-linecap="round" stroke-linejoin="round" fill="none" stroke="#000000" d="M 4974.58 1648.443 C 5100.2858 1718.3705 5211.477 1811.6661 5302.177 1923.3146 "/>
<path transform="matrix(.12,0,0,-.12,2,593)" stroke-width="1" stroke-linecap="round" stroke-linejoin="round" fill="none" stroke="#000000" d="M 4975 1647 L 5022 1590 L 4680 1222 L 4418 832 L 4767 618 L 4479 42 L 4649 42 L 4641 46 "/>
<path transform="matrix(.12,0,0,-.12,2,593)" stroke-width="1" stroke-linecap="round" stroke-linejoin="round" fill="none" stroke="#000000" d="M 2497 3698 L 2434 3999 L 2101 4025 L 1596 3749 L 1771 3426 L 2497 3698 "/>
<path transform="matrix(.12,0,0,-.12,2,593)" stroke-width="1" stroke-linecap="round" stroke-linejoin="round" fill="none" stroke="#000000" d="M 1596 3749 L 1284 3718 L 1292 3639 L 1461 3647 L 1492 3497 L 1168 3428 L 1157 3236 L 1017 3236 L 1017 2428 L 1644 2262 L 1770 2513 L 2004 2522 L 2211 2294 L 2513 2498 L 2818 2900 L 2818 2927 L 2778 3142 L 1975 2855 L 1771 3426 L 1596 3749 "/>
<path transform="matrix(.12,0,0,-.12,2,593)" stroke-width="1" stroke-linecap="round" stroke-linejoin="round" fill="none" stroke="#000000" d="M 1977 4354 L 1996 4179 L 2026 4102 L 1681 3914 L 1725 3819 L 1596 3749 L 1284 3718 L 1280 3756 L 1117 3752 L 1117 3840 L 1017 3934 L 1017 4014 L 1770 4273 L 1977 4354 "/>
<path transform="matrix(.12,0,0,-.12,2,593)" stroke-width="1" stroke-linecap="round" stroke-linejoin="round" fill="none" stroke="#000000" d="M 1017 4014 L 1770 4273 L 1977 4354 L 2364 4460 L 2569 4520 L 2567 4526 L 2702 4573 L 2926 4661 L 3096 4790 L 3119 4880 L 2890 4880 L 2857 4851 L 2821 4825 L 2784 4801 L 2744 4781 L 2704 4763 L 2295 4662 L 1780 4545 L 1656 4515 L 1176 4415 L 1017 4349 L 1017 4014 "/>
<path transform="matrix(.12,0,0,-.12,2,593)" stroke-width="1" stroke-linecap="round" stroke-linejoin="round" fill="none" stroke="#000000" d="M 3095 3222 L 2773 3169 L 2778 3142 L 2678 3106 L 2622 3289 L 3073 3359 L 3095 3222 "/>
<path transform="matrix(.12,0,0,-.12,2,593)" stroke-width="1" stroke-linecap="round" stroke-linejoin="round" fill="none" stroke="#000000" d="M 2434 3999 L 2766 3996 L 2557 3922 L 2592 3840 L 2566 3831 L 2663 3541 L 2890 3486 L 3096 3463 L 3486 3411 L 3675 3366 L 3870 3349 L 3954 3293 L 4148 3124 L 4436 2952 L 4650 2747 L 4861 2576 L 4832 2540 L 4629 2720 L 4515 2811 L 4427 2908 L 4237 3030 L 3982 3124 L 3797 3297 L 3754 3323 L 3447 3357 L 3278 3325 L 3265 3393 L 3073 3359 L 2622 3289 L 2497 3698 L 2434 3999 "/>
<path transform="matrix(.12,0,0,-.12,2,593)" stroke-width="1" stroke-linecap="round" stroke-linejoin="round" fill="none" stroke="#000000" d="M 2766 3996 L 2888 4069 L 3086 4074 L 3084 4152 L 2873 4124 L 2768 4068 L 2663 4060 L 2493 4055 L 2396 4090 L 2091 4090 L 2039 4069 L 2026 4102 L 1681 3914 L 1725 3819 L 2101 4025 L 2434 3999 L 2766 3996 "/>
<path transform="matrix(.12,0,0,-.12,2,593)" stroke-width="1" stroke-linecap="round" stroke-linejoin="round" fill="none" stroke="#000000" d="M 3086 4074 L 3090 3913 L 3020 3901 L 3010 3937 L 2807 3881 L 2766 3996 L 2888 4069 L 3086 4074 "/>
<path transform="matrix(.12,0,0,-.12,2,593)" stroke-width="1" stroke-linecap="round" stroke-linejoin="round" fill="none" stroke="#000000" d="M 3197 3932 L 3090 3913 L 3020 3901 L 3080 3686 L 2663 3541 L 2890 3486 L 3096 3463 L 3197 3932 "/>
</g>
<g id="Layer-1" data-name="LOTES">
<path transform="matrix(.12,0,0,-.12,2,593)" stroke-width="1" stroke-linecap="round" stroke-linejoin="round" fill="none" stroke="#000000" d="M 4175 4880 L 4194 4808 L 4241 4615 L 4162 4635 L 3649 4559 L 3704 4234 L 3519 4722 L 3596 4737 L 4058 4823 L 4047 4880 L 4175 4880 "/>
</g>
<g id="Layer-1" data-name="MEIO FIO">
<path transform="matrix(.12,0,0,-.12,2,593)" stroke-width="1" stroke-linecap="round" stroke-linejoin="round" fill="none" stroke="#000000" d="M 3151 3024 L 3329 3050 L 3423 3054 L 3429 2900 L 3431 2746 L 2883 2682 L 2864 2838 "/>
<path transform="matrix(.12,0,0,-.12,2,593)" stroke-width="1" stroke-linecap="round" stroke-linejoin="round" fill="none" stroke="#000000" d="M 3163.915 2945.2655 C 3056.009 2939.7154 2952.0526 2902.8729 2864.7332 2839.2347 "/>
<path transform="matrix(.12,0,0,-.12,2,593)" stroke-width="1" stroke-linecap="round" stroke-linejoin="round" fill="none" stroke="#000000" d="M 3163 2944 L 3151 3024 "/>
<path transform="matrix(.12,0,0,-.12,2,593)" stroke-width="1" stroke-linecap="round" stroke-linejoin="round" fill="none" stroke="#000000" d="M 3726 3878 L 3574 3936 L 3486 3411 L 3675 3366 L 3870 3349 L 3584 3447 L 3726 3878 "/>
<path transform="matrix(.12,0,0,-.12,2,593)" stroke-width="1" stroke-linecap="round" stroke-linejoin="round" fill="none" stroke="#000000" d="M 3974 3665 L 4105 3579 L 3967 3282 L 3870 3349 L 3974 3665 "/>
<path transform="matrix(.12,0,0,-.12,2,593)" stroke-width="1" stroke-linecap="round" stroke-linejoin="round" fill="none" stroke="#000000" d="M 3031 2126 L 2917 2141 L 2919 2014 L 3013 1989 L 3031 2126 "/>
</g>
<g id="Layer-1" data-name="LOTES">
<path transform="matrix(.12,0,0,-.12,2,593)" stroke-width="1" stroke-linecap="round" stroke-linejoin="round" fill="none" stroke="#000000" d="M 3586 1876 L 3587 1892 L 3643 1891 L 3641 1847 L 3779 1785 L 3846 2018 L 4048 1959 L 3740 1698 L 3586 1876 "/>
</g>
<g id="Layer-1" data-name="MEIO FIO">
<path transform="matrix(.12,0,0,-.12,2,593)" stroke-width="1" stroke-linecap="round" stroke-linejoin="round" fill="none" stroke="#000000" d="M 2891 2363 L 2759 2354 L 2768 2227 L 2903 2227 L 2891 2363 "/>
<path transform="matrix(.12,0,0,-.12,2,593)" stroke-width="1" stroke-linecap="round" stroke-linejoin="round" fill="none" stroke="#000000" d="M 2768 2227 L 2872 1932 L 3185 1907 L 3418 1889 L 3419 1896 L 3013 1989 L 2919 2014 L 2917 2141 L 3241 2095 L 3245 2235 L 3201 2242 L 3171 2233 L 2905 2199 L 2903 2227 L 2768 2227 "/>
<path transform="matrix(.12,0,0,-.12,2,593)" stroke-width="1" stroke-linecap="round" stroke-linejoin="round" fill="none" stroke="#000000" d="M 2925 2413 L 2927 2394 L 3148 2413 L 3171 2233 L 3201 2242 L 3220 2424 L 3368 2441 L 3334 2469 L 2925 2413 "/>
</g>
<g id="Layer-1" data-name="LOTES">
<path transform="matrix(.12,0,0,-.12,2,593)" stroke-width="1" stroke-linecap="round" stroke-linejoin="round" fill="none" stroke="#000000" d="M 3782 2476 L 3901 2429 L 4126 2306 L 4040 2273 L 3771 2285 L 3750 2289 L 3782 2476 "/>
</g>
<g id="Layer-1" data-name="MEIO FIO">
<path transform="matrix(.12,0,0,-.12,2,593)" stroke-width="1" stroke-linecap="round" stroke-linejoin="round" fill="none" stroke="#000000" d="M 3739 2941 L 3739 2991 L 3838 2991 L 3833 3036 L 3856 3081 L 3953 3045 L 3899 2915 L 3978 2862 L 3928 2797 L 4032 2714 L 4097 2757 L 4214 2671 L 4060 2496 L 4179 2390 L 4285 2524 L 4314 2494 L 4523 2294 L 4563 2209 L 4259 2095 L 4245 2126 L 4126 2306 L 3901 2429 L 3782 2476 L 3630 2431 L 3393 2402 L 3368 2441 L 3334 2469 L 3303 2732 L 3431 2746 L 3429 2900 L 3478 2906 L 3475 2741 L 3780 2721 L 3789 2948 L 3739 2941 "/>
<path transform="matrix(.12,0,0,-.12,2,593)" stroke-width="1" stroke-linecap="round" stroke-linejoin="round" fill="none" stroke="#000000" d="M 3754 3323 L 3754 3257 L 3810 3257 L 3833 3036 L 3856 3081 L 3885 3156 L 3982 3124 L 3797 3297 L 3754 3323 "/>
<path transform="matrix(.12,0,0,-.12,2,593)" stroke-width="1" stroke-linecap="round" stroke-linejoin="round" fill="none" stroke="#000000" d="M 4285 2524 L 4314 2494 L 4571 2722 L 4757 2539 L 4523 2294 L 4563 2209 L 4832 2540 L 4629 2720 L 4515 2811 L 4285 2524 "/>
<path transform="matrix(.12,0,0,-.12,2,593)" stroke-width="1" stroke-linecap="round" stroke-linejoin="round" fill="none" stroke="#000000" d="M 2864 2838 L 2734 2706 L 2579 2439 L 2759 2354 L 2891 2363 L 2889 2391 L 2927 2394 L 2925 2413 L 2883 2682 L 2864 2838 "/>
</g>
<g id="Layer-1" data-name="LOTES">
<path transform="matrix(.12,0,0,-.12,2,593)" stroke-width="1" stroke-linecap="round" stroke-linejoin="round" fill="none" stroke="#000000" d="M 2375 878 L 2367 625 L 2432 594 L 2475 630 L 2433 875 L 2375 878 "/>
<path transform="matrix(.12,0,0,-.12,2,593)" stroke-width="1" stroke-linecap="round" stroke-linejoin="round" fill="none" stroke="#000000" d="M 1359 42 L 1325 50 L 1542 429 L 1995 234 L 1711 42 L 1359 42 "/>
<path transform="matrix(.12,0,0,-.12,2,593)" stroke-width="1" stroke-linecap="round" stroke-linejoin="round" fill="none" stroke="#000000" d="M 1017 1687 L 1285 1663 L 1324 1660 L 1318 1590 L 1040 1572 L 1017 1572 L 1017 1687 "/>
<path transform="matrix(.12,0,0,-.12,2,593)" stroke-width="1" stroke-linecap="round" stroke-linejoin="round" fill="none" stroke="#000000" d="M 1324 1660 L 1621 1633 L 1602 1582 L 1389 1595 L 1318 1590 L 1324 1660 "/>
<path transform="matrix(.12,0,0,-.12,2,593)" stroke-width="1" stroke-linecap="round" stroke-linejoin="round" fill="none" stroke="#000000" d="M 1675 1617 L 1621 1633 L 1602 1582 L 1592 1505 L 1650 1493 L 1675 1617 "/>
<path transform="matrix(.12,0,0,-.12,2,593)" stroke-width="1" stroke-linecap="round" stroke-linejoin="round" fill="none" stroke="#000000" d="M 2432 594 L 2327 475 L 2246 495 L 2277 623 L 2278 635 L 2367 625 L 2432 594 "/>
<path transform="matrix(.12,0,0,-.12,2,593)" stroke-width="1" stroke-linecap="round" stroke-linejoin="round" fill="none" stroke="#000000" d="M 1995 234 L 2327 475 L 2246 495 L 2036 546 L 2003 377 L 1766 435 L 1752 395 L 1669 427 L 1650 383 L 1995 234 "/>
<path transform="matrix(.12,0,0,-.12,2,593)" stroke-width="1" stroke-linecap="round" stroke-linejoin="round" fill="none" stroke="#000000" d="M 1542 429 L 1262 565 L 1224 499 L 1289 460 L 1260 406 L 1461 298 L 1465 296 L 1542 429 "/>
<path transform="matrix(.12,0,0,-.12,2,593)" stroke-width="1" stroke-linecap="round" stroke-linejoin="round" fill="none" stroke="#000000" d="M 1017 1054 L 1017 739 L 1069 760 L 1101 662 L 1131 692 L 1269 620 L 1306 698 L 1156 734 L 1181 837 L 1191 1046 L 1017 1054 "/>
<path transform="matrix(.12,0,0,-.12,2,593)" stroke-width="1" stroke-linecap="round" stroke-linejoin="round" fill="none" stroke="#000000" d="M 1850 1189 L 1691 750 L 1421 834 L 1410 789 L 1375 797 L 1375 1111 L 1195 1129 L 1196 1148 L 1341 1141 L 1319 1340 L 1397 1342 L 1575 1375 L 1521 1159 L 1850 1189 "/>
<path transform="matrix(.12,0,0,-.12,2,593)" stroke-width="1" stroke-linecap="round" stroke-linejoin="round" fill="none" stroke="#000000" d="M 2151 2104 L 2211 2294 L 2004 2522 L 1770 2513 L 1644 2262 L 1619 1957 L 1654 1946 L 1742 2240 L 2151 2104 "/>
<path transform="matrix(.12,0,0,-.12,2,593)" stroke-width="1" stroke-linecap="round" stroke-linejoin="round" fill="none" stroke="#000000" d="M 1644 2262 L 1111 2403 L 1111 2184 L 1270 2165 L 1274 1725 L 1605 1698 L 1620 1694 L 1683 1938 L 1654 1946 L 1619 1957 L 1644 2262 "/>
</g>
<g id="Layer-1" data-name="MEIO FIO">
<path transform="matrix(.12,0,0,-.12,2,593)" stroke-width="1" stroke-linecap="round" stroke-linejoin="round" fill="none" stroke="#000000" d="M 2579 2439 L 2304 2291 L 2459 2234 L 2364 1975 L 2403 1981 L 2412 2031 L 2439 2031 L 2445 2072 L 2632 2061 L 2820 2080 L 2768 2227 L 2759 2354 L 2579 2439 "/>
<path transform="matrix(.12,0,0,-.12,2,593)" stroke-width="1" stroke-linecap="round" stroke-linejoin="round" fill="none" stroke="#000000" d="M 1771 3426 L 1596 3749 L 1284 3718 L 1292 3639 L 1461 3647 L 1492 3497 L 1168 3428 L 1157 3236 L 1017 3236 L 1017 2428 L 1111 2403 L 1644 2262 L 1770 2513 L 2004 2522 L 2211 2294 L 2513 2498 L 2818 2900 L 2818 2927 L 2816 2927 L 2778 3142 L 1975 2855 L 1771 3426 "/>
</g>
<g id="Layer-1" data-name="LOTES">
<path transform="matrix(.12,0,0,-.12,2,593)" stroke-width="1" stroke-linecap="round" stroke-linejoin="round" fill="none" stroke="#000000" d="M 2252 2033 L 2207 2051 L 2304 2291 L 2579 2439 L 2734 2706 L 2864 2838 "/>
<path transform="matrix(.12,0,0,-.12,2,593)" stroke-width="1" stroke-linecap="round" stroke-linejoin="round" fill="none" stroke="#000000" d="M 3163.915 2945.2655 C 3056.009 2939.7154 2952.0526 2902.8729 2864.7332 2839.2347 "/>
<path transform="matrix(.12,0,0,-.12,2,593)" stroke-width="1" stroke-linecap="round" stroke-linejoin="round" fill="none" stroke="#000000" d="M 3163 2944 L 3151 3024 L 3128 3020 L 3123 3052 L 2981 3030 L 2995 2974 L 2818 2927 L 2818 2900 L 2513 2498 L 2211 2294 L 2151 2104 L 2032 1826 L 1955 1606 L 1620 1694 L 1605 1698 L 1274 1725 L 1017 1746 L 1017 1687 L 1285 1663 L 1324 1660 L 1621 1633 L 1675 1617 L 1946 1549 L 1850 1189 L 1691 750 L 1570 480 L 1269 620 L 1262 565 L 1542 429 L 1650 383 L 1669 427 L 1723 621 L 1759 613 L 1788 732 L 1794 753 L 1847 932 L 1870 927 L 1894 1086 L 1940 1081 L 1962 1221 L 1992 1218 L 2042 1425 L 2018 1425 L 2191 1878 L 2252 2033 "/>
</g>
<g id="Layer-1" data-name="MEIO FIO">
<path transform="matrix(.12,0,0,-.12,2,593)" stroke-width="1" stroke-linecap="round" stroke-linejoin="round" fill="none" stroke="#000000" d="M 3704 4234 L 4095 4088 L 4167 4279 L 3704 4234 "/>
<path transform="matrix(.12,0,0,-.12,2,593)" stroke-width="1" stroke-linecap="round" stroke-linejoin="round" fill="none" stroke="#000000" d="M 4334 3645 L 3982 3772 L 3944 3785 L 3911 3686 L 3974 3665 L 4105 3579 L 4281 3478 L 4334 3645 "/>
<path transform="matrix(.12,0,0,-.12,2,593)" stroke-width="1" stroke-linecap="round" stroke-linejoin="round" fill="none" stroke="#000000" d="M 4609 3241 L 4790 3107 L 4577 2817 L 4436 2952 L 4609 3241 "/>
<path transform="matrix(.12,0,0,-.12,2,593)" stroke-width="1" stroke-linecap="round" stroke-linejoin="round" fill="none" stroke="#000000" d="M 4843 2984 L 4869 2963 L 4790 3107 L 4577 2817 L 4650 2747 L 4843 2984 "/>
<path transform="matrix(.12,0,0,-.12,2,593)" stroke-width="1" stroke-linecap="round" stroke-linejoin="round" fill="none" stroke="#000000" d="M 4640 3582 L 4622 3569 L 4543 3363 L 4430 3392 L 4414 3370 L 4609 3241 L 4790 3107 L 4838 3142 L 4738 3303 L 4772 3327 L 4640 3582 "/>
<path transform="matrix(.12,0,0,-.12,2,593)" stroke-width="1" stroke-linecap="round" stroke-linejoin="round" fill="none" stroke="#000000" d="M 4513 3941 L 4552 3934 L 4552 3791 L 4622 3569 L 4388 3654 L 4422 3748 L 4440 3742 L 4513 3941 "/>
<path transform="matrix(.12,0,0,-.12,2,593)" stroke-width="1" stroke-linecap="round" stroke-linejoin="round" fill="none" stroke="#000000" d="M 4513 4174 L 4517 4190 L 4253 4249 L 4168 4281 L 4121 4157 L 4266 4105 L 4299 4204 L 4359 4175 L 4391 4168 L 4396 4198 L 4513 4174 "/>
<path transform="matrix(.12,0,0,-.12,2,593)" stroke-width="1" stroke-linecap="round" stroke-linejoin="round" fill="none" stroke="#000000" d="M 4506 4647 L 4514 4406 L 4300 4399 L 4253 4249 L 4172 4280 L 4197 4282 L 4162 4635 L 4241 4615 L 4506 4647 "/>
<path transform="matrix(.12,0,0,-.12,2,593)" stroke-width="1" stroke-linecap="round" stroke-linejoin="round" fill="none" stroke="#000000" d="M 3704 4234 L 3519 4722 L 3596 4737 L 3596 4823 L 3489 4735 L 3450 4795 L 3311 4705 L 3207 4658 L 3286 4563 L 3079 4428 L 2926 4661 L 2702 4573 L 2710 4547 L 2892 4602 L 2988 4335 L 2774 4266 L 2801 4179 L 2641 4130 L 2663 4060 L 2768 4068 L 2873 4124 L 3084 4152 L 3086 4074 L 3090 3913 L 3197 3932 L 3574 3936 L 3726 3878 L 3950 3805 L 3944 3785 L 3982 3772 L 4095 4088 L 3704 4234 "/>
<path transform="matrix(.12,0,0,-.12,2,593)" stroke-width="1" stroke-linecap="round" stroke-linejoin="round" fill="none" stroke="#000000" d="M 4640 3582 L 4605 3954 L 4646 4043 L 4595 4067 L 4663 4157 L 4517 4190 L 4514 4174 L 4552 3934 L 4552 3791 L 4622 3569 L 4640 3582 "/>
<path transform="matrix(.12,0,0,-.12,2,593)" stroke-width="1" stroke-linecap="round" stroke-linejoin="round" fill="none" stroke="#000000" d="M 5961 4880 L 4653 4880 L 4673 4789 L 4562 4789 L 4546 4854 L 4461 4834 L 4506 4647 L 4514 4406 L 4721 4413 L 4707 4352 L 4984 4318 L 4934 4131 L 4873 4089 L 4744 3890 L 4605 3954 L 4640 3582 L 4823 3693 L 5037 3361 L 4933 3289 L 4965 3236 L 5147 2930 L 4986 2868 L 5054 2813 L 5106 2878 L 5640 2444 L 5496 2267 L 5544 2228 L 5368 2012 "/>
<path transform="matrix(.12,0,0,-.12,2,593)" stroke-width="1" stroke-linecap="round" stroke-linejoin="round" fill="none" stroke="#000000" d="M 5302.177 1923.3146 C 5325.67 1952.2338 5347.718 1982.2977 5368.2395 2013.3961 "/>
<path transform="matrix(.12,0,0,-.12,2,593)" stroke-width="1" stroke-linecap="round" stroke-linejoin="round" fill="none" stroke="#000000" d="M 5302 1922 L 5385 1851 L 5075 1548 L 4869 1295 L 4742 1163 L 4549 889 L 4908 650 L 4641 46 L 4649 42 L 5961 42 L 5961 4880 "/>
</g>
<g id="Layer-1" data-name="0">
<path transform="matrix(.12,0,0,-.12,2,593)" stroke-width="1" stroke-linecap="round" stroke-linejoin="round" fill="none" stroke="#000000" d="M 4485 1506 L 4240 1405 L 3880 996 L 3674 762 L 3478 42 "/>
</g>
<g id="Layer-1" data-name="LOTES">
<path transform="matrix(.12,0,0,-.12,2,593)" stroke-width="1" stroke-linecap="round" stroke-linejoin="round" fill="none" stroke="#000000" d="M 4680 1222 L 5022 1590 L 4975 1647 "/>
<path transform="matrix(.12,0,0,-.12,2,593)" stroke-width="1" stroke-linecap="round" stroke-linejoin="round" fill="none" stroke="#000000" d="M 4485.1398 1507.5757 C 4656.8835 1516.6567 4824.2858 1564.8373 4974.58 1648.443 "/>
<path transform="matrix(.12,0,0,-.12,2,593)" stroke-width="1" stroke-linecap="round" stroke-linejoin="round" fill="none" stroke="#000000" d="M 4485 1506 L 4240 1405 L 3880 996 L 3674 762 L 3478 42 L 4479 42 L 4767 618 L 4418 832 L 4680 1222 "/>
<path transform="matrix(.12,0,0,-.12,2,593)" stroke-width="1" stroke-linecap="round" stroke-linejoin="round" fill="none" stroke="#000000" d="M 4399.8376 1506.2915 C 4428.278 1505.6453 4456.732 1506.0736 4485.1398 1507.5757 "/>
<path transform="matrix(.12,0,0,-.12,2,593)" stroke-width="1" stroke-linecap="round" stroke-linejoin="round" fill="none" stroke="#000000" d="M 4400 1505 L 4036 1515 L 4031 1905 L 4404 1891 "/>
<path transform="matrix(.12,0,0,-.12,2,593)" stroke-width="1" stroke-linecap="round" stroke-linejoin="round" fill="none" stroke="#000000" d="M 4404.3386 1891.2197 C 4547.939 1887.543 4688.925 1930.0818 4806.5275 2012.5701 "/>
<path transform="matrix(.12,0,0,-.12,2,593)" stroke-width="1" stroke-linecap="round" stroke-linejoin="round" fill="none" stroke="#000000" d="M 4806 2012 L 4563 2209 L 4259 2095 L 4168 2061 L 4048 1959 L 3740 1698 L 3732 1708 L 3352 1398 L 3090 1214 L 3123 1161 L 2905 992 L 2664 789 L 2552 694 L 2475 630 L 2432 594 L 2327 475 L 1995 234 L 1711 42 L 3478 42 L 3674 762 L 3880 996 L 4240 1405 L 4485 1506 "/>
<path transform="matrix(.12,0,0,-.12,2,593)" stroke-width="1" stroke-linecap="round" stroke-linejoin="round" fill="none" stroke="#000000" d="M 1055 205 L 1076 240 L 1017 274 L 1017 42 L 1359 42 L 1325 50 L 1055 205 "/>
</g>
<g id="Layer-1" data-name="EDIFICACOES">
<path transform="matrix(.12,0,0,-.12,2,593)" stroke-width="1" stroke-linecap="round" stroke-linejoin="round" fill="none" stroke="#000000" d="M 4036 1515 L 4400 1505 "/>
<path transform="matrix(.12,0,0,-.12,2,593)" stroke-width="1" stroke-linecap="round" stroke-linejoin="round" fill="none" stroke="#000000" d="M 4399.8376 1506.2915 C 4788.3845 1497.4614 5154.1809 1689.0111 5368.2395 2013.3961 "/>
<path transform="matrix(.12,0,0,-.12,2,593)" stroke-width="1" stroke-linecap="round" stroke-linejoin="round" fill="none" stroke="#000000" d="M 5368 2012 L 5544 2228 L 5227 2485 L 4967 2172 "/>
<path transform="matrix(.12,0,0,-.12,2,593)" stroke-width="1" stroke-linecap="round" stroke-linejoin="round" fill="none" stroke="#000000" d="M 4404.3386 1891.2197 C 4627.3127 1885.5106 4838.5285 1991.0548 4967.8337 2172.797 "/>
<path transform="matrix(.12,0,0,-.12,2,593)" stroke-width="1" stroke-linecap="round" stroke-linejoin="round" fill="none" stroke="#000000" d="M 4404 1891 L 4031 1905 L 4036 1515 "/>
<path transform="matrix(.12,0,0,-.12,2,593)" stroke-width="1" stroke-linecap="round" stroke-linejoin="round" fill="none" stroke="#000000" d="M 4427 2908 L 4214 2671 L 4097 2757 L 4032 2714 L 3928 2797 L 3978 2862 L 3899 2915 L 3953 3045 L 3856 3081 L 3885 3156 L 3982 3124 L 4237 3030 L 4427 2908 "/>
<path transform="matrix(.12,0,0,-.12,2,593)" stroke-width="1" stroke-linecap="round" stroke-linejoin="round" fill="none" stroke="#000000" d="M 2786 1303 L 2380 1210 L 2405 1034 L 2829 1135 L 2786 1303 "/>
<path transform="matrix(.12,0,0,-.12,2,593)" stroke-width="1" stroke-linecap="round" stroke-linejoin="round" fill="none" stroke="#000000" d="M 2445 2072 L 2439 2031 L 2412 2031 L 2403 1981 L 2364 1975 L 2316 1845 L 2305 1734 L 2286 1485 L 2592 1504 L 2632 2061 L 2445 2072 "/>
<path transform="matrix(.12,0,0,-.12,2,593)" stroke-width="1" stroke-linecap="round" stroke-linejoin="round" fill="none" stroke="#000000" d="M 1723 621 L 2036 546 L 2003 377 L 1766 435 L 1752 395 L 1669 427 L 1723 621 "/>
<path transform="matrix(.12,0,0,-.12,2,593)" stroke-width="1" stroke-linecap="round" stroke-linejoin="round" fill="none" stroke="#000000" d="M 1224 499 L 1055 205 L 1325 50 L 1465 296 L 1260 406 L 1289 460 L 1224 499 "/>
<path transform="matrix(.12,0,0,-.12,2,593)" stroke-width="1" stroke-linecap="round" stroke-linejoin="round" fill="none" stroke="#000000" d="M 2643 4922 L 2643 4922 "/>
<path transform="matrix(.12,0,0,-.12,2,593)" stroke-width="1" stroke-linecap="round" stroke-linejoin="round" fill="none" stroke="#000000" d="M 2851 4922 L 2851 4922 "/>
<path transform="matrix(.12,0,0,-.12,2,593)" stroke-width="1" stroke-linecap="round" stroke-linejoin="round" fill="none" stroke="#000000" d="M 1838 4922 L 1838 4919 L 1903 4922 "/>
<path transform="matrix(.12,0,0,-.12,2,593)" stroke-width="1" stroke-linecap="round" stroke-linejoin="round" fill="none" stroke="#000000" d="M 2616 4922 L 2616 4922 "/>
<path transform="matrix(.12,0,0,-.12,2,593)" stroke-width="1" stroke-linecap="round" stroke-linejoin="round" fill="none" stroke="#000000" d="M 2224 4922 L 2224 4922 "/>
<path transform="matrix(.12,0,0,-.12,2,593)" stroke-width="1" stroke-linecap="round" stroke-linejoin="round" fill="none" stroke="#000000" d="M 1321 4922 L 1321 4922 "/>
<path transform="matrix(.12,0,0,-.12,2,593)" stroke-width="1" stroke-linecap="round" stroke-linejoin="round" fill="none" stroke="#000000" d="M 1126 4922 L 1126 4922 "/>
<path transform="matrix(.12,0,0,-.12,2,593)" stroke-width="1" stroke-linecap="round" stroke-linejoin="round" fill="none" stroke="#000000" d="M 5054 2813 L 4843 2984 L 4650 2747 L 4861 2576 L 5054 2813 "/>
<path transform="matrix(.12,0,0,-.12,2,593)" stroke-width="1" stroke-linecap="round" stroke-linejoin="round" fill="none" stroke="#000000" d="M 4571 2722 L 4757 2539 L 4523 2294 L 4314 2494 L 4571 2722 "/>
<path transform="matrix(.12,0,0,-.12,2,593)" stroke-width="1" stroke-linecap="round" stroke-linejoin="round" fill="none" stroke="#000000" d="M 4427 2908 L 4060 2496 L 4179 2390 L 4515 2811 L 4427 2908 "/>
<path transform="matrix(.12,0,0,-.12,2,593)" stroke-width="1" stroke-linecap="round" stroke-linejoin="round" fill="none" stroke="#000000" d="M 3201 2242 L 3367 2218 L 3393 2402 L 3368 2441 L 3220 2424 L 3201 2242 "/>
<path transform="matrix(.12,0,0,-.12,2,593)" stroke-width="1" stroke-linecap="round" stroke-linejoin="round" fill="none" stroke="#000000" d="M 3073 3359 L 3265 3393 L 3329 3050 L 3128 3020 L 3073 3359 "/>
<path transform="matrix(.12,0,0,-.12,2,593)" stroke-width="1" stroke-linecap="round" stroke-linejoin="round" fill="none" stroke="#000000" d="M 3095 3222 L 2773 3169 L 2816 2927 L 2995 2974 L 2981 3030 L 3123 3052 L 3095 3222 "/>
<path transform="matrix(.12,0,0,-.12,2,593)" stroke-width="1" stroke-linecap="round" stroke-linejoin="round" fill="none" stroke="#000000" d="M 2010 685 L 1980 559 L 2246 495 L 2277 623 L 2010 685 "/>
<path transform="matrix(.12,0,0,-.12,2,593)" stroke-width="1" stroke-linecap="round" stroke-linejoin="round" fill="none" stroke="#000000" d="M 2188 886 L 2180 646 L 2367 625 L 2375 878 L 2188 886 "/>
<path transform="matrix(.12,0,0,-.12,2,593)" stroke-width="1" stroke-linecap="round" stroke-linejoin="round" fill="none" stroke="#000000" d="M 2426 912 L 2475 630 L 2552 694 L 2664 789 L 2612 950 L 2426 912 "/>
<path transform="matrix(.12,0,0,-.12,2,593)" stroke-width="1" stroke-linecap="round" stroke-linejoin="round" fill="none" stroke="#000000" d="M 2872 1932 L 3185 1907 L 3181 1607 L 2957 1544 L 2872 1932 "/>
<path transform="matrix(.12,0,0,-.12,2,593)" stroke-width="1" stroke-linecap="round" stroke-linejoin="round" fill="none" stroke="#000000" d="M 3251 1626 L 3352 1398 L 3090 1214 L 3045 1286 L 2843 1234 L 2783 1469 L 2953 1539 L 2964 1490 L 3192 1570 L 3181 1607 L 3251 1626 "/>
<path transform="matrix(.12,0,0,-.12,2,593)" stroke-width="1" stroke-linecap="round" stroke-linejoin="round" fill="none" stroke="#000000" d="M 3413 3294 L 3429 2900 L 3739 2941 L 3739 2991 L 3838 2991 L 3810 3257 L 3754 3257 L 3754 3323 L 3413 3294 "/>
<path transform="matrix(.12,0,0,-.12,2,593)" stroke-width="1" stroke-linecap="round" stroke-linejoin="round" fill="none" stroke="#000000" d="M 3031 2126 L 3013 1989 L 3419 1896 L 3450 2064 L 3031 2126 "/>
<path transform="matrix(.12,0,0,-.12,2,593)" stroke-width="1" stroke-linecap="round" stroke-linejoin="round" fill="none" stroke="#000000" d="M 1017 3934 L 1117 3840 L 1117 3553 L 1017 3553 L 1017 3934 "/>
<path transform="matrix(.12,0,0,-.12,2,593)" stroke-width="1" stroke-linecap="round" stroke-linejoin="round" fill="none" stroke="#000000" d="M 2678 3106 L 1975 2855 L 1771 3426 L 2497 3698 L 2678 3106 "/>
<path transform="matrix(.12,0,0,-.12,2,593)" stroke-width="1" stroke-linecap="round" stroke-linejoin="round" fill="none" stroke="#000000" d="M 1117 3752 L 1280 3756 L 1292 3639 L 1461 3647 L 1492 3497 L 1168 3428 L 1117 3752 "/>
<path transform="matrix(.12,0,0,-.12,2,593)" stroke-width="1" stroke-linecap="round" stroke-linejoin="round" fill="none" stroke="#000000" d="M 1076 4880 L 1116 4711 L 1069 4705 L 1145 4419 L 1282 4442 L 1262 4525 L 1488 4551 L 1442 4751 L 1369 4741 L 1338 4880 L 1076 4880 "/>
<path transform="matrix(.12,0,0,-.12,2,593)" stroke-width="1" stroke-linecap="round" stroke-linejoin="round" fill="none" stroke="#000000" d="M 2364 4460 L 2493 4055 L 2663 4060 L 2561 4391 L 2606 4406 L 2569 4520 L 2364 4460 L 1977 4354 L 1996 4179 L 2039 4069 L 2091 4090 L 2396 4090 L 2493 4055 L 2364 4460 "/>
<path transform="matrix(.12,0,0,-.12,2,593)" stroke-width="1" stroke-linecap="round" stroke-linejoin="round" fill="none" stroke="#000000" d="M 2892 4602 L 2710 4547 L 2702 4573 L 2567 4526 L 2606 4406 L 2561 4391 L 2641 4130 L 2801 4179 L 2774 4266 L 2988 4335 L 2892 4602 "/>
<path transform="matrix(.12,0,0,-.12,2,593)" stroke-width="1" stroke-linecap="round" stroke-linejoin="round" fill="none" stroke="#000000" d="M 2557 3922 L 2766 3996 L 2807 3881 L 3010 3937 L 3080 3686 L 2663 3541 L 2566 3831 L 2592 3840 L 2557 3922 "/>
<path transform="matrix(.12,0,0,-.12,2,593)" stroke-width="1" stroke-linecap="round" stroke-linejoin="round" fill="none" stroke="#000000" d="M 3486 3411 L 3096 3463 L 3197 3932 L 3574 3936 L 3486 3411 "/>
<path transform="matrix(.12,0,0,-.12,2,593)" stroke-width="1" stroke-linecap="round" stroke-linejoin="round" fill="none" stroke="#000000" d="M 3096 4790 L 2926 4661 L 3079 4428 L 3286 4563 L 3096 4790 "/>
<path transform="matrix(.12,0,0,-.12,2,593)" stroke-width="1" stroke-linecap="round" stroke-linejoin="round" fill="none" stroke="#000000" d="M 3225 4880 L 3311 4705 L 3450 4795 L 3489 4735 L 3596 4823 L 3596 4880 L 3225 4880 "/>
<path transform="matrix(.12,0,0,-.12,2,593)" stroke-width="1" stroke-linecap="round" stroke-linejoin="round" fill="none" stroke="#000000" d="M 3596 4880 L 3596 4737 L 4058 4823 L 4047 4880 L 3596 4880 "/>
<path transform="matrix(.12,0,0,-.12,2,593)" stroke-width="1" stroke-linecap="round" stroke-linejoin="round" fill="none" stroke="#000000" d="M 4162 4635 L 4197 4282 L 3704 4234 L 3649 4559 L 4162 4635 "/>
<path transform="matrix(.12,0,0,-.12,2,593)" stroke-width="1" stroke-linecap="round" stroke-linejoin="round" fill="none" stroke="#000000" d="M 1777 4880 L 1780 4545 L 2295 4662 L 2295 4880 L 1777 4880 "/>
<path transform="matrix(.12,0,0,-.12,2,593)" stroke-width="1" stroke-linecap="round" stroke-linejoin="round" fill="none" stroke="#000000" d="M 2295 4662 L 2704 4763 L 2744 4781 L 2784 4801 L 2821 4825 L 2857 4851 L 2890 4880 L 2295 4880 L 2295 4662 "/>
<path transform="matrix(.12,0,0,-.12,2,593)" stroke-width="1" stroke-linecap="round" stroke-linejoin="round" fill="none" stroke="#000000" d="M 3423 3054 L 3329 3050 L 3278 3325 L 3447 3357 L 3452 3297 L 3413 3294 L 3423 3054 "/>
<path transform="matrix(.12,0,0,-.12,2,593)" stroke-width="1" stroke-linecap="round" stroke-linejoin="round" fill="none" stroke="#000000" d="M 3584 3447 L 3726 3878 L 3950 3805 L 3911 3686 L 3974 3665 L 3870 3349 L 3584 3447 "/>
<path transform="matrix(.12,0,0,-.12,2,593)" stroke-width="1" stroke-linecap="round" stroke-linejoin="round" fill="none" stroke="#000000" d="M 3225 4880 L 3119 4880 L 3096 4790 L 3207 4658 L 3311 4705 L 3225 4880 "/>
<path transform="matrix(.12,0,0,-.12,2,593)" stroke-width="1" stroke-linecap="round" stroke-linejoin="round" fill="none" stroke="#000000" d="M 4105 3579 L 4430 3392 L 4268 3164 L 4241 3184 L 4206 3117 L 4078 3195 L 3967 3282 L 4105 3579 "/>
<path transform="matrix(.12,0,0,-.12,2,593)" stroke-width="1" stroke-linecap="round" stroke-linejoin="round" fill="none" stroke="#000000" d="M 2883 2682 L 2925 2413 L 3334 2469 L 3303 2732 L 2883 2682 "/>
<path transform="matrix(.12,0,0,-.12,2,593)" stroke-width="1" stroke-linecap="round" stroke-linejoin="round" fill="none" stroke="#000000" d="M 3148 2413 L 3171 2233 L 2905 2199 L 2889 2391 L 3148 2413 "/>
<path transform="matrix(.12,0,0,-.12,2,593)" stroke-width="1" stroke-linecap="round" stroke-linejoin="round" fill="none" stroke="#000000" d="M 3352 1398 L 3732 1708 L 3586 1876 L 3185 1907 L 3181 1607 L 3251 1626 L 3352 1398 "/>
<path transform="matrix(.12,0,0,-.12,2,593)" stroke-width="1" stroke-linecap="round" stroke-linejoin="round" fill="none" stroke="#000000" d="M 3245 2235 L 3241 2095 L 3450 2064 L 3450 1896 L 3643 1891 L 3641 1847 L 3779 1785 L 3846 2018 L 3733 2051 L 3752 2154 L 3367 2218 L 3245 2235 "/>
<path transform="matrix(.12,0,0,-.12,2,593)" stroke-width="1" stroke-linecap="round" stroke-linejoin="round" fill="none" stroke="#000000" d="M 4040 2273 L 4126 2306 L 4245 2126 L 4048 1959 L 3733 2051 L 3771 2285 L 4040 2273 "/>
<path transform="matrix(.12,0,0,-.12,2,593)" stroke-width="1" stroke-linecap="round" stroke-linejoin="round" fill="none" stroke="#000000" d="M 3789 2948 L 3478 2906 L 3475 2741 L 3780 2721 L 3789 2948 "/>
<path transform="matrix(.12,0,0,-.12,2,593)" stroke-width="1" stroke-linecap="round" stroke-linejoin="round" fill="none" stroke="#000000" d="M 3393 2402 L 3630 2431 L 3588 2181 L 3367 2218 L 3393 2402 "/>
<path transform="matrix(.12,0,0,-.12,2,593)" stroke-width="1" stroke-linecap="round" stroke-linejoin="round" fill="none" stroke="#000000" d="M 3630 2431 L 3782 2476 L 3728 2158 L 3588 2181 L 3630 2431 "/>
<path transform="matrix(.12,0,0,-.12,2,593)" stroke-width="1" stroke-linecap="round" stroke-linejoin="round" fill="none" stroke="#000000" d="M 1847 932 L 1794 753 L 2180 664 L 2187 854 L 1847 932 "/>
<path transform="matrix(.12,0,0,-.12,2,593)" stroke-width="1" stroke-linecap="round" stroke-linejoin="round" fill="none" stroke="#000000" d="M 1894 1086 L 1870 927 L 2162 859 L 2188 1053 L 1894 1086 "/>
<path transform="matrix(.12,0,0,-.12,2,593)" stroke-width="1" stroke-linecap="round" stroke-linejoin="round" fill="none" stroke="#000000" d="M 1962 1221 L 1940 1081 L 2141 1059 L 2141 1202 L 1962 1221 "/>
<path transform="matrix(.12,0,0,-.12,2,593)" stroke-width="1" stroke-linecap="round" stroke-linejoin="round" fill="none" stroke="#000000" d="M 2307 1481 L 2305 1435 L 2206 1426 L 2206 1130 L 2230 1130 L 2230 1069 L 2385 1069 L 2348 1254 L 2430 1254 L 2523 1290 L 2523 1482 L 2307 1481 "/>
<path transform="matrix(.12,0,0,-.12,2,593)" stroke-width="1" stroke-linecap="round" stroke-linejoin="round" fill="none" stroke="#000000" d="M 2568 1485 L 2573 1254 L 2746 1294 L 2757 1505 L 2568 1485 "/>
<path transform="matrix(.12,0,0,-.12,2,593)" stroke-width="1" stroke-linecap="round" stroke-linejoin="round" fill="none" stroke="#000000" d="M 2632 2061 L 2820 2080 L 2872 1932 L 2957 1544 L 2953 1539 L 2783 1469 L 2787 1530 L 2592 1504 L 2632 2061 "/>
<path transform="matrix(.12,0,0,-.12,2,593)" stroke-width="1" stroke-linecap="round" stroke-linejoin="round" fill="none" stroke="#000000" d="M 2304 2291 L 2459 2234 L 2316 1845 L 2191 1878 L 2252 2033 L 2207 2051 L 2304 2291 "/>
<path transform="matrix(.12,0,0,-.12,2,593)" stroke-width="1" stroke-linecap="round" stroke-linejoin="round" fill="none" stroke="#000000" d="M 2405 1034 L 2414 974 L 2448 983 L 2460 919 L 2704 969 L 2678 1099 L 2405 1034 "/>
<path transform="matrix(.12,0,0,-.12,2,593)" stroke-width="1" stroke-linecap="round" stroke-linejoin="round" fill="none" stroke="#000000" d="M 2678 1099 L 2704 969 L 2612 950 L 2664 789 L 2905 992 L 2829 1135 L 2678 1099 "/>
<path transform="matrix(.12,0,0,-.12,2,593)" stroke-width="1" stroke-linecap="round" stroke-linejoin="round" fill="none" stroke="#000000" d="M 2230 1069 L 2188 886 L 2375 878 L 2433 875 L 2414 974 L 2405 1034 L 2400 1069 L 2230 1069 "/>
<path transform="matrix(.12,0,0,-.12,2,593)" stroke-width="1" stroke-linecap="round" stroke-linejoin="round" fill="none" stroke="#000000" d="M 3045 1286 L 2808 1219 L 2829 1135 L 2905 992 L 3123 1161 L 3045 1286 "/>
<path transform="matrix(.12,0,0,-.12,2,593)" stroke-width="1" stroke-linecap="round" stroke-linejoin="round" fill="none" stroke="#000000" d="M 1281 2165 L 1017 2195 L 1017 1746 L 1274 1725 L 1281 2165 "/>
<path transform="matrix(.12,0,0,-.12,2,593)" stroke-width="1" stroke-linecap="round" stroke-linejoin="round" fill="none" stroke="#000000" d="M 1946 1549 L 1675 1617 L 1650 1493 L 1607 1502 L 1521 1159 L 1850 1189 L 1946 1549 "/>
<path transform="matrix(.12,0,0,-.12,2,593)" stroke-width="1" stroke-linecap="round" stroke-linejoin="round" fill="none" stroke="#000000" d="M 1389 1595 L 1397 1342 L 1319 1340 L 1341 1141 L 1052 1156 L 1040 1572 L 1389 1595 L 1397 1342 L 1575 1375 L 1602 1582 L 1389 1595 "/>
<path transform="matrix(.12,0,0,-.12,2,593)" stroke-width="1" stroke-linecap="round" stroke-linejoin="round" fill="none" stroke="#000000" d="M 2010 685 L 1788 732 L 1759 613 L 1980 559 L 2010 685 "/>
<path transform="matrix(.12,0,0,-.12,2,593)" stroke-width="1" stroke-linecap="round" stroke-linejoin="round" fill="none" stroke="#000000" d="M 1691 750 L 1570 480 L 1269 620 L 1306 698 L 1385 684 L 1421 834 L 1691 750 "/>
<path transform="matrix(.12,0,0,-.12,2,593)" stroke-width="1" stroke-linecap="round" stroke-linejoin="round" fill="none" stroke="#000000" d="M 1269 620 L 1262 565 L 1224 499 L 1076 240 L 1017 274 L 1017 574 L 1131 692 L 1269 620 "/>
<path transform="matrix(.12,0,0,-.12,2,593)" stroke-width="1" stroke-linecap="round" stroke-linejoin="round" fill="none" stroke="#000000" d="M 1017 739 L 1069 760 L 1101 662 L 1017 574 L 1017 739 "/>
<path transform="matrix(.12,0,0,-.12,2,593)" stroke-width="1" stroke-linecap="round" stroke-linejoin="round" fill="none" stroke="#000000" d="M 1195 1129 L 1181 837 L 1375 797 L 1375 1111 L 1195 1129 "/>
<path transform="matrix(.12,0,0,-.12,2,593)" stroke-width="1" stroke-linecap="round" stroke-linejoin="round" fill="none" stroke="#000000" d="M 1181 837 L 1156 734 L 1306 698 L 1385 684 L 1410 789 L 1181 837 "/>
<path transform="matrix(.12,0,0,-.12,2,593)" stroke-width="1" stroke-linecap="round" stroke-linejoin="round" fill="none" stroke="#000000" d="M 1052 1156 L 1017 1156 L 1017 1054 L 1191 1046 L 1195 1129 L 1196 1148 L 1052 1156 "/>
<path transform="matrix(.12,0,0,-.12,2,593)" stroke-width="1" stroke-linecap="round" stroke-linejoin="round" fill="none" stroke="#000000" d="M 1017 2195 L 1017 2428 L 1111 2403 L 1111 2184 L 1017 2195 "/>
<path transform="matrix(.12,0,0,-.12,2,593)" stroke-width="1" stroke-linecap="round" stroke-linejoin="round" fill="none" stroke="#000000" d="M 1683 1938 L 1620 1694 L 1955 1606 L 2032 1826 L 1683 1938 "/>
<path transform="matrix(.12,0,0,-.12,2,593)" stroke-width="1" stroke-linecap="round" stroke-linejoin="round" fill="none" stroke="#000000" d="M 2032 1826 L 2151 2104 L 1742 2240 L 1654 1946 L 1683 1938 L 2032 1826 "/>
<path transform="matrix(.12,0,0,-.12,2,593)" stroke-width="1" stroke-linecap="round" stroke-linejoin="round" fill="none" stroke="#000000" d="M 2191 1878 L 2316 1845 L 2286 1485 L 2282 1433 L 2206 1426 L 2018 1425 L 2191 1878 "/>
<path transform="matrix(.12,0,0,-.12,2,593)" stroke-width="1" stroke-linecap="round" stroke-linejoin="round" fill="none" stroke="#000000" d="M 2042 1425 L 1992 1218 L 2141 1202 L 2206 1196 L 2206 1426 L 2042 1425 "/>
<path transform="matrix(.12,0,0,-.12,2,593)" stroke-width="1" stroke-linecap="round" stroke-linejoin="round" fill="none" stroke="#000000" d="M 4121 4157 L 4095 4088 L 3982 3772 L 4379 3629 L 4422 3748 L 4182 3835 L 4266 4105 L 4121 4157 "/>
<path transform="matrix(.12,0,0,-.12,2,593)" stroke-width="1" stroke-linecap="round" stroke-linejoin="round" fill="none" stroke="#000000" d="M 4182 3835 L 4246 4040 L 4513 3941 L 4440 3742 L 4182 3835 "/>
<path transform="matrix(.12,0,0,-.12,2,593)" stroke-width="1" stroke-linecap="round" stroke-linejoin="round" fill="none" stroke="#000000" d="M 4281 3478 L 4430 3392 L 4543 3363 L 4622 3569 L 4388 3654 L 4379 3629 L 4334 3645 L 4281 3478 "/>
<path transform="matrix(.12,0,0,-.12,2,593)" stroke-width="1" stroke-linecap="round" stroke-linejoin="round" fill="none" stroke="#000000" d="M 4414 3370 L 4214 3085 L 4436 2952 L 4609 3241 L 4414 3370 "/>
<path transform="matrix(.12,0,0,-.12,2,593)" stroke-width="1" stroke-linecap="round" stroke-linejoin="round" fill="none" stroke="#000000" d="M 4965 3236 L 5147 2930 L 4986 2868 L 4869 2963 L 4790 3107 L 4965 3236 "/>
<path transform="matrix(.12,0,0,-.12,2,593)" stroke-width="1" stroke-linecap="round" stroke-linejoin="round" fill="none" stroke="#000000" d="M 4823 3693 L 4640 3582 L 4772 3327 L 4738 3303 L 4838 3142 L 4965 3236 L 4933 3289 L 5037 3361 L 4823 3693 "/>
<path transform="matrix(.12,0,0,-.12,2,593)" stroke-width="1" stroke-linecap="round" stroke-linejoin="round" fill="none" stroke="#000000" d="M 4552 3934 L 4513 4174 L 4396 4198 L 4391 4168 L 4359 4175 L 4299 4204 L 4266 4105 L 4246 4040 L 4513 3941 L 4552 3934 "/>
<path transform="matrix(.12,0,0,-.12,2,593)" stroke-width="1" stroke-linecap="round" stroke-linejoin="round" fill="none" stroke="#000000" d="M 4300 4399 L 4253 4249 L 4663 4157 L 4721 4413 L 4300 4399 "/>
<path transform="matrix(.12,0,0,-.12,2,593)" stroke-width="1" stroke-linecap="round" stroke-linejoin="round" fill="none" stroke="#000000" d="M 4984 4318 L 4934 4131 L 4873 4089 L 4744 3890 L 4605 3954 L 4646 4043 L 4595 4067 L 4663 4157 L 4707 4352 L 4984 4318 "/>
<path transform="matrix(.12,0,0,-.12,2,593)" stroke-width="1" stroke-linecap="round" stroke-linejoin="round" fill="none" stroke="#000000" d="M 4175 4880 L 4241 4615 L 4506 4647 L 4450 4880 L 4175 4880 "/>
<path transform="matrix(.12,0,0,-.12,2,593)" stroke-width="1" stroke-linecap="round" stroke-linejoin="round" fill="none" stroke="#000000" d="M 4450 4880 L 4461 4834 L 4546 4854 L 4562 4789 L 4673 4789 L 4653 4880 L 4450 4880 "/>
</g>
</g>
</g>
</svg>
