<!DOCTYPE svg PUBLIC "-//W3C//DTD SVG 20010904//EN" "http://www.w3.org/TR/2001/REC-SVG-20010904/DTD/svg10.dtd">
<svg version="1.0" xmlns="http://www.w3.org/2000/svg" width="2494px" height="2442px" viewBox="0 0 12000 11750" preserveAspectRatio="xMidYMid meet">
<g id="layer101" fill="#000000" stroke="none">
 <path d="M90 10400 l0 -1350 40 0 40 0 0 -52 c1 -112 -21 -845 -26 -885 -5 -37 -8 -43 -30 -43 l-24 0 0 -2010 0 -2010 169 0 169 0 6 -30 c3 -17 8 -124 11 -238 l6 -207 -49 -290 -50 -290 -1 158 -1 157 -130 0 -130 0 0 -1604 0 -1604 133 -5 c173 -8 6874 -7 9625 0 l2152 6 0 5824 0 5823 -5955 0 -5955 0 0 -1350z m8676 650 c189 -376 341 -687 338 -691 -2 -4 -52 -36 -111 -72 -60 -35 -157 -95 -218 -132 -169 -105 -364 -224 -428 -262 -32 -19 -61 -41 -63 -48 -4 -11 197 -322 302 -466 19 -26 34 -50 34 -54 0 -3 20 -34 44 -68 24 -34 87 -127 140 -206 86 -129 142 -194 504 -584 224 -241 408 -442 410 -446 2 -5 -18 -32 -43 -62 -25 -29 -45 -57 -45 -61 0 -5 -28 7 -62 26 -103 57 -345 155 -472 192 -221 63 -493 113 -614 114 -20 0 -64 12 -97 26 -33 14 -118 49 -190 78 -296 121 -330 137 -359 169 -32 36 -106 119 -217 246 -41 47 -114 130 -164 185 -49 55 -106 119 -125 142 -48 57 -521 596 -584 664 -99 108 -233 265 -243 285 -5 11 -19 56 -31 100 -30 113 -249 918 -330 1215 -64 229 -102 377 -102 390 0 7 409 9 1192 8 l1192 -3 342 -685z m66 633 c50 -109 149 -334 164 -371 9 -20 42 -95 74 -167 112 -251 179 -402 255 -575 42 -96 88 -199 101 -229 14 -30 21 -58 17 -61 -5 -4 -93 -64 -198 -133 -104 -70 -269 -180 -364 -244 -96 -65 -196 -130 -221 -145 -79 -45 -79 -43 3 -158 39 -57 90 -129 112 -161 230 -333 282 -400 435 -559 88 -91 172 -182 187 -201 15 -20 123 -153 239 -295 193 -237 243 -290 583 -623 204 -201 371 -367 371 -370 0 -10 -168 -151 -180 -151 -5 0 -10 4 -10 9 0 23 -244 267 -381 379 -76 63 -277 201 -336 231 -24 12 -43 24 -43 27 0 4 23 33 52 66 48 56 51 61 37 83 -12 19 -165 186 -289 316 -19 20 -78 83 -130 139 -52 57 -107 115 -121 129 -14 14 -80 85 -146 156 -96 105 -156 185 -308 410 -332 492 -435 647 -435 654 1 6 44 34 140 90 30 18 109 65 175 106 66 41 140 87 165 102 25 14 68 41 95 58 28 18 94 58 148 90 54 32 100 62 103 66 3 5 -150 319 -340 699 l-346 690 183 0 183 0 26 -57z m3158 -5758 l0 -5815 -1560 0 c-1543 0 -1560 0 -1560 20 0 10 9 58 20 105 11 47 20 88 20 90 0 3 -65 5 -145 5 l-144 0 -10 -38 c-6 -21 -14 -52 -17 -70 -8 -38 -25 -40 -125 -14 l-66 17 29 115 c63 254 68 286 73 457 2 93 7 228 11 301 l6 132 117 -5 c64 -2 176 -7 250 -10 l134 -6 -6 38 c-3 21 -9 54 -13 74 -8 45 -42 36 346 85 162 20 298 39 302 43 4 4 3 22 -2 41 -5 19 -33 121 -61 225 -28 105 -58 198 -67 208 -9 10 -41 33 -70 50 -44 26 -65 50 -119 132 -123 186 -210 320 -232 358 -28 45 -17 48 -211 -44 -79 -38 -145 -67 -147 -66 -3 4 78 841 82 846 4 3 70 -36 205 -119 115 -72 217 -130 228 -130 8 0 66 87 317 475 163 251 205 319 205 331 0 12 -117 101 -203 153 -22 14 -34 27 -30 34 3 7 23 39 43 72 20 33 69 114 107 180 39 66 120 201 179 300 151 254 175 296 169 305 -4 7 -196 84 -333 134 l-33 12 58 50 c32 28 63 53 70 57 7 5 31 -19 64 -63 28 -38 59 -70 68 -70 10 0 42 21 72 46 30 26 158 131 284 233 127 102 239 193 250 203 11 9 39 32 62 50 23 18 88 71 145 117 57 47 172 141 256 210 85 69 169 137 188 150 19 13 34 27 34 31 0 7 -65 89 -228 289 -118 144 -112 128 -72 165 19 17 46 39 59 48 18 13 21 21 14 30 -6 7 -50 62 -99 121 -49 60 -98 121 -109 136 -11 15 -43 54 -70 87 -58 68 -83 100 -162 204 -126 167 -136 181 -127 189 5 4 36 32 69 62 33 30 73 64 90 76 l30 21 -280 274 c-154 150 -322 314 -373 363 -83 80 -172 183 -337 389 -27 35 -70 88 -95 118 -25 30 -74 90 -109 134 -35 43 -124 140 -198 215 -145 148 -198 214 -378 474 -23 33 -79 113 -126 179 -46 65 -92 130 -101 144 l-17 26 135 90 c74 50 142 96 151 101 25 16 568 377 571 380 2 2 -47 117 -108 257 -61 139 -136 307 -165 373 -29 66 -87 199 -130 295 -77 176 -181 409 -215 486 -10 23 -16 45 -13 48 4 3 714 6 1580 6 l1573 0 0 -5815z m-11225 5770 c-152 -86 -253 -144 -338 -194 -51 -29 -121 -69 -157 -88 -94 -51 -96 -53 -71 -101 l21 -41 -50 -30 c-28 -17 -52 -31 -55 -31 -3 0 -5 117 -5 260 l0 260 358 0 357 -1 -60 -34z m1035 15 c14 -11 28 -20 32 -20 4 0 47 -28 95 -62 49 -35 96 -67 105 -73 9 -5 86 -57 170 -115 84 -57 170 -115 191 -129 20 -14 34 -28 30 -31 -12 -9 -306 -138 -508 -222 -38 -16 -115 -49 -170 -73 -55 -24 -163 -71 -239 -103 l-140 -60 -54 97 c-30 53 -83 150 -119 216 -36 66 -76 136 -89 155 -13 19 -24 38 -24 42 0 4 -28 56 -63 115 -150 256 -156 267 -138 275 9 4 214 7 456 7 422 1 441 0 465 -19z m4238 -67 c13 -49 52 -194 88 -323 35 -129 93 -343 129 -475 36 -132 93 -339 127 -460 33 -121 69 -255 79 -299 19 -77 22 -81 122 -194 56 -64 151 -172 211 -241 60 -68 117 -132 125 -141 9 -10 54 -61 101 -115 47 -54 108 -124 136 -154 44 -49 365 -413 449 -511 17 -19 50 -57 75 -85 25 -27 72 -81 105 -119 60 -70 70 -76 225 -138 41 -16 136 -55 210 -86 134 -57 134 -57 90 -60 -25 -1 -248 -8 -497 -15 -249 -7 -455 -16 -458 -19 -3 -3 -8 -220 -12 -482 l-6 -476 44 0 c24 0 250 7 502 17 504 19 567 16 778 -32 114 -26 251 -75 344 -123 75 -39 185 -106 185 -113 0 -4 -66 -60 -147 -126 -82 -65 -183 -148 -227 -183 -43 -36 -103 -84 -133 -106 l-54 -42 -92 33 c-86 31 -230 84 -562 209 -77 29 -168 63 -202 76 -48 17 -93 48 -201 139 -77 64 -177 146 -223 183 -46 37 -129 106 -184 153 -55 47 -129 110 -165 140 -36 30 -93 79 -127 107 -173 148 -215 179 -227 175 -7 -3 -38 16 -68 41 -31 26 -95 79 -143 117 -48 39 -117 95 -153 126 -37 30 -125 102 -197 160 -71 58 -165 134 -208 169 -43 36 -93 77 -110 91 -27 22 -244 176 -567 402 -47 33 -86 61 -88 62 -1 1 14 30 34 63 19 34 33 66 29 72 -4 6 -39 36 -79 65 -39 30 -120 93 -181 140 -60 47 -135 105 -165 127 -30 23 -77 60 -103 82 -124 104 -216 182 -266 224 -30 26 -64 54 -75 62 -12 8 -25 19 -31 25 -5 7 -66 59 -134 116 -69 57 -153 129 -189 159 -35 30 -83 71 -106 90 -24 19 -70 58 -102 85 -33 28 -75 61 -93 75 -37 28 -108 85 -131 104 -8 7 -58 62 -110 122 -124 143 -175 194 -230 230 -25 16 -84 58 -132 94 -48 36 -112 83 -143 105 -31 22 -78 56 -105 75 -354 258 -321 235 -720 504 -146 98 -267 180 -269 182 -2 2 943 4 2100 4 l2104 0 23 -87z m-5063 -183 c74 -129 145 -254 158 -277 l25 -42 -23 -15 c-13 -9 -97 -55 -186 -102 -207 -110 -273 -145 -277 -149 -2 -2 11 -31 29 -66 l31 -63 -26 -21 c-14 -11 -43 -30 -65 -42 l-39 -22 -24 47 c-40 76 -308 543 -339 591 l-29 45 77 44 c43 24 119 68 168 97 50 29 117 68 150 86 33 18 96 54 140 81 44 26 84 47 88 45 5 -1 69 -108 142 -237z m1532 -227 c28 -21 88 -65 134 -99 273 -198 452 -328 532 -386 l58 -43 -43 -13 c-24 -7 -70 -17 -103 -23 -33 -6 -160 -35 -282 -65 -123 -30 -227 -54 -232 -54 -5 0 -26 90 -47 200 -22 110 -43 200 -49 200 -5 0 -135 -31 -287 -68 l-277 -69 -17 49 c-8 26 -19 48 -22 48 -4 0 -50 -18 -102 -39 l-95 -39 -18 40 c-10 22 -15 43 -10 47 4 4 73 36 153 70 344 149 421 182 530 230 63 28 117 50 120 51 3 0 29 -17 57 -37z m-2132 -228 c32 -55 68 -118 80 -140 12 -22 57 -101 100 -175 43 -74 89 -154 102 -177 16 -28 25 -60 26 -99 l2 -57 -154 -80 -155 -81 -133 140 -132 139 0 350 0 350 62 35 62 35 41 -70 c23 -38 67 -115 99 -170z m827 73 c8 -18 42 -78 75 -133 81 -137 80 -133 35 -152 -20 -8 -134 -63 -252 -120 -118 -58 -248 -120 -287 -139 l-73 -33 -39 66 c-22 37 -38 70 -35 74 2 4 33 24 69 43 35 20 67 41 70 46 4 6 -7 34 -24 64 -17 29 -31 57 -31 62 0 5 48 35 108 66 59 31 161 86 227 122 66 35 125 65 131 65 6 1 17 -14 26 -31z m1275 -233 c7 -39 22 -117 33 -175 11 -58 20 -110 20 -116 0 -7 -116 -40 -272 -78 -394 -97 -440 -107 -446 -102 -8 9 -122 409 -122 431 0 8 163 65 169 60 3 -4 11 -21 17 -38 8 -25 17 -33 40 -35 16 -1 139 27 274 62 135 35 252 63 260 62 10 -1 18 -24 27 -71z m-837 15 c10 -25 32 -97 49 -160 17 -63 45 -169 64 -235 l33 -120 45 2 45 2 34 -137 c18 -75 36 -144 41 -152 4 -8 21 -69 38 -135 18 -66 47 -167 65 -225 31 -99 34 -105 59 -105 31 1 28 10 57 -185 32 -213 23 -194 86 -186 l53 6 6 -32 c3 -18 16 -94 29 -168 l22 -135 35 2 35 2 27 -112 c15 -62 38 -159 52 -217 14 -58 28 -113 31 -122 4 -14 0 -18 -20 -18 -14 0 -27 -3 -29 -7 -3 -5 23 -80 58 -168 34 -88 79 -205 100 -260 37 -98 104 -275 210 -550 29 -77 83 -216 119 -309 36 -93 64 -172 61 -175 -2 -4 -23 -14 -46 -21 -22 -8 -43 -19 -45 -24 -2 -6 26 -83 62 -171 35 -88 87 -217 115 -287 40 -102 56 -130 77 -141 15 -7 69 -37 120 -65 50 -29 95 -52 98 -52 3 0 36 -17 72 -39 37 -21 114 -63 172 -94 196 -103 186 -95 233 -182 24 -44 77 -136 117 -205 41 -69 102 -174 137 -235 56 -98 82 -129 230 -281 178 -181 198 -197 353 -274 152 -76 227 -98 478 -136 37 -6 38 -12 21 -109 -10 -60 -11 -61 -39 -57 -26 4 -29 1 -36 -33 -6 -35 -8 -36 -43 -31 -20 3 -90 13 -157 22 l-121 17 16 63 c8 35 12 66 9 70 -6 5 -184 54 -385 106 -39 10 -43 14 -43 41 0 22 -19 56 -72 125 -40 53 -89 117 -108 143 -47 64 -308 407 -337 444 -49 62 -149 194 -179 237 -23 33 -84 80 -255 194 -123 83 -287 194 -364 246 l-140 94 -45 135 c-25 74 -58 179 -74 234 -15 55 -48 145 -72 201 -24 56 -50 119 -58 140 -8 21 -28 71 -46 109 -68 149 -155 366 -196 487 -23 69 -61 179 -85 243 l-42 117 -36 -7 c-20 -3 -144 -34 -276 -69 -132 -36 -287 -76 -345 -91 -58 -15 -130 -35 -160 -45 -36 -12 -129 -24 -265 -34 -279 -21 -492 -36 -535 -38 -19 0 -162 -11 -318 -24 -156 -13 -292 -24 -303 -24 -17 0 -19 7 -19 59 l0 58 58 6 c71 7 773 70 1102 98 157 13 283 30 350 45 254 60 716 177 724 184 4 5 -19 109 -53 232 -33 122 -83 309 -111 413 -28 105 -84 282 -126 395 -41 113 -103 284 -138 380 -35 96 -91 249 -124 340 -33 91 -63 176 -67 190 -6 24 -34 88 -199 452 -42 92 -76 172 -76 177 0 19 -27 12 -127 -35 -395 -185 -597 -274 -603 -267 -4 4 -10 28 -13 51 l-5 44 121 57 c67 32 203 98 302 147 212 104 476 223 488 220 5 -1 17 -22 27 -46z m1733 -307 l117 -135 -67 -32 c-49 -24 -90 -35 -143 -40 -41 -4 -90 -9 -107 -13 -30 -5 -33 -3 -33 19 0 13 -15 86 -34 161 -33 137 -33 137 -12 142 11 3 48 11 81 19 33 8 65 14 70 14 6 0 63 -60 128 -135z m-1928 75 c10 -24 49 -111 87 -195 37 -84 68 -154 68 -157 0 -2 23 -52 50 -111 28 -59 50 -110 50 -115 0 -5 -15 -12 -32 -15 -18 -4 -123 -35 -233 -70 -256 -80 -346 -107 -350 -103 -1 2 -22 81 -45 176 -28 114 -46 172 -55 172 -7 0 -49 -7 -92 -15 -43 -8 -80 -15 -83 -15 -8 0 -84 159 -78 165 5 5 679 322 689 324 3 1 14 -18 24 -41z m1664 -254 c1 -19 -15 -24 -166 -59 -93 -21 -230 -53 -306 -70 l-137 -33 -5 22 c-2 11 -16 72 -31 135 -19 82 -23 115 -15 120 6 4 58 18 114 31 56 13 188 44 292 70 l190 46 32 -120 c17 -67 32 -130 32 -142z m-670 -19 c17 -68 31 -130 31 -138 0 -8 -45 -22 -137 -41 -76 -15 -187 -39 -248 -52 -60 -12 -113 -20 -116 -16 -3 4 -20 62 -36 129 l-30 121 101 26 c204 51 381 94 392 95 7 1 25 -54 43 -124z m-2227 -28 l75 -82 -36 -106 -36 -107 -52 24 -53 23 0 170 c0 137 3 169 13 165 8 -3 47 -42 89 -87z m3377 -10 c1 -10 -17 -118 -38 -240 -22 -122 -43 -246 -46 -274 l-7 -53 -58 0 -58 0 -6 258 c-4 141 -9 273 -12 292 -5 35 -5 35 68 71 l73 37 42 -37 c22 -20 42 -44 42 -54z m-2854 -57 c19 -38 35 -74 35 -78 0 -10 -10 -13 -218 -63 -109 -26 -132 -34 -128 -48 3 -9 10 -36 15 -61 5 -25 17 -77 26 -115 9 -41 21 -170 28 -312 l12 -241 -130 -6 c-71 -4 -160 -9 -197 -12 l-68 -6 0 361 c0 225 4 361 10 361 5 0 32 -9 59 -20 60 -23 54 -29 96 100 15 47 31 88 34 93 4 4 20 -6 35 -22 l29 -30 161 84 c88 47 162 85 163 85 2 0 19 -31 38 -70z m2609 -197 c4 -142 9 -270 11 -285 3 -19 -1 -28 -13 -32 -9 -2 -105 -7 -213 -11 l-197 -7 -6 179 c-3 98 -9 221 -12 274 l-5 95 173 21 c95 11 192 21 214 22 l42 1 6 -257z m638 -66 c32 -26 58 -53 58 -60 0 -16 -21 -87 -72 -238 l-41 -125 -106 23 c-58 13 -151 32 -206 41 l-100 18 2 47 c2 39 78 481 99 575 4 20 19 10 156 -105 83 -71 178 -150 210 -176z m-1107 265 c-6 -5 -109 -32 -230 -60 -121 -28 -320 -74 -443 -103 -199 -46 -250 -53 -229 -33 8 9 80 25 342 79 121 25 290 63 375 84 160 40 201 47 185 33z m19 -259 l7 -202 -38 -10 c-21 -5 -65 -15 -98 -21 -33 -7 -168 -38 -300 -70 -207 -50 -314 -72 -349 -75 -8 0 -125 366 -126 393 0 6 9 12 21 12 11 0 134 27 272 59 518 122 592 138 598 127 4 -6 9 -102 13 -213z m-1892 70 c15 -60 24 -111 20 -114 -4 -4 -63 -18 -132 -33 -292 -60 -382 -78 -384 -74 -4 4 -55 212 -53 214 15 10 461 109 507 113 12 1 22 -26 42 -106z m723 -65 c2 -7 34 -94 70 -193 36 -99 93 -256 127 -350 34 -93 85 -235 114 -314 29 -80 51 -147 49 -150 -3 -2 -179 12 -392 32 -212 21 -388 35 -391 33 -2 -3 25 -119 60 -259 49 -198 60 -253 48 -251 -183 40 -357 67 -453 71 l-118 6 6 41 c14 100 45 384 45 410 l0 28 -169 -7 c-110 -5 -171 -4 -175 3 -4 6 25 12 77 16 149 12 302 27 325 32 l22 4 0 380 c0 368 1 380 19 380 11 0 26 2 34 5 10 4 18 -9 28 -47 9 -29 19 -52 25 -52 17 3 317 95 469 145 164 53 174 55 180 37z m-775 -462 l0 -363 -167 -17 c-93 -9 -185 -19 -205 -22 l-38 -6 0 44 c0 24 -7 176 -15 337 -9 161 -14 295 -13 297 3 3 336 75 398 87 14 2 28 5 33 6 4 0 7 -163 7 -363z m3197 312 c33 -29 152 -131 266 -227 114 -95 207 -177 207 -181 0 -5 -17 -39 -38 -77 -22 -37 -59 -107 -83 -155 -24 -49 -48 -88 -52 -88 -5 0 -63 14 -130 31 -221 55 -200 46 -194 82 3 18 15 86 27 151 11 66 17 122 13 126 -4 4 -48 15 -98 25 -49 10 -93 21 -97 25 -5 3 5 46 21 95 16 50 39 125 52 168 12 42 28 77 34 77 7 0 39 -24 72 -52z m-1247 -112 c0 -13 22 -118 50 -232 39 -163 50 -227 50 -291 0 -82 0 -83 -25 -83 -25 0 -25 -1 -25 -79 l0 -78 -46 -7 c-92 -12 -85 -26 -82 152 l3 157 47 5 c26 3 50 9 54 12 3 4 -8 107 -25 230 -17 123 -31 227 -31 231 0 4 7 7 15 7 9 0 15 -9 15 -24z m-41 -88 c7 -57 19 -154 27 -217 8 -62 14 -115 12 -116 -3 -4 -495 -61 -603 -70 l-71 -7 -28 177 c-15 97 -26 178 -24 179 2 1 41 11 88 21 47 10 193 44 325 76 132 31 245 57 251 58 6 1 16 -40 23 -101z m628 40 c-13 -51 -56 -297 -63 -355 l-7 -63 -193 0 c-175 0 -193 2 -197 18 -3 9 -10 40 -16 67 -5 28 -24 112 -41 188 -18 76 -30 140 -28 143 5 5 314 20 452 23 97 1 98 1 93 -21z m58 -125 c-4 -32 -9 -62 -12 -66 -4 -6 -40 -1 -50 8 -2 1 2 27 8 58 11 51 14 57 37 57 24 0 24 -1 17 -57z m280 -7 c116 -24 234 -47 263 -51 41 -5 52 -11 52 -25 0 -16 -50 -262 -54 -267 -6 -7 -607 136 -619 147 -4 4 -5 30 -1 59 l7 52 42 -6 42 -7 13 76 c10 62 16 76 29 71 9 -2 111 -24 226 -49z m902 -193 c106 -81 162 -124 302 -232 l121 -94 -17 -26 c-26 -41 -77 -121 -119 -188 -21 -35 -43 -63 -47 -63 -5 0 -86 22 -180 49 -95 27 -210 59 -257 71 -47 13 -89 26 -94 31 -17 15 37 182 95 294 79 151 113 215 117 215 2 0 37 -26 79 -57z m-1092 -78 c88 -21 277 -66 420 -100 143 -34 288 -68 323 -75 34 -7 62 -15 62 -19 0 -14 -89 -363 -93 -367 -6 -7 -116 16 -371 77 -116 28 -251 59 -300 69 -50 10 -134 28 -187 41 l-95 22 27 186 c16 102 28 192 29 200 0 7 6 11 13 8 6 -2 84 -21 172 -42z m-3122 -87 c2 -57 2 -106 -2 -110 -3 -3 -95 -10 -203 -14 l-198 -7 0 106 c0 102 1 107 23 112 20 5 89 8 293 13 l81 2 6 -102z m2277 -86 l0 -158 -167 -18 c-93 -9 -184 -20 -204 -23 l-36 -5 -12 93 c-7 52 -17 121 -23 153 -7 42 -6 61 2 66 6 4 70 13 143 20 73 7 161 16 197 20 36 4 73 8 83 9 15 1 17 -13 17 -157z m544 -74 c-24 -116 -44 -218 -44 -225 0 -10 26 -13 108 -13 111 0 112 0 290 -71 22 -9 22 -10 22 -229 l0 -220 -244 0 -243 0 -5 51 c-3 28 -11 55 -18 59 -8 5 -60 11 -117 15 l-103 7 0 344 0 344 25 0 c24 0 25 2 25 75 l0 75 174 0 174 0 -44 -212z m54 43 c-15 -123 -17 -165 -9 -171 7 -4 49 -14 94 -24 45 -9 144 -31 221 -48 l138 -32 -7 -277 c-6 -239 -5 -277 7 -282 8 -3 57 -8 109 -12 52 -4 152 -13 223 -21 71 -8 131 -13 133 -10 2 2 -1 77 -7 167 -5 90 -10 201 -10 246 l0 83 44 -6 44 -6 15 53 c8 30 18 73 22 97 7 42 8 43 38 36 18 -3 33 -7 34 -8 1 0 -30 -125 -68 -276 -53 -214 -69 -291 -69 -347 0 -40 -1 -73 -2 -73 -2 0 -100 13 -218 29 -118 16 -282 33 -365 38 -124 6 -139 9 -85 13 l65 5 3 241 2 241 -115 47 c-110 44 -121 46 -211 46 -95 0 -96 0 -90 23 5 19 39 190 68 345 19 101 17 46 -4 -117z m-2528 -33 c0 -13 -6 -75 -14 -138 -8 -63 -17 -158 -21 -211 l-7 -96 86 -5 c47 -2 88 -7 92 -10 6 -6 -12 -567 -19 -574 -2 -2 -183 9 -403 24 l-399 27 4 150 c2 83 6 299 10 482 3 182 9 334 12 337 6 7 436 33 572 35 84 1 87 0 87 -21z m675 -38 c66 -5 203 -17 305 -25 275 -22 257 -17 270 -78 5 -29 35 -142 65 -252 30 -110 73 -270 95 -355 23 -85 43 -162 46 -172 4 -13 -5 -18 -38 -23 -24 -4 -153 -35 -288 -70 -135 -34 -256 -65 -270 -69 l-26 -5 -28 145 -29 146 -53 -7 -53 -6 -10 38 c-6 21 -23 85 -37 143 -14 58 -48 195 -76 305 -28 110 -57 224 -64 254 l-13 53 42 -6 c23 -3 96 -10 162 -16z m1415 -330 l0 -260 -184 0 -185 0 -14 53 c-16 57 -69 272 -87 355 -7 29 -10 55 -7 58 6 6 382 51 440 53 l37 1 0 -260z m2400 31 c129 -90 260 -182 290 -204 36 -25 54 -44 52 -55 -2 -9 -32 -80 -67 -157 -35 -77 -84 -188 -110 -247 -52 -118 -47 -114 -123 -87 -13 5 -34 9 -47 9 -23 0 -23 0 -9 47 8 25 13 48 11 49 -2 2 -55 21 -118 43 -63 22 -186 64 -273 95 -88 31 -165 56 -172 56 -6 0 -15 -17 -18 -37 -14 -77 0 -78 -198 3 -100 40 -185 77 -191 83 -5 5 -3 32 7 67 8 33 38 151 67 264 29 113 53 206 54 207 0 1 93 -22 205 -52 113 -30 223 -56 244 -57 43 -3 42 -4 108 107 19 31 32 44 40 39 7 -5 119 -82 248 -173z m-1350 55 c58 -13 133 -29 166 -36 34 -7 66 -15 72 -19 13 -8 40 -466 29 -477 -4 -4 -93 3 -199 15 -106 11 -199 21 -205 21 -15 0 -18 220 -6 418 5 96 8 112 22 107 9 -2 63 -15 121 -29z m-2755 -217 c94 -17 175 -38 181 -45 6 -7 18 -78 28 -156 9 -79 21 -178 27 -221 6 -44 9 -81 7 -83 -3 -3 -432 -34 -471 -34 -8 0 -3 256 9 478 6 100 7 103 28 98 11 -3 98 -19 191 -37z m4770 -340 c44 -36 107 -88 140 -114 33 -27 94 -76 135 -110 41 -34 115 -93 163 -132 152 -124 160 -132 145 -147 -7 -8 -49 -55 -93 -106 -44 -51 -106 -123 -139 -159 -32 -36 -65 -76 -74 -88 -11 -18 -24 -23 -56 -23 -22 0 -234 -16 -470 -35 -236 -19 -431 -33 -432 -32 -2 2 -6 158 -10 347 -6 294 -5 343 7 338 42 -15 150 -40 155 -36 5 5 93 204 187 420 l50 117 106 -87 c58 -48 142 -116 186 -153z m-2967 172 c40 -5 75 -11 78 -13 2 -3 18 -176 34 -384 17 -208 35 -415 40 -459 16 -130 27 -115 -118 -154 -70 -19 -132 -36 -138 -38 -6 -2 -25 36 -43 84 -32 86 -110 291 -216 568 -30 77 -67 176 -84 220 -16 44 -38 104 -50 133 l-21 52 223 0 c122 -1 255 -5 295 -9z m142 -62 c0 -66 -24 -62 -28 4 -2 37 0 47 12 47 12 0 16 -12 16 -51z m1238 -68 c188 -76 322 -135 322 -143 0 -5 -20 -102 -45 -216 -26 -114 -60 -270 -76 -347 -61 -280 -100 -425 -150 -561 -28 -76 -52 -140 -53 -140 -3 -3 -417 44 -421 48 -5 5 -104 1301 -100 1306 1 2 100 -11 220 -28 120 -16 224 -30 231 -30 10 0 14 17 14 65 0 36 3 65 6 65 3 0 26 -9 52 -19z m-768 -33 c113 -6 208 -14 213 -18 4 -3 12 -80 17 -171 5 -90 26 -381 46 -647 20 -266 34 -486 31 -489 -3 -3 -97 -11 -209 -18 -215 -13 -218 -13 -218 32 0 39 -11 53 -41 53 -26 0 -29 4 -40 59 l-11 59 -47 7 c-48 6 -48 6 -70 68 -97 260 -86 204 -125 658 -20 228 -36 418 -36 423 0 9 114 5 490 -16z m-2024 -110 c13 -62 26 -123 29 -135 4 -18 -2 -24 -42 -37 -26 -9 -50 -16 -55 -16 -15 0 -40 75 -54 165 -19 127 -22 120 39 131 28 5 54 8 55 7 2 -1 15 -52 28 -115z m3303 72 c75 -27 186 -66 246 -86 61 -20 113 -39 118 -43 4 -4 5 -21 1 -38 l-6 -30 -166 49 c-92 27 -205 58 -252 69 -47 12 -89 25 -93 29 -9 8 1 100 11 100 3 0 66 -22 141 -50z m3571 10 c234 -21 512 -82 710 -155 252 -93 534 -249 756 -419 74 -57 314 -288 385 -371 44 -52 149 -191 173 -230 11 -16 42 -57 71 -90 45 -53 95 -114 314 -385 l52 -65 -23 -18 c-80 -65 -211 -171 -273 -222 -40 -33 -110 -89 -155 -125 -45 -36 -114 -92 -154 -126 -40 -33 -87 -70 -103 -82 l-31 -22 -38 43 c-22 24 -67 77 -101 118 -306 369 -466 564 -506 616 -248 324 -618 547 -1027 619 -140 24 -302 26 -760 6 -239 -10 -435 -18 -435 -18 -4 5 11 906 15 909 6 6 570 23 830 25 102 1 237 -3 300 -8z m-3497 -154 c122 -35 237 -67 255 -71 l32 -7 0 -348 0 -349 -32 -5 c-27 -5 -260 -23 -626 -51 -48 -3 -63 -1 -59 8 2 7 21 89 41 182 131 602 155 705 162 705 3 0 105 -29 227 -64z m-4526 -20 c178 -12 325 -25 329 -29 4 -3 9 -38 12 -77 l5 -70 -69 0 c-38 -1 -201 -13 -361 -28 l-293 -28 0 134 0 134 28 -7 c15 -4 172 -17 349 -29z m1036 -53 c9 -25 16 -47 14 -49 -5 -5 -687 -68 -691 -63 -2 2 -6 35 -9 73 l-5 69 92 -6 c50 -4 172 0 271 7 99 7 209 14 245 15 l66 1 17 -47z m869 -133 c109 -309 128 -374 117 -380 -6 -4 -81 -30 -167 -58 -438 -143 -625 -202 -627 -200 -8 10 -146 551 -141 555 1 1 90 26 197 54 106 28 273 73 369 99 96 27 183 47 193 47 14 -2 28 -30 59 -117z m-786 -335 c33 -132 66 -257 71 -277 11 -36 11 -37 -20 -44 -17 -3 -38 -10 -47 -15 -8 -5 -28 -14 -43 -19 -26 -9 -28 -13 -23 -48 16 -107 58 -684 50 -691 -8 -7 -219 -65 -384 -106 -30 -7 -138 -36 -240 -63 -102 -28 -255 -69 -340 -91 -85 -22 -185 -50 -222 -60 l-68 -20 0 252 0 252 202 23 c111 13 204 24 205 26 2 2 -1 241 -7 531 -5 291 -9 530 -7 531 1 1 117 12 257 23 140 11 305 25 365 30 61 5 128 8 150 7 l40 -1 61 -240z m5306 23 c139 -117 275 -233 303 -258 29 -25 73 -62 98 -83 26 -21 47 -41 47 -46 0 -4 -37 -18 -82 -30 -46 -13 -145 -41 -221 -64 -75 -22 -139 -38 -140 -36 -3 4 -34 109 -123 422 -21 73 -42 127 -49 127 -10 0 -161 -65 -303 -131 l-44 -20 4 -49 3 -50 -58 0 c-54 0 -57 1 -45 18 16 23 352 412 356 412 1 0 116 -96 254 -212z m-6207 110 c4 -22 4 -255 0 -517 l-7 -477 -282 -32 c-154 -18 -287 -32 -293 -32 -10 0 -13 112 -13 525 l0 525 23 1 c12 0 135 11 272 23 138 13 260 24 272 25 17 1 22 -6 28 -41z m6080 -278 c26 -91 60 -208 75 -260 15 -52 26 -98 24 -101 -2 -3 -32 -14 -66 -23 -138 -36 -183 -50 -191 -56 -5 -4 1 -60 13 -125 11 -65 19 -119 18 -120 -2 -2 -129 -24 -283 -49 -154 -26 -346 -58 -427 -72 -182 -31 -471 -74 -474 -71 -1 1 -4 71 -6 155 -2 129 -1 153 12 156 8 3 71 12 140 21 69 10 175 25 235 34 l110 16 3 201 2 202 230 7 229 8 3 56 3 55 130 59 c147 66 169 75 172 73 0 0 22 -75 48 -166z m-4200 -42 c47 -113 155 -364 200 -468 13 -30 22 -56 20 -58 -2 -3 -217 -75 -477 -162 l-473 -157 -66 221 c-128 423 -137 457 -125 461 127 40 651 207 736 235 63 21 120 39 126 39 6 1 33 -50 59 -111z m655 10 c27 -75 104 -287 196 -533 57 -154 114 -314 114 -320 0 -1 -26 -10 -57 -20 -32 -10 -109 -38 -172 -62 -62 -24 -115 -42 -116 -41 -1 2 -28 68 -60 148 -31 80 -79 197 -106 261 -27 65 -49 123 -49 131 0 8 22 23 50 35 l49 21 -25 63 c-63 157 -115 301 -111 305 2 3 62 20 133 38 71 19 130 34 130 35 1 1 12 -27 24 -61z m3040 -18 c0 -6 -35 -9 -87 -8 l-88 2 70 6 c39 4 78 7 88 8 9 1 17 -2 17 -8z m-341 -137 c-1 -65 -4 -107 -6 -93 -3 14 -13 67 -22 118 l-18 92 24 0 c23 0 23 -1 22 -117z m-269 76 c-69 -16 -255 -59 -415 -95 -159 -36 -326 -77 -370 -90 -44 -12 -110 -31 -146 -40 l-67 -18 -7 -153 c-4 -85 -5 -157 -1 -160 3 -3 45 -1 93 6 49 6 122 13 163 16 41 3 174 21 295 39 121 19 220 34 221 33 1 -1 4 -72 5 -157 l3 -155 -49 -8 c-35 -6 -60 -4 -94 7 -25 9 -170 32 -321 51 -151 19 -292 38 -312 41 l-38 6 0 -41 0 -41 -150 0 c-82 0 -150 3 -150 8 0 13 111 326 119 337 5 5 32 80 61 165 29 85 56 162 61 171 6 12 53 19 251 33 134 10 396 31 583 46 424 34 415 34 265 -1z m200 9 c0 -2 16 -84 35 -182 19 -99 33 -181 31 -183 -2 -3 -96 -18 -207 -34 -112 -17 -331 -49 -486 -73 -248 -37 -283 -40 -287 -27 -10 34 -38 282 -33 287 2 3 45 14 93 25 49 11 215 49 369 84 154 35 318 73 365 84 81 18 120 24 120 19z m-4196 -283 c82 -272 158 -520 162 -527 5 -8 84 14 284 82 85 29 241 81 345 116 105 35 229 76 276 93 l86 29 28 -92 c15 -50 45 -148 68 -217 l41 -127 -54 -63 c-30 -35 -64 -73 -75 -84 -11 -12 -96 -106 -190 -209 l-170 -188 -225 6 c-124 4 -250 9 -281 12 l-55 6 -151 302 -151 302 -7 109 c-3 61 -15 215 -26 344 -10 129 -19 240 -19 247 0 14 52 35 61 25 3 -3 27 -78 53 -166z m5767 96 c24 -21 125 -107 224 -191 99 -84 179 -155 178 -159 -1 -3 -57 -90 -125 -192 -68 -102 -127 -193 -133 -202 -9 -15 -21 -12 -110 23 l-100 40 -314 -16 c-173 -8 -317 -11 -321 -7 -8 9 -36 183 -45 278 -3 33 -14 103 -24 155 -12 59 -15 97 -9 101 5 3 53 18 106 34 53 15 194 55 312 90 118 34 231 67 250 73 56 16 65 14 111 -27z m-4019 -15 c4 -5 10 -32 13 -58 7 -46 8 -48 40 -48 32 0 33 -1 40 -50 4 -27 10 -52 13 -54 4 -2 104 3 222 11 205 14 225 13 440 -8 124 -12 227 -23 229 -25 2 -2 -23 -82 -57 -176 -57 -162 -61 -180 -67 -288 -10 -184 -3 -170 -103 -217 -48 -22 -142 -67 -210 -99 l-124 -58 -56 31 c-31 16 -127 68 -212 113 -85 46 -201 109 -258 140 l-103 57 163 61 c90 34 169 62 176 62 6 0 12 7 12 16 0 16 -58 181 -140 399 -27 72 -56 149 -63 172 l-15 43 27 -7 c14 -3 29 -11 33 -17z m1486 -131 c7 -55 13 -120 14 -144 l3 -45 -80 -12 c-44 -6 -99 -14 -122 -17 l-43 -5 0 143 0 144 58 16 c31 9 77 22 102 29 33 10 47 10 51 2 3 -6 11 -56 17 -111z m4351 28 c119 -89 196 -169 368 -383 37 -47 87 -108 110 -135 49 -58 221 -265 377 -453 59 -73 111 -132 115 -132 4 0 30 19 58 43 28 23 88 72 134 109 46 37 145 117 219 178 74 61 159 129 188 151 l53 40 22 -28 c12 -15 45 -54 72 -87 28 -33 67 -82 89 -110 21 -28 50 -64 65 -81 15 -16 39 -46 54 -66 l26 -36 -140 -114 c-77 -63 -169 -136 -203 -164 -35 -27 -182 -147 -326 -265 -145 -118 -286 -233 -314 -254 -28 -21 -70 -55 -92 -75 -90 -79 -182 -151 -193 -151 -9 0 -63 65 -111 134 -8 11 -51 66 -95 120 -44 54 -102 127 -130 161 -68 85 -154 189 -212 257 -43 52 -137 165 -384 466 -46 57 -106 132 -134 166 -27 35 -89 111 -137 170 -49 58 -88 110 -88 114 0 5 14 18 30 31 17 12 126 99 241 194 256 208 280 227 292 227 6 0 26 -12 46 -27z m-1397 -143 c23 -11 25 -15 16 -36 l-11 -23 -51 41 c-28 23 -55 45 -60 49 -11 10 69 -14 106 -31z m186 -71 c75 -28 200 -74 277 -103 77 -29 175 -66 218 -81 42 -15 77 -29 77 -31 0 -1 -20 -43 -44 -92 -42 -88 -46 -93 -295 -330 -138 -133 -263 -255 -277 -271 -14 -17 -29 -31 -34 -31 -4 0 -63 70 -131 155 -68 85 -126 155 -129 155 -3 0 -39 -30 -81 -67 -42 -38 -108 -96 -148 -131 -39 -35 -71 -69 -71 -75 0 -7 42 -57 93 -113 97 -106 197 -218 241 -270 l26 -32 -78 -59 c-42 -32 -100 -76 -129 -96 l-51 -37 -78 49 -77 50 -43 -30 c-24 -16 -64 -47 -88 -68 -25 -21 -65 -54 -90 -72 -25 -18 -46 -37 -46 -43 0 -6 25 -42 55 -79 30 -38 55 -71 55 -75 0 -4 -31 -26 -69 -49 -37 -24 -78 -51 -91 -61 l-22 -18 32 -74 c47 -111 92 -231 88 -234 -6 -5 -194 -76 -201 -76 -4 0 -16 18 -27 41 -18 34 -20 51 -15 105 l7 64 -121 0 -121 0 0 46 0 46 61 -7 62 -7 -7 203 c-3 112 -9 241 -13 287 l-6 82 -91 -5 c-316 -18 -606 -37 -635 -41 l-34 -5 8 -195 c8 -217 13 -203 -64 -188 l-32 7 3 181 3 181 -144 17 c-79 10 -146 20 -149 23 -3 2 9 123 27 267 17 145 31 279 31 298 0 43 18 71 65 100 20 12 45 40 56 61 10 21 25 39 32 39 7 0 134 -16 282 -35 262 -33 305 -43 528 -110 l108 -33 47 23 c26 12 76 32 112 45 90 31 267 119 430 215 30 18 69 39 85 47 17 8 61 32 100 52 l69 37 134 202 c74 111 143 223 155 250 11 26 22 47 24 47 3 0 66 -23 141 -51z m-1365 -201 c26 -173 28 -188 17 -188 -5 0 -10 1 -10 3 0 1 -11 65 -25 141 -14 77 -25 141 -25 143 0 2 6 3 14 3 9 0 18 -31 29 -102z m-69 75 c5 -18 72 -407 101 -591 10 -57 15 -105 13 -108 -3 -2 -24 2 -49 10 -24 8 -95 29 -157 47 -62 18 -115 37 -119 41 -7 13 -79 428 -88 508 l-7 66 124 21 c159 27 175 27 182 6z m-6294 -286 l0 -253 -92 -23 c-51 -13 -99 -25 -105 -28 -10 -4 -13 52 -13 261 l0 265 33 6 c17 3 64 9 102 14 39 5 71 9 73 10 1 0 2 -113 2 -252z m5980 111 c12 -79 33 -206 46 -282 13 -77 23 -141 21 -142 -1 -1 -103 11 -227 27 -124 16 -244 29 -267 29 -48 0 -48 1 -58 100 -4 36 -15 123 -25 195 -11 71 -18 130 -17 131 4 3 463 82 483 83 20 1 23 -10 44 -141z m-1310 56 c151 -20 276 -37 277 -38 1 -1 -10 -91 -25 -200 l-26 -198 -111 6 c-121 7 -478 37 -483 41 -3 2 27 356 34 402 4 29 8 32 32 28 15 -3 151 -21 302 -41z m3781 -149 c36 -44 123 -152 194 -240 72 -88 135 -167 142 -175 6 -8 43 -53 82 -100 39 -47 71 -90 71 -96 0 -7 -21 -29 -47 -50 -44 -35 -90 -76 -339 -299 -79 -71 -345 -285 -354 -285 -3 0 -10 8 -16 18 -6 9 -67 86 -135 171 -121 151 -184 230 -244 307 -16 22 -50 64 -75 94 -75 90 -72 84 -49 108 11 12 24 22 30 22 5 0 38 -26 73 -57 67 -62 175 -158 267 -239 30 -27 89 -79 130 -115 41 -36 91 -80 111 -98 l38 -33 102 99 c284 272 358 346 358 356 0 6 -28 40 -62 76 -62 65 -402 423 -466 489 l-32 34 20 44 c11 24 29 65 41 90 l20 45 38 -43 c21 -24 67 -79 102 -123z m-2997 -64 l29 -204 -24 -43 c-28 -52 -23 -51 -229 -26 l-135 17 -22 205 c-12 112 -20 206 -18 208 2 2 41 8 87 13 46 6 119 16 163 24 129 22 115 40 149 -194z m-1154 172 c0 -16 -5 -86 -12 -157 l-11 -128 -86 6 c-47 4 -115 9 -150 13 l-63 6 6 81 c4 44 9 109 12 144 l6 62 149 0 149 0 0 -27z m725 -47 c3 -22 14 -121 25 -220 10 -98 21 -180 23 -182 2 -3 75 -13 162 -24 87 -11 159 -21 161 -23 2 -2 -5 -12 -15 -21 -18 -16 -28 -17 -113 -6 -195 25 -883 123 -887 126 -16 15 39 13 268 -7 143 -13 263 -20 267 -17 3 4 17 91 30 195 31 239 29 232 54 226 14 -4 21 -17 25 -47z m-3590 -316 l150 -300 50 0 c28 0 156 -5 286 -11 l236 -10 60 63 c33 35 145 156 248 271 102 114 189 207 191 207 2 0 109 -71 236 -157 128 -86 285 -191 348 -234 122 -82 152 -109 209 -188 20 -28 104 -139 186 -247 83 -108 166 -218 185 -244 43 -58 213 -281 253 -332 27 -34 29 -42 23 -90 -8 -63 -88 -512 -92 -516 -3 -5 -172 57 -204 74 -14 8 -70 29 -125 48 -132 45 -365 128 -820 292 -82 29 -247 88 -365 130 -118 42 -259 92 -313 112 -53 19 -99 33 -101 31 -1 -2 -21 -56 -44 -119 -22 -63 -75 -212 -117 -330 -42 -118 -101 -282 -130 -365 -29 -82 -86 -240 -125 -350 -40 -110 -74 -208 -77 -217 -5 -18 -58 -119 -178 -338 -37 -69 -83 -154 -102 -190 -106 -200 -137 -249 -158 -245 -11 3 -94 11 -185 20 -368 33 -515 47 -518 50 -2 2 0 40 4 85 l7 82 205 -3 205 -4 37 185 c21 104 33 188 28 191 -5 3 -80 21 -166 39 -320 67 -605 129 -609 133 -3 4 -20 265 -26 392 l-2 60 -168 3 -167 2 0 960 0 959 58 16 c31 9 93 27 137 40 81 25 323 90 785 211 140 37 309 82 375 100 66 18 125 33 130 33 6 1 78 -134 160 -299z m5701 239 c49 -18 90 -33 92 -34 8 -7 -489 -277 -573 -312 -27 -12 -86 -35 -131 -51 l-81 -29 -32 196 c-18 108 -34 204 -36 214 -3 14 5 17 38 18 23 1 148 7 277 13 360 20 346 20 446 -15z m1356 -315 l267 -279 -72 -71 c-40 -38 -136 -132 -214 -208 l-141 -138 -74 64 c-61 52 -315 276 -483 426 l-39 36 199 191 c110 105 215 208 234 228 19 21 39 36 45 34 6 -2 131 -129 278 -283z m-4237 140 c17 -4 20 -11 17 -38 -4 -36 11 -46 70 -46 24 0 27 -3 19 -22 -5 -13 -12 -48 -15 -78 -4 -30 -25 -167 -46 -305 -21 -137 -43 -295 -49 -350 -7 -55 -17 -140 -23 -188 l-11 -89 -144 144 c-106 105 -156 164 -192 223 -51 85 -146 248 -171 292 -8 15 -45 79 -82 142 -38 64 -68 121 -68 127 0 6 53 36 118 67 64 31 155 74 202 96 l85 41 135 -6 c74 -3 144 -8 155 -10z m3183 -142 c46 -62 80 -105 302 -382 80 -100 171 -214 202 -253 32 -40 77 -97 100 -127 23 -30 61 -77 85 -105 47 -54 53 -77 25 -97 -10 -7 -52 -51 -93 -96 l-73 -84 -41 45 c-22 24 -101 113 -175 197 -74 84 -180 203 -235 265 -55 61 -114 127 -130 146 -17 19 -85 95 -153 171 -67 75 -122 141 -122 146 0 5 26 31 57 58 32 27 89 77 126 112 38 34 72 62 75 61 4 0 26 -26 50 -57z m-2742 -31 c153 -22 357 -50 452 -62 95 -13 177 -26 183 -29 6 -5 -2 -103 -26 -294 -19 -158 -35 -292 -35 -297 0 -7 -21 -9 -62 -5 -119 12 -913 109 -917 112 -2 2 8 81 23 176 14 95 31 205 37 243 24 170 30 195 48 195 10 0 143 -18 297 -39z m4305 -313 c9 -17 13 -14 -201 -188 -37 -30 -109 -89 -160 -130 -50 -41 -135 -117 -188 -169 -366 -353 -439 -419 -527 -471 -49 -30 -130 -78 -180 -108 -49 -30 -110 -66 -135 -80 -25 -14 -72 -43 -105 -65 -33 -22 -88 -56 -121 -76 -63 -37 -112 -75 -219 -171 -34 -30 -99 -86 -144 -125 -46 -38 -104 -88 -130 -111 -25 -22 -91 -71 -146 -108 -116 -79 -117 -79 -381 -96 -161 -11 -201 -17 -394 -65 -118 -29 -246 -56 -285 -60 -93 -9 -858 -113 -915 -125 -25 -5 -142 -18 -260 -30 -160 -17 -254 -32 -370 -60 -161 -40 -361 -87 -394 -92 -19 -3 -27 -27 -196 -541 l-58 -179 29 -10 c16 -5 29 -12 29 -14 0 -2 -18 -45 -41 -94 -22 -50 -37 -95 -34 -100 3 -5 36 -19 73 -30 37 -11 132 -44 211 -74 l143 -53 -233 -6 c-280 -8 -469 -9 -469 -2 0 3 27 132 60 288 33 155 65 305 70 332 6 28 33 120 60 205 27 85 79 254 115 375 94 309 147 480 150 483 3 3 4 3 560 -83 231 -36 443 -69 470 -75 311 -60 496 -92 507 -87 8 3 19 37 27 81 10 64 15 76 29 72 9 -3 78 -17 152 -32 177 -36 248 -35 649 12 318 36 324 38 378 69 47 29 132 105 402 362 73 69 81 73 216 123 77 29 187 70 245 92 58 22 136 51 175 64 38 14 112 52 165 86 240 155 287 186 320 206 30 18 114 104 243 247 19 23 61 61 93 85 153 120 292 240 578 497 86 78 92 81 109 65 11 -9 23 -24 28 -34z m59 -82 c14 -18 72 -91 130 -161 58 -70 128 -155 155 -190 28 -35 68 -84 90 -110 l40 -48 -34 -26 c-18 -14 -64 -51 -101 -81 -38 -30 -105 -84 -150 -120 -45 -36 -107 -86 -137 -112 -31 -27 -60 -48 -64 -48 -4 0 -23 19 -41 43 -18 23 -82 102 -143 176 -60 73 -119 145 -129 160 -11 14 -44 54 -73 88 -29 33 -53 67 -53 75 0 7 24 31 54 53 29 22 111 87 182 145 159 130 170 140 203 167 34 30 42 28 71 -11z m-1373 -428 c120 -132 231 -256 246 -274 l28 -34 -103 -66 c-298 -194 -352 -225 -446 -258 -53 -19 -185 -67 -292 -106 -271 -100 -381 -138 -410 -142 -22 -3 -27 4 -51 67 -15 38 -26 72 -24 75 2 4 50 23 107 45 57 21 107 41 111 45 4 4 -13 55 -38 113 -25 59 -53 129 -63 155 l-19 49 94 62 c51 35 93 65 93 68 0 2 -25 38 -56 79 -48 64 -55 77 -43 88 8 7 59 49 114 93 l100 80 70 -48 c39 -26 76 -48 84 -48 13 -1 71 39 209 146 37 29 68 52 69 53 0 0 99 -109 220 -242z m-3072 178 c295 -35 577 -66 785 -86 63 -6 130 -14 149 -17 l34 -6 -7 -221 c-8 -313 -18 -496 -25 -496 -148 4 -603 59 -620 75 -2 3 1 40 7 83 16 104 16 102 -18 102 -63 0 -229 31 -305 56 -109 36 -252 104 -325 154 -54 37 -61 45 -56 68 3 15 12 90 21 167 20 170 19 167 47 160 13 -2 154 -20 313 -39z m1796 -58 c6 -11 22 -508 17 -508 -9 0 -74 9 -429 57 l-277 37 -6 44 c-3 25 -6 109 -6 188 l0 144 43 1 c23 0 150 9 282 18 224 17 373 24 376 19z m2137 -98 c12 -16 48 -61 79 -99 32 -38 90 -109 128 -156 161 -199 228 -275 237 -269 5 3 -10 -29 -33 -72 -72 -135 -101 -184 -109 -184 -5 0 -18 15 -29 34 -12 18 -47 67 -78 109 -32 42 -89 119 -128 172 -93 128 -192 261 -228 308 l-30 39 74 74 c40 41 78 74 84 74 6 0 21 -13 33 -30z m-56 -326 c79 -107 159 -217 178 -243 112 -152 170 -235 170 -240 0 -3 -24 -23 -53 -44 -28 -21 -95 -71 -148 -110 -125 -95 -208 -151 -213 -146 -2 2 -94 154 -204 338 l-199 334 156 153 c86 84 159 153 163 154 4 0 71 -88 150 -196z m-5972 -49 c406 -145 822 -294 1080 -384 79 -29 147 -55 151 -59 4 -4 -6 -50 -23 -102 -73 -238 -165 -541 -220 -720 -122 -401 -170 -555 -177 -562 -8 -9 -138 37 -611 217 -63 24 -158 60 -210 79 -124 46 -278 103 -470 176 -85 32 -211 79 -280 105 -69 26 -129 50 -134 55 -4 4 15 73 42 152 102 289 187 529 306 858 35 96 76 211 91 256 l27 80 107 -37 c58 -20 203 -71 321 -114z m7041 35 l135 -54 -51 -86 c-28 -47 -80 -132 -115 -190 -34 -58 -71 -118 -80 -135 -13 -24 -169 -285 -174 -292 -1 -1 -53 36 -116 83 -63 47 -140 102 -170 124 -30 21 -68 49 -83 62 l-29 24 61 111 c121 221 118 218 262 334 l133 107 46 -17 c25 -10 107 -42 181 -71z m-3734 -19 c120 -16 280 -37 356 -46 l137 -18 0 -58 0 -59 115 0 c103 0 115 -2 115 -17 0 -10 -7 -74 -15 -143 -8 -69 -19 -181 -25 -250 -5 -69 -13 -144 -16 -167 l-6 -43 -69 0 -69 0 0 -76 0 -77 -87 7 c-49 4 -176 13 -283 21 -203 15 -413 35 -418 40 -7 7 35 915 43 915 2 0 101 -13 222 -29z m-1309 -145 c2 -2 -4 -31 -12 -64 -9 -33 -16 -62 -16 -65 0 -3 24 -8 53 -12 91 -11 279 -44 285 -49 4 -5 -56 -367 -63 -374 -1 -2 -58 6 -126 17 -308 51 -614 103 -615 104 -1 1 9 61 22 132 13 72 31 173 39 225 7 52 19 118 25 146 l11 51 197 -54 c108 -30 198 -56 200 -57z m3625 -189 c76 -128 144 -241 150 -252 6 -11 33 -55 59 -97 27 -42 48 -81 48 -85 0 -5 -15 -17 -32 -28 -18 -10 -114 -72 -213 -138 -99 -66 -185 -121 -191 -124 -6 -2 -32 26 -57 64 -26 37 -85 122 -132 188 -46 66 -105 149 -129 185 -25 36 -69 99 -99 141 l-54 76 106 63 c58 35 144 87 191 115 151 93 205 124 210 124 3 0 67 -104 143 -232z m-3093 49 c254 -34 280 -39 276 -56 -5 -14 -65 -335 -120 -634 -14 -76 -27 -140 -30 -143 -2 -3 -101 13 -220 34 -201 35 -215 39 -211 58 9 38 103 620 110 675 11 91 12 92 53 85 21 -3 84 -12 142 -19z m1580 -191 c18 -49 36 -94 41 -99 5 -6 23 -5 46 3 21 7 63 21 94 30 l56 18 -71 -66 c-251 -237 -345 -321 -378 -340 l-38 -21 0 65 0 65 64 0 c76 0 65 -31 97 278 26 254 22 251 89 67z m-1085 20 c0 -66 -2 -196 -5 -290 l-5 -170 43 -3 42 -3 0 -61 c0 -44 -3 -59 -12 -56 -7 3 -93 20 -190 39 -140 27 -178 37 -178 50 0 17 108 586 115 607 3 9 29 12 97 10 l93 -3 0 -120z m1993 -62 c23 -34 42 -64 42 -67 0 -3 -9 -10 -20 -16 -17 -9 -23 -4 -49 47 -16 32 -36 67 -44 77 -14 20 -15 20 -43 1 -16 -10 -76 -47 -134 -82 l-105 -63 60 55 c33 31 96 78 139 105 l79 49 17 -22 c9 -12 35 -50 58 -84z m-3578 -8 c32 -11 35 -15 32 -48 -3 -42 -16 -38 188 -71 454 -73 563 -92 572 -97 6 -4 1 -62 -13 -155 -13 -82 -23 -150 -24 -151 -1 -2 -152 21 -336 51 -184 30 -419 67 -524 81 -104 15 -191 28 -192 29 -3 3 51 192 88 306 17 52 32 100 34 107 3 9 23 5 72 -13 37 -15 84 -32 103 -39z m4944 23 c22 -17 43 -33 45 -35 2 -1 -16 -36 -41 -75 -143 -232 -181 -294 -185 -304 -2 -6 13 -24 35 -40 l38 -29 -150 -292 c-97 -188 -156 -292 -165 -290 -7 1 -27 38 -43 82 -16 44 -56 148 -88 232 -33 84 -60 156 -60 161 0 4 -6 16 -12 25 -12 16 -22 15 -143 -17 -113 -30 -132 -33 -145 -21 -9 9 -11 18 -5 23 6 5 105 71 220 148 116 76 245 166 287 199 43 33 120 92 173 130 52 39 114 85 138 102 23 18 46 33 51 33 4 0 27 -14 50 -32z m-1414 -73 c23 -41 44 -75 47 -75 3 0 17 9 33 20 l28 20 31 -43 c52 -70 144 -199 173 -242 15 -22 59 -85 98 -140 l70 -99 -57 -32 c-86 -48 -228 -130 -359 -206 -63 -38 -117 -68 -119 -68 -2 0 -49 -27 -104 -60 -55 -33 -104 -60 -109 -60 -5 0 -26 37 -47 83 -21 45 -64 138 -96 206 -33 68 -59 125 -59 127 0 3 -27 61 -60 131 -33 69 -60 129 -60 133 0 15 260 208 375 279 66 41 129 80 140 87 11 7 23 13 27 13 4 1 25 -33 48 -74z m1577 -47 c46 -35 108 -81 138 -104 l53 -41 -34 -54 c-18 -30 -34 -59 -34 -66 0 -6 51 -46 113 -89 61 -42 116 -80 121 -84 4 -5 -18 -48 -50 -97 -79 -121 -126 -194 -234 -363 -51 -80 -119 -184 -150 -232 l-57 -86 -49 27 c-53 30 -308 186 -344 211 l-23 16 65 124 c270 518 253 482 232 497 -10 8 -27 21 -38 28 -10 8 -16 20 -13 27 17 37 209 348 215 348 2 0 42 -28 89 -62z m-2169 -325 c19 -46 146 -319 210 -453 62 -131 82 -184 74 -192 -5 -5 -69 -48 -143 -97 l-134 -88 -122 371 c-68 203 -120 373 -115 376 45 38 187 129 203 130 4 0 16 -21 27 -47z m-918 -3 c129 -11 244 -21 255 -23 11 -1 -116 -17 -282 -36 -167 -19 -305 -32 -308 -29 -3 3 -2 31 1 62 l7 57 46 -5 c25 -3 152 -15 281 -26z m530 -112 c-14 -5 -140 -50 -280 -98 -265 -92 -290 -101 -290 -105 0 -1 38 -116 85 -256 96 -289 255 -778 255 -784 0 -2 -21 -11 -47 -19 -27 -7 -101 -35 -166 -61 -65 -26 -120 -45 -122 -43 -1 1 -19 104 -40 228 -20 124 -66 393 -101 598 -35 206 -64 385 -64 398 0 16 6 24 17 24 9 0 109 23 222 50 188 46 387 76 521 78 33 1 34 0 10 -10z m244 -345 c65 -197 120 -363 122 -369 3 -6 -27 -20 -71 -33 -41 -13 -75 -26 -75 -29 0 -4 20 -69 44 -145 34 -107 41 -140 31 -143 -8 -3 -122 -41 -255 -84 -237 -77 -241 -78 -249 -56 -17 43 -53 151 -186 559 -89 269 -134 422 -128 428 5 5 126 50 269 98 142 49 284 98 314 109 30 11 57 21 60 21 3 1 59 -160 124 -356z m1610 42 c36 -93 66 -174 66 -180 0 -9 -138 -62 -447 -173 l-82 -29 -10 28 c-12 34 -6 33 -65 13 -27 -9 -51 -13 -55 -8 -5 5 -30 77 -56 159 -70 222 -67 203 -42 219 50 30 245 140 288 163 25 13 101 39 170 57 l124 33 21 -56 c12 -31 52 -132 88 -226z m-2650 148 c3 -10 12 -67 21 -128 9 -60 43 -265 75 -455 73 -427 100 -593 100 -614 0 -14 -38 -16 -377 -15 -208 1 -405 4 -438 8 l-60 6 -28 130 c-15 72 -57 267 -93 435 -36 168 -77 354 -89 415 -27 122 -26 124 40 126 22 0 207 24 410 54 429 61 432 61 439 38z m-5319 -74 c167 -34 380 -80 484 -104 21 -6 23 -9 17 -53 -4 -26 -18 -101 -32 -167 l-26 -120 -199 9 c-110 5 -202 6 -205 4 -2 -3 -11 -65 -19 -138 -9 -74 -17 -135 -19 -137 -7 -8 -356 11 -356 19 0 5 16 107 35 226 38 232 75 478 75 501 0 9 7 11 23 7 12 -3 112 -24 222 -47z m1310 17 c49 -19 155 -59 235 -90 80 -30 170 -63 200 -74 30 -10 123 -44 205 -76 83 -31 215 -81 295 -111 80 -30 228 -85 330 -124 102 -38 224 -84 272 -101 l86 -32 -5 -37 c-3 -20 -34 -169 -69 -333 -35 -163 -64 -306 -64 -317 0 -12 -6 -21 -12 -21 -7 0 -186 -14 -398 -31 l-385 -31 -110 60 c-61 32 -182 98 -270 147 -88 48 -185 101 -215 117 -30 17 -94 52 -141 79 -48 27 -89 49 -91 49 -3 0 -43 22 -89 48 -46 27 -130 73 -186 102 -57 30 -103 58 -103 62 0 5 20 43 44 86 81 144 166 301 166 307 0 3 29 57 65 119 36 62 65 116 65 120 0 15 65 116 75 116 5 0 50 -15 100 -34z m3069 -63 c3 -10 21 -92 40 -183 20 -91 61 -280 92 -420 30 -140 64 -300 75 -354 10 -55 21 -107 24 -116 5 -15 -17 -13 -187 19 -106 19 -195 36 -197 38 -2 2 19 85 47 185 91 325 93 331 79 340 -6 4 -17 8 -23 8 -6 0 -107 34 -225 75 -201 71 -403 141 -618 216 -106 37 -108 34 49 72 310 76 381 90 560 111 250 30 277 31 284 9z m2877 -105 c11 -40 37 -122 56 -181 19 -60 33 -110 30 -113 -2 -3 -67 -27 -143 -55 -77 -27 -206 -74 -289 -104 -82 -30 -201 -73 -264 -95 -63 -23 -126 -47 -140 -54 -68 -35 -66 -36 -102 71 -17 54 -34 103 -36 110 -3 7 20 19 59 31 43 14 112 52 213 119 83 55 186 119 230 143 44 23 116 64 160 90 125 74 189 110 197 110 4 0 17 -33 29 -72z m-3756 -122 c72 -25 229 -79 350 -121 121 -42 279 -97 352 -122 l131 -45 -19 -71 c-11 -40 -39 -139 -63 -222 -24 -82 -51 -180 -61 -217 -9 -38 -19 -68 -22 -68 -3 0 -53 14 -112 31 -191 56 -365 99 -372 91 -4 -4 -26 -61 -50 -127 -23 -66 -45 -124 -49 -128 -4 -4 -67 14 -141 41 -74 27 -178 64 -231 82 -54 18 -98 37 -98 42 0 5 13 37 29 73 16 35 32 77 36 93 5 26 3 30 -19 36 -15 3 -26 10 -26 15 0 8 189 580 209 634 6 15 14 27 18 27 5 0 67 -20 138 -44z m-3885 -309 l0 -334 -110 -102 -110 -103 0 436 0 436 110 0 110 0 0 -333z m8415 246 c-7 -27 -36 -120 -65 -208 -79 -241 -80 -247 -80 -430 l0 -164 -36 -7 c-42 -8 -47 -4 -68 61 -22 65 -136 376 -146 395 -4 8 -17 15 -29 15 -19 0 -28 14 -57 90 -19 50 -34 92 -34 95 0 3 46 22 103 42 87 32 419 155 424 157 0 1 -5 -20 -12 -46z m53 34 c7 -9 3 -85 -14 -257 -13 -135 -29 -311 -35 -392 -5 -81 -14 -171 -18 -200 -8 -48 -6 -59 31 -143 22 -49 42 -95 44 -101 3 -7 -19 -23 -50 -37 -31 -14 -56 -32 -56 -39 0 -7 33 -56 73 -109 l74 -96 -160 -37 c-88 -20 -161 -36 -162 -34 -2 2 17 120 41 263 43 248 45 270 47 480 l2 220 62 185 c34 102 69 213 79 248 17 64 24 71 42 49z m-610 -154 c15 -29 85 -234 81 -237 -4 -3 -156 -59 -369 -137 -80 -28 -157 -58 -171 -65 l-27 -13 23 -78 c20 -71 111 -366 156 -506 16 -51 16 -59 3 -64 -170 -65 -300 -110 -305 -105 -9 9 -109 269 -109 282 0 6 -29 88 -64 183 -35 94 -84 229 -108 299 l-45 127 136 50 c75 28 244 89 376 136 132 47 274 99 315 115 89 34 97 35 108 13z m-7293 -198 c44 -3 195 -18 335 -31 l255 -26 140 -75 c77 -41 146 -80 153 -87 10 -10 3 -33 -38 -119 -28 -59 -49 -111 -46 -116 3 -4 36 -23 73 -41 37 -19 84 -44 103 -56 19 -11 73 -41 120 -66 94 -49 513 -279 518 -283 2 -2 -12 -45 -32 -96 -29 -80 -37 -123 -56 -294 -12 -110 -23 -201 -24 -201 0 -1 -44 15 -96 36 -231 93 -390 155 -455 176 -38 12 -173 58 -300 102 -126 44 -279 97 -340 118 -60 20 -191 65 -290 100 -99 34 -265 91 -370 127 -104 36 -245 84 -313 107 l-122 43 0 87 0 88 120 112 120 113 0 104 0 105 198 -3 197 -4 3 49 3 48 32 -5 c18 -3 68 -9 112 -12z m7448 -91 c5 -16 41 -114 79 -217 39 -104 67 -192 62 -196 -5 -4 -92 -38 -194 -76 -102 -37 -231 -85 -288 -107 -56 -21 -108 -38 -116 -38 -9 0 -22 28 -35 78 -12 42 -43 145 -70 227 -27 83 -47 153 -44 158 2 4 11 7 18 7 8 0 77 23 152 51 225 84 407 148 417 145 6 -1 14 -15 19 -32z m-1060 -197 c32 -89 87 -241 122 -337 93 -258 88 -236 57 -249 -33 -12 -345 -129 -582 -217 -96 -36 -204 -76 -240 -90 -36 -13 -71 -24 -78 -24 -6 0 -12 -8 -12 -17 0 -10 -14 -52 -31 -93 -16 -41 -43 -111 -59 -155 -16 -44 -56 -152 -90 -240 -33 -88 -87 -230 -120 -315 -32 -85 -77 -202 -99 -260 -22 -58 -37 -108 -33 -112 4 -4 44 -12 90 -20 l82 -12 0 -84 c0 -98 7 -99 -124 12 -80 67 -122 95 -130 84 -2 -1 -22 -31 -45 -66 -27 -40 -46 -60 -54 -55 -7 4 -77 50 -157 102 -80 52 -196 117 -259 145 -63 28 -116 56 -118 61 -1 6 36 55 82 110 47 55 85 105 85 111 0 6 -87 68 -192 136 -106 69 -220 143 -253 166 -33 22 -63 38 -66 36 -7 -4 -60 -83 -253 -377 -64 -97 -121 -177 -126 -177 -11 0 -69 22 -305 115 -88 35 -170 66 -183 70 -15 4 -21 12 -18 22 3 8 6 18 6 23 0 8 56 -8 310 -85 63 -20 120 -35 125 -35 6 0 31 60 57 133 25 72 77 220 116 327 38 107 67 198 65 202 -2 4 -36 17 -76 29 -105 32 -420 139 -425 144 -2 2 8 40 23 84 14 44 25 90 23 102 -3 24 -13 28 -253 99 -60 18 -112 35 -114 37 -3 2 6 37 19 79 l24 75 50 -5 c28 -3 82 -8 119 -12 58 -5 86 -15 195 -73 l127 -67 252 -34 c139 -19 255 -32 258 -29 3 3 8 133 12 288 l6 282 26 -5 c238 -46 225 -45 677 -52 l441 -7 169 65 c93 36 302 108 464 160 l295 95 -2 29 c-3 30 10 44 42 44 17 0 29 -26 78 -163z m-5103 -147 c124 -67 255 -140 292 -161 36 -21 70 -39 74 -39 4 0 41 -20 83 -44 l76 -45 415 34 c377 31 451 35 805 35 l389 0 87 -55 c48 -30 90 -55 94 -55 3 0 27 -14 52 -31 l46 -32 238 -5 239 -5 0 -89 0 -90 -27 6 c-16 3 -128 19 -250 36 -218 30 -222 31 -310 76 -48 25 -104 55 -123 67 -30 18 -67 24 -245 39 -115 9 -270 17 -343 17 -130 1 -134 0 -241 -39 l-109 -40 -373 0 -374 0 -53 25 c-30 14 -58 25 -63 25 -4 0 -16 -18 -26 -39 l-18 -39 -155 85 c-161 88 -323 176 -520 282 -63 35 -118 66 -122 69 -7 7 64 173 85 200 7 9 26 4 81 -26 39 -22 172 -94 296 -162z m2453 -10 c292 -83 270 -81 285 -25 11 43 15 47 37 41 14 -4 45 -9 70 -13 25 -3 48 -10 51 -15 3 -5 3 -90 -1 -189 l-8 -180 -231 7 -231 7 -141 85 -141 84 38 100 c21 55 41 113 44 129 4 16 10 29 13 29 4 0 101 -27 215 -60z m4532 -122 c197 -306 202 -313 276 -362 56 -38 70 -52 78 -83 6 -21 33 -117 59 -213 27 -96 48 -177 46 -178 -4 -5 -626 -83 -630 -79 -2 2 -26 100 -54 218 -27 118 -56 228 -64 244 -8 17 -44 68 -81 115 l-67 85 61 27 c70 32 70 21 1 158 -23 45 -40 83 -38 85 2 2 44 21 93 42 50 22 113 51 140 66 28 14 57 26 66 27 10 0 54 -58 114 -152z m-578 30 c-3 -13 -24 -136 -48 -274 l-42 -251 -106 -22 c-58 -12 -116 -24 -128 -27 -19 -5 -23 -1 -29 31 l-6 36 -42 -7 c-22 -3 -72 -22 -110 -41 -37 -19 -69 -33 -71 -31 -3 3 -79 236 -107 326 -5 18 -8 35 -6 36 5 5 563 214 638 239 8 3 26 6 39 6 19 1 22 -3 18 -21z m-8257 -239 c229 -79 433 -149 715 -246 105 -35 273 -93 375 -128 102 -35 246 -84 320 -110 74 -25 194 -68 265 -96 72 -28 182 -71 245 -96 63 -25 124 -51 135 -58 11 -7 36 -16 55 -20 19 -4 130 -33 245 -65 116 -32 320 -89 455 -125 301 -83 673 -194 680 -204 4 -7 276 -104 370 -133 19 -6 82 -30 140 -54 58 -23 158 -63 224 -88 65 -26 132 -57 148 -71 16 -14 33 -25 36 -25 4 0 21 -13 38 -28 17 -15 94 -74 171 -132 l141 -105 26 -97 c14 -53 26 -99 26 -102 0 -3 -116 -6 -259 -6 l-258 0 -44 38 c-80 70 -206 152 -311 202 -92 44 -152 61 -578 165 -261 65 -542 133 -625 152 -380 87 -909 207 -1210 272 -49 11 -160 36 -245 55 -85 19 -225 49 -310 67 -85 17 -279 57 -430 89 -151 32 -295 61 -320 65 -25 4 -110 34 -190 67 -80 33 -169 70 -197 82 l-53 21 0 393 c0 215 3 392 8 392 4 0 99 -32 212 -71z m3687 -34 c20 -5 21 -7 8 -52 -12 -45 -78 -262 -181 -591 -25 -78 -43 -146 -40 -151 3 -4 26 -14 51 -21 25 -7 45 -18 45 -24 1 -29 -75 -236 -86 -236 -7 0 -25 5 -41 11 -15 6 -113 35 -217 65 -104 30 -191 56 -193 58 -2 2 28 102 67 222 134 416 198 619 214 674 l15 55 168 -3 c92 -1 178 -5 190 -7z m-401 -47 c-8 -24 -51 -158 -96 -298 -45 -140 -105 -327 -132 -415 -27 -88 -53 -163 -56 -166 -4 -4 -70 11 -147 32 -322 89 -614 169 -678 185 -38 10 -71 24 -74 31 -3 8 4 100 17 206 19 171 26 204 62 297 22 58 42 113 45 123 7 22 18 21 72 -3 41 -19 65 -20 425 -19 l381 0 85 34 c112 44 112 45 96 -7z m3904 -90 c13 -35 29 -73 36 -84 17 -29 104 -268 99 -273 -8 -7 -1025 91 -1025 99 0 3 55 25 123 49 67 24 172 62 232 86 105 40 252 95 415 156 41 15 80 28 86 28 6 1 22 -27 34 -61z m424 -81 c20 -57 36 -109 36 -115 0 -20 32 -13 100 21 36 19 79 36 96 40 30 6 32 4 38 -28 4 -19 12 -35 19 -35 7 0 72 13 145 29 72 16 132 26 132 22 0 -4 -60 -20 -132 -36 -285 -60 -497 -114 -591 -150 -54 -21 -99 -36 -101 -34 -8 11 -87 220 -92 245 l-6 30 96 33 c53 18 122 43 154 56 31 13 60 24 63 25 4 0 23 -46 43 -103z m-3599 -57 c14 -5 25 -16 25 -23 0 -7 -13 -53 -30 -102 -16 -49 -30 -90 -30 -91 0 -2 228 -77 408 -133 56 -18 102 -36 102 -40 0 -8 -54 -162 -115 -326 -20 -55 -44 -121 -51 -148 -8 -26 -23 -67 -34 -91 l-18 -44 -99 28 c-54 15 -151 45 -217 65 -124 39 -135 39 -136 -9 0 -10 -5 -16 -12 -14 -7 3 -74 26 -148 53 -74 26 -136 48 -137 49 -1 1 17 60 39 131 22 72 40 136 41 143 1 8 -17 21 -40 30 -23 10 -45 20 -49 25 -8 8 4 49 113 393 l63 201 150 -44 c82 -24 161 -48 175 -53z m4525 7 c0 -12 29 -143 64 -291 l63 -269 -131 6 c-72 4 -293 12 -491 18 -198 7 -362 13 -363 15 -2 1 -26 75 -54 165 -34 112 -46 164 -39 169 7 3 127 33 269 64 141 32 349 80 462 106 113 26 208 45 213 43 4 -2 7 -14 7 -26z m-2061 -177 c113 -11 350 -33 526 -50 176 -17 337 -33 359 -36 l39 -6 -7 -87 c-3 -47 -21 -231 -38 -408 -24 -242 -36 -323 -45 -323 -8 0 -188 26 -401 59 -213 32 -475 71 -582 86 -107 15 -199 31 -203 35 -5 4 19 163 52 353 34 189 61 356 61 371 0 32 -18 31 239 6z m1171 -351 c0 -21 46 -29 161 -29 47 0 148 -3 224 -7 l137 -6 -7 -271 c-4 -149 -8 -272 -9 -273 -3 -3 -65 4 -393 43 l-222 26 -96 -25 -96 -26 5 27 c3 15 13 106 21 202 9 96 25 263 36 370 10 107 19 212 19 232 0 35 1 37 57 55 l58 20 52 -161 c29 -89 53 -168 53 -177z m-1489 30 c-48 -279 -72 -431 -69 -434 2 -2 57 -11 123 -20 66 -9 296 -43 510 -76 472 -71 615 -90 627 -83 23 15 159 41 156 30 -2 -6 -36 -145 -77 -308 l-74 -298 -140 0 -140 0 8 42 c19 103 22 99 -85 120 -52 10 -158 29 -235 43 -77 13 -268 48 -425 78 -157 31 -310 58 -340 62 -76 9 -173 27 -186 34 -7 4 14 70 58 186 38 99 85 223 104 275 19 52 59 158 89 235 29 77 71 186 92 241 21 56 39 101 40 100 2 -1 -15 -103 -36 -227z m-6269 22 c247 -102 234 -96 203 -101 -28 -5 -31 -10 -66 -140 -40 -152 -137 -514 -145 -546 -5 -19 0 -22 50 -28 31 -4 56 -12 56 -17 0 -5 -18 -82 -40 -171 -22 -90 -42 -173 -45 -185 -5 -21 -11 -23 -65 -23 l-60 0 0 625 c0 371 4 625 9 625 5 0 51 -17 103 -39z m366 -152 c109 -19 131 -25 128 -38 -17 -65 -37 -174 -31 -179 3 -4 122 -20 263 -37 236 -28 257 -32 260 -50 1 -11 -19 -112 -46 -225 l-49 -205 -49 5 c-27 2 -67 4 -88 5 l-40 0 -36 -158 c-20 -86 -39 -159 -42 -162 -3 -3 -138 -4 -300 -3 l-296 3 28 115 c62 263 63 272 49 281 -8 5 -28 9 -46 9 -17 0 -35 5 -38 10 -6 10 20 119 105 435 21 77 43 159 50 183 8 33 15 42 28 38 9 -2 77 -15 150 -27z m4677 -128 c230 -150 265 -174 265 -185 0 -6 -15 -26 -34 -46 -19 -19 -47 -52 -63 -72 -36 -48 -268 -324 -306 -364 l-29 -32 -193 146 -193 146 37 56 c51 75 154 231 166 252 6 9 41 64 79 122 l70 105 35 -21 c20 -12 95 -60 166 -107z m-4330 79 c88 -18 279 -58 425 -89 l265 -56 6 -160 c4 -88 7 -283 8 -432 l1 -273 -375 0 c-206 0 -375 2 -375 4 0 13 70 299 74 303 3 3 40 0 82 -6 43 -6 81 -8 85 -4 4 5 23 80 44 168 20 88 45 196 55 240 10 44 16 83 12 87 -8 8 -412 58 -470 58 -65 0 -68 6 -42 110 14 56 27 90 34 87 6 -2 83 -19 171 -37z m868 -186 l117 -28 0 -398 0 -398 -128 0 -129 0 -6 217 c-4 120 -7 314 -7 431 0 198 1 213 18 209 9 -3 70 -18 135 -33z m312 -80 c142 -31 605 -136 863 -196 l182 -42 0 -248 0 -248 -611 0 -612 0 6 83 c4 45 7 219 7 386 l0 303 23 -6 c12 -3 76 -17 142 -32z m5929 -150 c200 -21 425 -49 430 -55 2 -2 -18 -94 -46 -204 -27 -110 -55 -227 -62 -260 l-13 -60 -317 -3 c-310 -2 -317 -2 -314 17 2 11 35 146 73 300 50 201 74 281 84 281 8 0 82 -7 165 -16z m-2532 -147 l87 -42 -96 -197 -96 -198 -118 0 -118 0 -11 43 c-6 23 -18 65 -26 94 l-15 52 33 44 c18 24 60 75 93 114 33 38 75 87 93 110 39 48 33 49 174 -20z m-2242 33 c30 -7 168 -41 305 -75 138 -34 320 -79 405 -100 186 -45 314 -100 451 -192 171 -115 235 -103 -554 -103 l-687 0 0 246 c0 193 3 245 13 241 6 -2 37 -10 67 -17z m2491 -175 c131 -85 181 -115 196 -115 5 0 28 29 52 65 l44 64 86 -71 c47 -39 101 -83 118 -97 30 -24 33 -31 33 -83 l0 -58 -425 0 c-234 0 -425 2 -425 5 0 7 184 375 188 375 2 0 62 -38 133 -85z m889 -45 c151 -29 380 -72 509 -96 129 -24 236 -45 238 -47 2 -2 -2 -27 -8 -56 l-11 -51 -529 0 -529 0 0 156 0 157 28 -6 c15 -3 151 -29 302 -57z m2226 -82 c-3 -13 -12 -56 -21 -95 l-17 -73 -230 0 -230 0 6 22 c3 13 6 29 6 36 0 17 43 15 129 -8 41 -10 78 -17 82 -15 4 3 10 22 13 42 4 21 12 55 17 76 l10 37 120 0 c119 0 119 0 115 -22z"/>
 <path d="M2060 10 c0 -6 37 -10 90 -10 53 0 90 4 90 10 0 6 -37 10 -90 10 -53 0 -90 -4 -90 -10z"/>
 </g>

</svg>