<?xml version="1.0" encoding="UTF-8"?>
<svg xmlns="http://www.w3.org/2000/svg" xmlns:xlink="http://www.w3.org/1999/xlink" width="842pt" height="595pt" viewBox="0 0 842 595" version="1.1">
<defs>
<clipPath id="clip1">
  <path d="M 212 2.238281 L 213 2.238281 L 213 3 L 212 3 Z M 212 2.238281 "/>
</clipPath>
<clipPath id="clip2">
  <path d="M 675 2.238281 L 677 2.238281 L 677 5 L 675 5 Z M 675 2.238281 "/>
</clipPath>
<clipPath id="clip3">
  <path d="M 119 382 L 120 382 L 120 384 L 119 384 Z M 119 382 "/>
</clipPath>
<clipPath id="clip4">
  <path d="M 377 2.238281 L 378 2.238281 L 378 3 L 377 3 Z M 377 2.238281 "/>
</clipPath>
<clipPath id="clip5">
  <path d="M 351 2.238281 L 352 2.238281 L 352 3 L 351 3 Z M 351 2.238281 "/>
</clipPath>
<clipPath id="clip6">
  <path d="M 318 2.238281 L 320 2.238281 L 320 3 L 318 3 Z M 318 2.238281 "/>
</clipPath>
<clipPath id="clip7">
  <path d="M 343 2.238281 L 345 2.238281 L 345 3 L 343 3 Z M 343 2.238281 "/>
</clipPath>
<clipPath id="clip8">
  <path d="M 222 2.238281 L 231 2.238281 L 231 4 L 222 4 Z M 222 2.238281 "/>
</clipPath>
<clipPath id="clip9">
  <path d="M 315 2.238281 L 317 2.238281 L 317 3 L 315 3 Z M 315 2.238281 "/>
</clipPath>
<clipPath id="clip10">
  <path d="M 268 2.238281 L 270 2.238281 L 270 3 L 268 3 Z M 268 2.238281 "/>
</clipPath>
<clipPath id="clip11">
  <path d="M 160 2.238281 L 161 2.238281 L 161 3 L 160 3 Z M 160 2.238281 "/>
</clipPath>
<clipPath id="clip12">
  <path d="M 136 2.238281 L 138 2.238281 L 138 3 L 136 3 Z M 136 2.238281 "/>
</clipPath>
</defs>
<g id="surface1">
<path style="fill:none;stroke-width:1;stroke-linecap:round;stroke-linejoin:round;stroke:rgb(0%,0%,0%);stroke-opacity:1;stroke-miterlimit:10;" d="M 1662.011719 4880.013021 L 1655.989583 4515.00651 L 1780.013021 4544.986979 L 1776.985677 4880.013021 L 1662.011719 4880.013021 L 1655.989583 4515.00651 L 1176.009115 4415.00651 L 1016.992187 4348.990885 L 1016.992187 4880.013021 L 1662.011719 4880.013021 " transform="matrix(0.12,0,0,-0.12,2,593)"/>
<g clip-path="url(#clip1)" clip-rule="nonzero">
<path style="fill:none;stroke-width:1;stroke-linecap:round;stroke-linejoin:round;stroke:rgb(0%,0%,0%);stroke-opacity:1;stroke-miterlimit:10;" d="M 1751.985677 4919.010417 L 1751.985677 4922.005208 " transform="matrix(0.12,0,0,-0.12,2,593)"/>
</g>
<g clip-path="url(#clip2)" clip-rule="nonzero">
<path style="fill:none;stroke-width:1;stroke-linecap:round;stroke-linejoin:round;stroke:rgb(0%,0%,0%);stroke-opacity:1;stroke-miterlimit:10;" d="M 5619.010417 4922.005208 L 5615.00651 4908.007812 " transform="matrix(0.12,0,0,-0.12,2,593)"/>
</g>
<g clip-path="url(#clip3)" clip-rule="nonzero">
<path style="fill:none;stroke-width:1;stroke-linecap:round;stroke-linejoin:round;stroke:rgb(0%,0%,0%);stroke-opacity:1;stroke-miterlimit:10;" d="M 975 1750 L 975 1750 " transform="matrix(0.12,0,0,-0.12,2,593)"/>
</g>
<g clip-path="url(#clip4)" clip-rule="nonzero">
<path style="fill:none;stroke-width:1;stroke-linecap:round;stroke-linejoin:round;stroke:rgb(0%,0%,0%);stroke-opacity:1;stroke-miterlimit:10;" d="M 3126.985677 4922.005208 L 3126.985677 4922.005208 " transform="matrix(0.12,0,0,-0.12,2,593)"/>
</g>
<g clip-path="url(#clip5)" clip-rule="nonzero">
<path style="fill:none;stroke-width:1;stroke-linecap:round;stroke-linejoin:round;stroke:rgb(0%,0%,0%);stroke-opacity:1;stroke-miterlimit:10;" d="M 2912.988281 4922.005208 L 2912.988281 4922.005208 " transform="matrix(0.12,0,0,-0.12,2,593)"/>
</g>
<path style="fill:none;stroke-width:1;stroke-linecap:round;stroke-linejoin:round;stroke:rgb(0%,0%,0%);stroke-opacity:1;stroke-miterlimit:10;" d="M 4805.989583 2012.011719 L 4562.988281 2208.984375 L 5105.989583 2877.994792 L 5640.00651 2444.010417 L 5495.996094 2266.992188 " transform="matrix(0.12,0,0,-0.12,2,593)"/>
<path style="fill:none;stroke-width:1;stroke-linecap:round;stroke-linejoin:round;stroke:rgb(0%,0%,0%);stroke-opacity:1;stroke-miterlimit:10;" d="M 4168.001302 2061.002604 L 4562.988281 2208.984375 " transform="matrix(0.12,0,0,-0.12,2,593)"/>
<path style="fill:none;stroke-width:1;stroke-linecap:round;stroke-linejoin:round;stroke:rgb(0%,0%,0%);stroke-opacity:1;stroke-miterlimit:10;" d="M 4641.015625 45.996094 L 4908.007812 650 L 4548.990885 888.997396 L 4741.992187 1162.988281 L 4869.010417 1294.986979 L 5075 1548.014323 L 5384.99349 1851.009115 L 5301.985677 1922.005208 " transform="matrix(0.12,0,0,-0.12,2,593)"/>
<path style="fill:none;stroke-width:1;stroke-linecap:round;stroke-linejoin:round;stroke:rgb(0%,0%,0%);stroke-opacity:1;stroke-miterlimit:10;" d="M 4974.576823 1648.4375 C 5100.292969 1718.359375 5211.490885 1811.653646 5302.18099 1923.307292 " transform="matrix(0.12,0,0,-0.12,2,593)"/>
<path style="fill:none;stroke-width:1;stroke-linecap:round;stroke-linejoin:round;stroke:rgb(0%,0%,0%);stroke-opacity:1;stroke-miterlimit:10;" d="M 4975 1647.005208 L 5022.005208 1590.00651 L 4680.013021 1222.005208 L 4418.001302 831.998698 L 4766.992187 618.001302 L 4479.003906 41.992188 L 4648.990885 41.992188 L 4641.015625 45.996094 " transform="matrix(0.12,0,0,-0.12,2,593)"/>
<path style="fill:none;stroke-width:1;stroke-linecap:round;stroke-linejoin:round;stroke:rgb(0%,0%,0%);stroke-opacity:1;stroke-miterlimit:10;" d="M 2497.005208 3698.014323 L 2433.984375 3998.990885 L 2101.009115 4025 L 1595.996094 3748.990885 L 1770.996094 3426.009115 L 2497.005208 3698.014323 " transform="matrix(0.12,0,0,-0.12,2,593)"/>
<path style="fill:none;stroke-width:1;stroke-linecap:round;stroke-linejoin:round;stroke:rgb(0%,0%,0%);stroke-opacity:1;stroke-miterlimit:10;" d="M 1595.996094 3748.990885 L 1283.984375 3718.001302 L 1291.992187 3638.997396 L 1461.002604 3647.005208 L 1491.992187 3497.005208 L 1168.001302 3427.994792 L 1156.998698 3236.002604 L 1016.992187 3236.002604 L 1016.992187 2427.994792 L 1644.010417 2262.011719 L 1769.986979 2512.988281 L 2004.003906 2522.005208 L 2211.002604 2294.010417 L 2512.988281 2498.014323 L 2818.001302 2900 L 2818.001302 2926.985677 L 2777.994792 3141.992187 L 1975 2855.013021 L 1770.996094 3426.009115 L 1595.996094 3748.990885 " transform="matrix(0.12,0,0,-0.12,2,593)"/>
<path style="fill:none;stroke-width:1;stroke-linecap:round;stroke-linejoin:round;stroke:rgb(0%,0%,0%);stroke-opacity:1;stroke-miterlimit:10;" d="M 1976.985677 4354.003906 L 1995.996094 4179.003906 L 2026.009115 4101.985677 L 1680.989583 3913.997396 L 1725 3819.010417 L 1595.996094 3748.990885 L 1283.984375 3718.001302 L 1280.013021 3755.989583 L 1116.992187 3751.985677 L 1116.992187 3840.00651 L 1016.992187 3933.984375 L 1016.992187 4013.997396 L 1769.986979 4273.014323 L 1976.985677 4354.003906 " transform="matrix(0.12,0,0,-0.12,2,593)"/>
<path style="fill:none;stroke-width:1;stroke-linecap:round;stroke-linejoin:round;stroke:rgb(0%,0%,0%);stroke-opacity:1;stroke-miterlimit:10;" d="M 1016.992187 4013.997396 L 1769.986979 4273.014323 L 1976.985677 4354.003906 L 2363.997396 4459.99349 L 2569.010417 4519.986979 L 2566.992188 4526.009115 L 2701.985677 4573.014323 L 2926.009115 4661.002604 L 3095.996094 4790.00651 L 3119.010417 4880.013021 L 2890.00651 4880.013021 L 2856.998698 4851.009115 L 2820.996094 4825 L 2783.984375 4801.009115 L 2744.010417 4780.989583 L 2704.003906 4762.988281 L 2294.986979 4662.011719 L 1780.013021 4544.986979 L 1655.989583 4515.00651 L 1176.009115 4415.00651 L 1016.992187 4348.990885 L 1016.992187 4013.997396 " transform="matrix(0.12,0,0,-0.12,2,593)"/>
<path style="fill:none;stroke-width:1;stroke-linecap:round;stroke-linejoin:round;stroke:rgb(0%,0%,0%);stroke-opacity:1;stroke-miterlimit:10;" d="M 3094.986979 3222.005208 L 2773.014323 3169.010417 L 2777.994792 3141.992187 L 2677.994792 3105.989583 L 2622.005208 3288.997396 L 3073.014323 3358.984375 L 3094.986979 3222.005208 " transform="matrix(0.12,0,0,-0.12,2,593)"/>
<path style="fill:none;stroke-width:1;stroke-linecap:round;stroke-linejoin:round;stroke:rgb(0%,0%,0%);stroke-opacity:1;stroke-miterlimit:10;" d="M 2433.984375 3998.990885 L 2766.015625 3995.996094 L 2556.998698 3922.005208 L 2591.992188 3840.00651 L 2566.015625 3830.989583 L 2662.988281 3541.015625 L 2890.00651 3486.002604 L 3095.996094 3462.988281 L 3486.002604 3411.002604 L 3675 3366.015625 L 3869.986979 3348.990885 L 3954.003906 3293.001302 L 4148.014323 3123.990885 L 4436.002604 2951.985677 L 4650 2747.005208 L 4861.002604 2576.009115 L 4831.998698 2540.00651 L 4629.003906 2719.986979 L 4515.00651 2811.002604 L 4426.985677 2908.007812 L 4237.011719 3030.013021 L 3981.998698 3123.990885 L 3797.005208 3297.005208 L 3754.003906 3323.014323 L 3447.005208 3356.998698 L 3277.994792 3325 L 3265.00651 3393.001302 L 3073.014323 3358.984375 L 2622.005208 3288.997396 L 2497.005208 3698.014323 L 2433.984375 3998.990885 " transform="matrix(0.12,0,0,-0.12,2,593)"/>
<path style="fill:none;stroke-width:1;stroke-linecap:round;stroke-linejoin:round;stroke:rgb(0%,0%,0%);stroke-opacity:1;stroke-miterlimit:10;" d="M 2766.015625 3995.996094 L 2887.988281 4069.010417 L 3086.002604 4073.990885 L 3083.984375 4151.985677 L 2873.014323 4123.990885 L 2768.001302 4068.001302 L 2662.988281 4059.99349 L 2493.001302 4055.013021 L 2395.996094 4090.00651 L 2091.015625 4090.00651 L 2038.997396 4069.010417 L 2026.009115 4101.985677 L 1680.989583 3913.997396 L 1725 3819.010417 L 2101.009115 4025 L 2433.984375 3998.990885 L 2766.015625 3995.996094 " transform="matrix(0.12,0,0,-0.12,2,593)"/>
<path style="fill:none;stroke-width:1;stroke-linecap:round;stroke-linejoin:round;stroke:rgb(0%,0%,0%);stroke-opacity:1;stroke-miterlimit:10;" d="M 3086.002604 4073.990885 L 3090.00651 3912.988281 L 3019.986979 3901.009115 L 3009.99349 3937.011719 L 2806.998698 3880.989583 L 2766.015625 3995.996094 L 2887.988281 4069.010417 L 3086.002604 4073.990885 " transform="matrix(0.12,0,0,-0.12,2,593)"/>
<path style="fill:none;stroke-width:1;stroke-linecap:round;stroke-linejoin:round;stroke:rgb(0%,0%,0%);stroke-opacity:1;stroke-miterlimit:10;" d="M 3197.005208 3931.998698 L 3090.00651 3912.988281 L 3019.986979 3901.009115 L 3080.013021 3686.002604 L 2662.988281 3541.015625 L 2890.00651 3486.002604 L 3095.996094 3462.988281 L 3197.005208 3931.998698 " transform="matrix(0.12,0,0,-0.12,2,593)"/>
<path style="fill:none;stroke-width:1;stroke-linecap:round;stroke-linejoin:round;stroke:rgb(0%,0%,0%);stroke-opacity:1;stroke-miterlimit:10;" d="M 4175 4880.013021 L 4194.010417 4808.007812 L 4241.015625 4615.00651 L 4162.011719 4634.99349 L 3648.990885 4558.984375 L 3704.003906 4233.984375 L 3519.010417 4722.005208 L 3595.996094 4737.011719 L 4058.007812 4823.014323 L 4047.005208 4880.013021 L 4175 4880.013021 " transform="matrix(0.12,0,0,-0.12,2,593)"/>
<path style="fill:none;stroke-width:1;stroke-linecap:round;stroke-linejoin:round;stroke:rgb(0%,0%,0%);stroke-opacity:1;stroke-miterlimit:10;" d="M 3151.009115 3023.990885 L 3329.003906 3050 L 3423.014323 3054.003906 L 3429.003906 2900 L 3430.989583 2745.996094 L 2883.007812 2681.998698 L 2863.997396 2837.988281 " transform="matrix(0.12,0,0,-0.12,2,593)"/>
<path style="fill:none;stroke-width:1;stroke-linecap:round;stroke-linejoin:round;stroke:rgb(0%,0%,0%);stroke-opacity:1;stroke-miterlimit:10;" d="M 3163.89974 2945.279948 C 3056.022135 2939.713542 2952.050781 2902.864583 2864.746094 2839.22526 " transform="matrix(0.12,0,0,-0.12,2,593)"/>
<path style="fill:none;stroke-width:1;stroke-linecap:round;stroke-linejoin:round;stroke:rgb(0%,0%,0%);stroke-opacity:1;stroke-miterlimit:10;" d="M 3162.988281 2944.010417 L 3151.009115 3023.990885 " transform="matrix(0.12,0,0,-0.12,2,593)"/>
<path style="fill:none;stroke-width:1;stroke-linecap:round;stroke-linejoin:round;stroke:rgb(0%,0%,0%);stroke-opacity:1;stroke-miterlimit:10;" d="M 3726.009115 3877.994792 L 3573.990885 3936.002604 L 3486.002604 3411.002604 L 3675 3366.015625 L 3869.986979 3348.990885 L 3583.984375 3447.005208 L 3726.009115 3877.994792 " transform="matrix(0.12,0,0,-0.12,2,593)"/>
<path style="fill:none;stroke-width:1;stroke-linecap:round;stroke-linejoin:round;stroke:rgb(0%,0%,0%);stroke-opacity:1;stroke-miterlimit:10;" d="M 3973.990885 3665.00651 L 4105.013021 3579.003906 L 3966.992187 3281.998698 L 3869.986979 3348.990885 L 3973.990885 3665.00651 " transform="matrix(0.12,0,0,-0.12,2,593)"/>
<path style="fill:none;stroke-width:1;stroke-linecap:round;stroke-linejoin:round;stroke:rgb(0%,0%,0%);stroke-opacity:1;stroke-miterlimit:10;" d="M 3030.989583 2126.009115 L 2916.992187 2141.015625 L 2919.010417 2013.997396 L 3012.988281 1988.997396 L 3030.989583 2126.009115 " transform="matrix(0.12,0,0,-0.12,2,593)"/>
<path style="fill:none;stroke-width:1;stroke-linecap:round;stroke-linejoin:round;stroke:rgb(0%,0%,0%);stroke-opacity:1;stroke-miterlimit:10;" d="M 3586.002604 1876.009115 L 3587.011719 1891.992188 L 3643.001302 1891.015625 L 3641.015625 1847.005208 L 3779.003906 1784.99349 L 3845.996094 2018.001302 L 4048.014323 1958.984375 L 3740.00651 1698.014323 L 3586.002604 1876.009115 " transform="matrix(0.12,0,0,-0.12,2,593)"/>
<path style="fill:none;stroke-width:1;stroke-linecap:round;stroke-linejoin:round;stroke:rgb(0%,0%,0%);stroke-opacity:1;stroke-miterlimit:10;" d="M 2891.015625 2362.988281 L 2758.984375 2354.003906 L 2768.001302 2226.985677 L 2902.994792 2226.985677 L 2891.015625 2362.988281 " transform="matrix(0.12,0,0,-0.12,2,593)"/>
<path style="fill:none;stroke-width:1;stroke-linecap:round;stroke-linejoin:round;stroke:rgb(0%,0%,0%);stroke-opacity:1;stroke-miterlimit:10;" d="M 2768.001302 2226.985677 L 2872.005208 1931.998698 L 3184.99349 1906.998698 L 3418.001302 1888.997396 L 3419.010417 1895.996094 L 3012.988281 1988.997396 L 2919.010417 2013.997396 L 2916.992187 2141.015625 L 3241.015625 2094.986979 L 3244.986979 2234.99349 L 3201.009115 2241.992188 L 3170.996094 2233.007812 L 2905.013021 2198.990885 L 2902.994792 2226.985677 L 2768.001302 2226.985677 " transform="matrix(0.12,0,0,-0.12,2,593)"/>
<path style="fill:none;stroke-width:1;stroke-linecap:round;stroke-linejoin:round;stroke:rgb(0%,0%,0%);stroke-opacity:1;stroke-miterlimit:10;" d="M 2925 2412.988281 L 2926.985677 2394.010417 L 3148.014323 2412.988281 L 3170.996094 2233.007812 L 3201.009115 2241.992188 L 3219.986979 2423.990885 L 3368.001302 2441.015625 L 3333.984375 2469.010417 L 2925 2412.988281 " transform="matrix(0.12,0,0,-0.12,2,593)"/>
<path style="fill:none;stroke-width:1;stroke-linecap:round;stroke-linejoin:round;stroke:rgb(0%,0%,0%);stroke-opacity:1;stroke-miterlimit:10;" d="M 3781.998698 2476.009115 L 3901.009115 2429.003906 L 4126.009115 2305.989583 L 4040.00651 2273.014323 L 3770.996094 2284.99349 L 3750 2288.997396 L 3781.998698 2476.009115 " transform="matrix(0.12,0,0,-0.12,2,593)"/>
<path style="fill:none;stroke-width:1;stroke-linecap:round;stroke-linejoin:round;stroke:rgb(0%,0%,0%);stroke-opacity:1;stroke-miterlimit:10;" d="M 3738.997396 2941.015625 L 3738.997396 2991.015625 L 3837.988281 2991.015625 L 3833.007812 3036.002604 L 3855.989583 3080.989583 L 3952.994792 3044.986979 L 3898.990885 2915.00651 L 3977.994792 2862.011719 L 3927.994792 2797.005208 L 4031.998698 2713.997396 L 4097.005208 2756.998698 L 4213.997396 2670.996094 L 4059.99349 2495.996094 L 4179.003906 2390.00651 L 4284.99349 2523.990885 L 4313.997396 2494.010417 L 4523.014323 2294.010417 L 4562.988281 2208.984375 L 4258.984375 2094.986979 L 4244.986979 2126.009115 L 4126.009115 2305.989583 L 3901.009115 2429.003906 L 3781.998698 2476.009115 L 3630.013021 2430.989583 L 3393.001302 2401.985677 L 3368.001302 2441.015625 L 3333.984375 2469.010417 L 3302.994792 2731.998698 L 3430.989583 2745.996094 L 3429.003906 2900 L 3477.994792 2905.989583 L 3475 2741.015625 L 3780.013021 2720.996094 L 3788.997396 2948.014323 L 3738.997396 2941.015625 " transform="matrix(0.12,0,0,-0.12,2,593)"/>
<path style="fill:none;stroke-width:1;stroke-linecap:round;stroke-linejoin:round;stroke:rgb(0%,0%,0%);stroke-opacity:1;stroke-miterlimit:10;" d="M 3754.003906 3323.014323 L 3754.003906 3256.998698 L 3809.99349 3256.998698 L 3833.007812 3036.002604 L 3855.989583 3080.989583 L 3884.99349 3155.989583 L 3981.998698 3123.990885 L 3797.005208 3297.005208 L 3754.003906 3323.014323 " transform="matrix(0.12,0,0,-0.12,2,593)"/>
<path style="fill:none;stroke-width:1;stroke-linecap:round;stroke-linejoin:round;stroke:rgb(0%,0%,0%);stroke-opacity:1;stroke-miterlimit:10;" d="M 4284.99349 2523.990885 L 4313.997396 2494.010417 L 4570.996094 2722.005208 L 4756.998698 2538.997396 L 4523.014323 2294.010417 L 4562.988281 2208.984375 L 4831.998698 2540.00651 L 4629.003906 2719.986979 L 4515.00651 2811.002604 L 4284.99349 2523.990885 " transform="matrix(0.12,0,0,-0.12,2,593)"/>
<path style="fill:none;stroke-width:1;stroke-linecap:round;stroke-linejoin:round;stroke:rgb(0%,0%,0%);stroke-opacity:1;stroke-miterlimit:10;" d="M 2863.997396 2837.988281 L 2733.984375 2705.989583 L 2579.003906 2438.997396 L 2758.984375 2354.003906 L 2891.015625 2362.988281 L 2888.997396 2391.015625 L 2926.985677 2394.010417 L 2925 2412.988281 L 2883.007812 2681.998698 L 2863.997396 2837.988281 " transform="matrix(0.12,0,0,-0.12,2,593)"/>
<path style="fill:none;stroke-width:1;stroke-linecap:round;stroke-linejoin:round;stroke:rgb(0%,0%,0%);stroke-opacity:1;stroke-miterlimit:10;" d="M 2375 877.994792 L 2366.992188 625 L 2431.998698 594.010417 L 2475 630.013021 L 2433.007812 875 L 2375 877.994792 " transform="matrix(0.12,0,0,-0.12,2,593)"/>
<path style="fill:none;stroke-width:1;stroke-linecap:round;stroke-linejoin:round;stroke:rgb(0%,0%,0%);stroke-opacity:1;stroke-miterlimit:10;" d="M 1358.984375 41.992188 L 1325 50 L 1541.992187 429.003906 L 1994.986979 233.984375 L 1711.002604 41.992188 L 1358.984375 41.992188 " transform="matrix(0.12,0,0,-0.12,2,593)"/>
<path style="fill:none;stroke-width:1;stroke-linecap:round;stroke-linejoin:round;stroke:rgb(0%,0%,0%);stroke-opacity:1;stroke-miterlimit:10;" d="M 1016.992187 1687.011719 L 1284.99349 1662.988281 L 1323.990885 1659.99349 L 1318.001302 1590.00651 L 1040.00651 1572.005208 L 1016.992187 1572.005208 L 1016.992187 1687.011719 " transform="matrix(0.12,0,0,-0.12,2,593)"/>
<path style="fill:none;stroke-width:1;stroke-linecap:round;stroke-linejoin:round;stroke:rgb(0%,0%,0%);stroke-opacity:1;stroke-miterlimit:10;" d="M 1323.990885 1659.99349 L 1620.996094 1633.007812 L 1601.985677 1581.998698 L 1388.997396 1594.986979 L 1318.001302 1590.00651 L 1323.990885 1659.99349 " transform="matrix(0.12,0,0,-0.12,2,593)"/>
<path style="fill:none;stroke-width:1;stroke-linecap:round;stroke-linejoin:round;stroke:rgb(0%,0%,0%);stroke-opacity:1;stroke-miterlimit:10;" d="M 1675 1616.992188 L 1620.996094 1633.007812 L 1601.985677 1581.998698 L 1591.992187 1505.013021 L 1650 1493.001302 L 1675 1616.992188 " transform="matrix(0.12,0,0,-0.12,2,593)"/>
<path style="fill:none;stroke-width:1;stroke-linecap:round;stroke-linejoin:round;stroke:rgb(0%,0%,0%);stroke-opacity:1;stroke-miterlimit:10;" d="M 2431.998698 594.010417 L 2326.985677 475 L 2245.996094 494.986979 L 2276.985677 623.014323 L 2277.994792 634.99349 L 2366.992188 625 L 2431.998698 594.010417 " transform="matrix(0.12,0,0,-0.12,2,593)"/>
<path style="fill:none;stroke-width:1;stroke-linecap:round;stroke-linejoin:round;stroke:rgb(0%,0%,0%);stroke-opacity:1;stroke-miterlimit:10;" d="M 1994.986979 233.984375 L 2326.985677 475 L 2245.996094 494.986979 L 2036.002604 545.996094 L 2002.994792 376.985677 L 1766.015625 434.99349 L 1751.985677 394.986979 L 1669.010417 426.985677 L 1650 383.007812 L 1994.986979 233.984375 " transform="matrix(0.12,0,0,-0.12,2,593)"/>
<path style="fill:none;stroke-width:1;stroke-linecap:round;stroke-linejoin:round;stroke:rgb(0%,0%,0%);stroke-opacity:1;stroke-miterlimit:10;" d="M 1541.992187 429.003906 L 1262.011719 565.00651 L 1223.990885 498.990885 L 1288.997396 459.99349 L 1259.99349 405.989583 L 1461.002604 298.014323 L 1465.00651 295.996094 L 1541.992187 429.003906 " transform="matrix(0.12,0,0,-0.12,2,593)"/>
<path style="fill:none;stroke-width:1;stroke-linecap:round;stroke-linejoin:round;stroke:rgb(0%,0%,0%);stroke-opacity:1;stroke-miterlimit:10;" d="M 1016.992187 1054.003906 L 1016.992187 738.997396 L 1069.010417 759.99349 L 1101.009115 662.011719 L 1130.989583 691.992188 L 1269.010417 619.986979 L 1305.989583 698.014323 L 1155.989583 733.984375 L 1180.989583 837.011719 L 1191.015625 1045.996094 L 1016.992187 1054.003906 " transform="matrix(0.12,0,0,-0.12,2,593)"/>
<path style="fill:none;stroke-width:1;stroke-linecap:round;stroke-linejoin:round;stroke:rgb(0%,0%,0%);stroke-opacity:1;stroke-miterlimit:10;" d="M 1850 1188.997396 L 1691.015625 750 L 1420.996094 833.984375 L 1409.99349 788.997396 L 1375 797.005208 L 1375 1111.002604 L 1194.986979 1129.003906 L 1195.996094 1148.014323 L 1341.015625 1141.015625 L 1319.010417 1340.00651 L 1397.005208 1341.992188 L 1575 1375 L 1520.996094 1158.984375 L 1850 1188.997396 " transform="matrix(0.12,0,0,-0.12,2,593)"/>
<path style="fill:none;stroke-width:1;stroke-linecap:round;stroke-linejoin:round;stroke:rgb(0%,0%,0%);stroke-opacity:1;stroke-miterlimit:10;" d="M 2151.009115 2104.003906 L 2211.002604 2294.010417 L 2004.003906 2522.005208 L 1769.986979 2512.988281 L 1644.010417 2262.011719 L 1619.010417 1956.998698 L 1654.003906 1945.996094 L 1741.992187 2240.00651 L 2151.009115 2104.003906 " transform="matrix(0.12,0,0,-0.12,2,593)"/>
<path style="fill:none;stroke-width:1;stroke-linecap:round;stroke-linejoin:round;stroke:rgb(0%,0%,0%);stroke-opacity:1;stroke-miterlimit:10;" d="M 1644.010417 2262.011719 L 1111.002604 2402.994792 L 1111.002604 2183.984375 L 1269.986979 2165.00651 L 1273.990885 1725 L 1605.013021 1698.014323 L 1619.986979 1694.010417 L 1683.007812 1937.988281 L 1654.003906 1945.996094 L 1619.010417 1956.998698 L 1644.010417 2262.011719 " transform="matrix(0.12,0,0,-0.12,2,593)"/>
<path style="fill:none;stroke-width:1;stroke-linecap:round;stroke-linejoin:round;stroke:rgb(0%,0%,0%);stroke-opacity:1;stroke-miterlimit:10;" d="M 2579.003906 2438.997396 L 2304.003906 2291.015625 L 2458.984375 2233.984375 L 2363.997396 1975 L 2402.994792 1980.989583 L 2412.011719 2030.989583 L 2438.997396 2030.989583 L 2444.986979 2072.005208 L 2631.998698 2061.002604 L 2819.986979 2080.013021 L 2768.001302 2226.985677 L 2758.984375 2354.003906 L 2579.003906 2438.997396 " transform="matrix(0.12,0,0,-0.12,2,593)"/>
<path style="fill:none;stroke-width:1;stroke-linecap:round;stroke-linejoin:round;stroke:rgb(0%,0%,0%);stroke-opacity:1;stroke-miterlimit:10;" d="M 1770.996094 3426.009115 L 1595.996094 3748.990885 L 1283.984375 3718.001302 L 1291.992187 3638.997396 L 1461.002604 3647.005208 L 1491.992187 3497.005208 L 1168.001302 3427.994792 L 1156.998698 3236.002604 L 1016.992187 3236.002604 L 1016.992187 2427.994792 L 1111.002604 2402.994792 L 1644.010417 2262.011719 L 1769.986979 2512.988281 L 2004.003906 2522.005208 L 2211.002604 2294.010417 L 2512.988281 2498.014323 L 2818.001302 2900 L 2818.001302 2926.985677 L 2816.015625 2926.985677 L 2777.994792 3141.992187 L 1975 2855.013021 L 1770.996094 3426.009115 " transform="matrix(0.12,0,0,-0.12,2,593)"/>
<path style="fill:none;stroke-width:1;stroke-linecap:round;stroke-linejoin:round;stroke:rgb(0%,0%,0%);stroke-opacity:1;stroke-miterlimit:10;" d="M 2251.985677 2033.007812 L 2206.998698 2051.009115 L 2304.003906 2291.015625 L 2579.003906 2438.997396 L 2733.984375 2705.989583 L 2863.997396 2837.988281 " transform="matrix(0.12,0,0,-0.12,2,593)"/>
<path style="fill:none;stroke-width:1;stroke-linecap:round;stroke-linejoin:round;stroke:rgb(0%,0%,0%);stroke-opacity:1;stroke-miterlimit:10;" d="M 3163.89974 2945.279948 C 3056.022135 2939.713542 2952.050781 2902.864583 2864.746094 2839.22526 " transform="matrix(0.12,0,0,-0.12,2,593)"/>
<path style="fill:none;stroke-width:1;stroke-linecap:round;stroke-linejoin:round;stroke:rgb(0%,0%,0%);stroke-opacity:1;stroke-miterlimit:10;" d="M 3162.988281 2944.010417 L 3151.009115 3023.990885 L 3127.994792 3019.986979 L 3123.014323 3051.985677 L 2980.989583 3030.013021 L 2994.986979 2973.990885 L 2818.001302 2926.985677 L 2818.001302 2900 L 2512.988281 2498.014323 L 2211.002604 2294.010417 L 2151.009115 2104.003906 L 2031.998698 1826.009115 L 1955.013021 1605.989583 L 1619.986979 1694.010417 L 1605.013021 1698.014323 L 1273.990885 1725 L 1016.992187 1745.996094 L 1016.992187 1687.011719 L 1284.99349 1662.988281 L 1323.990885 1659.99349 L 1620.996094 1633.007812 L 1675 1616.992188 L 1945.996094 1548.990885 L 1850 1188.997396 L 1691.015625 750 L 1569.986979 480.013021 L 1269.010417 619.986979 L 1262.011719 565.00651 L 1541.992187 429.003906 L 1650 383.007812 L 1669.010417 426.985677 L 1723.014323 620.996094 L 1758.984375 612.988281 L 1787.988281 731.998698 L 1794.010417 752.994792 L 1847.005208 931.998698 L 1869.986979 926.985677 L 1894.010417 1086.002604 L 1940.00651 1080.989583 L 1962.011719 1220.996094 L 1991.992187 1218.001302 L 2041.992187 1425 L 2018.001302 1425 L 2191.015625 1877.994792 L 2251.985677 2033.007812 " transform="matrix(0.12,0,0,-0.12,2,593)"/>
<path style="fill:none;stroke-width:1;stroke-linecap:round;stroke-linejoin:round;stroke:rgb(0%,0%,0%);stroke-opacity:1;stroke-miterlimit:10;" d="M 3704.003906 4233.984375 L 4094.986979 4087.988281 L 4166.992187 4279.003906 L 3704.003906 4233.984375 " transform="matrix(0.12,0,0,-0.12,2,593)"/>
<path style="fill:none;stroke-width:1;stroke-linecap:round;stroke-linejoin:round;stroke:rgb(0%,0%,0%);stroke-opacity:1;stroke-miterlimit:10;" d="M 4333.984375 3644.986979 L 3981.998698 3772.005208 L 3944.010417 3784.99349 L 3911.002604 3686.002604 L 3973.990885 3665.00651 L 4105.013021 3579.003906 L 4280.989583 3477.994792 L 4333.984375 3644.986979 " transform="matrix(0.12,0,0,-0.12,2,593)"/>
<path style="fill:none;stroke-width:1;stroke-linecap:round;stroke-linejoin:round;stroke:rgb(0%,0%,0%);stroke-opacity:1;stroke-miterlimit:10;" d="M 4608.984375 3241.015625 L 4790.00651 3106.998698 L 4576.985677 2816.992187 L 4436.002604 2951.985677 L 4608.984375 3241.015625 " transform="matrix(0.12,0,0,-0.12,2,593)"/>
<path style="fill:none;stroke-width:1;stroke-linecap:round;stroke-linejoin:round;stroke:rgb(0%,0%,0%);stroke-opacity:1;stroke-miterlimit:10;" d="M 4843.001302 2983.984375 L 4869.010417 2962.988281 L 4790.00651 3106.998698 L 4576.985677 2816.992187 L 4650 2747.005208 L 4843.001302 2983.984375 " transform="matrix(0.12,0,0,-0.12,2,593)"/>
<path style="fill:none;stroke-width:1;stroke-linecap:round;stroke-linejoin:round;stroke:rgb(0%,0%,0%);stroke-opacity:1;stroke-miterlimit:10;" d="M 4640.00651 3581.998698 L 4622.005208 3569.010417 L 4543.001302 3362.988281 L 4430.013021 3391.992187 L 4413.997396 3369.986979 L 4608.984375 3241.015625 L 4790.00651 3106.998698 L 4837.988281 3141.992187 L 4737.988281 3302.994792 L 4772.005208 3326.985677 L 4640.00651 3581.998698 " transform="matrix(0.12,0,0,-0.12,2,593)"/>
<path style="fill:none;stroke-width:1;stroke-linecap:round;stroke-linejoin:round;stroke:rgb(0%,0%,0%);stroke-opacity:1;stroke-miterlimit:10;" d="M 4512.988281 3941.015625 L 4551.985677 3933.984375 L 4551.985677 3791.015625 L 4622.005208 3569.010417 L 4387.988281 3654.003906 L 4422.005208 3748.014323 L 4440.00651 3741.992187 L 4512.988281 3941.015625 " transform="matrix(0.12,0,0,-0.12,2,593)"/>
<path style="fill:none;stroke-width:1;stroke-linecap:round;stroke-linejoin:round;stroke:rgb(0%,0%,0%);stroke-opacity:1;stroke-miterlimit:10;" d="M 4512.988281 4173.990885 L 4516.992187 4190.00651 L 4252.994792 4248.990885 L 4168.001302 4280.989583 L 4120.996094 4156.998698 L 4266.015625 4105.013021 L 4298.990885 4204.003906 L 4358.984375 4175 L 4391.015625 4168.001302 L 4395.996094 4198.014323 L 4512.988281 4173.990885 " transform="matrix(0.12,0,0,-0.12,2,593)"/>
<path style="fill:none;stroke-width:1;stroke-linecap:round;stroke-linejoin:round;stroke:rgb(0%,0%,0%);stroke-opacity:1;stroke-miterlimit:10;" d="M 4505.989583 4647.005208 L 4513.997396 4405.989583 L 4300 4398.990885 L 4252.994792 4248.990885 L 4172.005208 4280.013021 L 4197.005208 4281.998698 L 4162.011719 4634.99349 L 4241.015625 4615.00651 L 4505.989583 4647.005208 " transform="matrix(0.12,0,0,-0.12,2,593)"/>
<path style="fill:none;stroke-width:1;stroke-linecap:round;stroke-linejoin:round;stroke:rgb(0%,0%,0%);stroke-opacity:1;stroke-miterlimit:10;" d="M 3704.003906 4233.984375 L 3519.010417 4722.005208 L 3595.996094 4737.011719 L 3595.996094 4823.014323 L 3488.997396 4734.99349 L 3450 4794.986979 L 3311.002604 4705.013021 L 3206.998698 4658.007812 L 3286.002604 4562.988281 L 3079.003906 4427.994792 L 2926.009115 4661.002604 L 2701.985677 4573.014323 L 2709.99349 4547.005208 L 2891.992187 4601.985677 L 2987.988281 4334.99349 L 2773.990885 4266.015625 L 2801.009115 4179.003906 L 2641.015625 4130.013021 L 2662.988281 4059.99349 L 2768.001302 4068.001302 L 2873.014323 4123.990885 L 3083.984375 4151.985677 L 3086.002604 4073.990885 L 3090.00651 3912.988281 L 3197.005208 3931.998698 L 3573.990885 3936.002604 L 3726.009115 3877.994792 L 3950 3805.013021 L 3944.010417 3784.99349 L 3981.998698 3772.005208 L 4094.986979 4087.988281 L 3704.003906 4233.984375 " transform="matrix(0.12,0,0,-0.12,2,593)"/>
<path style="fill:none;stroke-width:1;stroke-linecap:round;stroke-linejoin:round;stroke:rgb(0%,0%,0%);stroke-opacity:1;stroke-miterlimit:10;" d="M 4640.00651 3581.998698 L 4605.013021 3954.003906 L 4645.996094 4043.001302 L 4594.986979 4066.992187 L 4662.988281 4156.998698 L 4516.992187 4190.00651 L 4513.997396 4173.990885 L 4551.985677 3933.984375 L 4551.985677 3791.015625 L 4622.005208 3569.010417 L 4640.00651 3581.998698 " transform="matrix(0.12,0,0,-0.12,2,593)"/>
<path style="fill:none;stroke-width:1;stroke-linecap:round;stroke-linejoin:round;stroke:rgb(0%,0%,0%);stroke-opacity:1;stroke-miterlimit:10;" d="M 5961.002604 4880.013021 L 4652.994792 4880.013021 L 4673.014323 4788.997396 L 4562.011719 4788.997396 L 4545.996094 4854.003906 L 4461.002604 4833.984375 L 4505.989583 4647.005208 L 4513.997396 4405.989583 L 4720.996094 4412.988281 L 4706.998698 4351.985677 L 4983.984375 4318.001302 L 4933.984375 4130.989583 L 4873.014323 4088.997396 L 4744.010417 3890.00651 L 4605.013021 3954.003906 L 4640.00651 3581.998698 L 4823.014323 3693.001302 L 5037.011719 3361.002604 L 4933.007812 3288.997396 L 4965.00651 3236.002604 L 5147.005208 2930.013021 L 4986.002604 2868.001302 L 5054.003906 2812.988281 L 5105.989583 2877.994792 L 5640.00651 2444.010417 L 5495.996094 2266.992188 L 5544.010417 2227.994792 L 5368.001302 2012.011719 " transform="matrix(0.12,0,0,-0.12,2,593)"/>
<path style="fill:none;stroke-width:1;stroke-linecap:round;stroke-linejoin:round;stroke:rgb(0%,0%,0%);stroke-opacity:1;stroke-miterlimit:10;" d="M 5302.18099 1923.307292 C 5325.683594 1952.246094 5347.721354 1982.291667 5368.229167 2013.411458 " transform="matrix(0.12,0,0,-0.12,2,593)"/>
<path style="fill:none;stroke-width:1;stroke-linecap:round;stroke-linejoin:round;stroke:rgb(0%,0%,0%);stroke-opacity:1;stroke-miterlimit:10;" d="M 5301.985677 1922.005208 L 5384.99349 1851.009115 L 5075 1548.014323 L 4869.010417 1294.986979 L 4741.992187 1162.988281 L 4548.990885 888.997396 L 4908.007812 650 L 4641.015625 45.996094 L 4648.990885 41.992188 L 5961.002604 41.992188 L 5961.002604 4880.013021 " transform="matrix(0.12,0,0,-0.12,2,593)"/>
<path style="fill:none;stroke-width:1;stroke-linecap:round;stroke-linejoin:round;stroke:rgb(0%,0%,0%);stroke-opacity:1;stroke-miterlimit:10;" d="M 4484.99349 1505.989583 L 4240.00651 1405.013021 L 3880.013021 995.996094 L 3673.990885 762.011719 L 3477.994792 41.992188 " transform="matrix(0.12,0,0,-0.12,2,593)"/>
<path style="fill:none;stroke-width:1;stroke-linecap:round;stroke-linejoin:round;stroke:rgb(0%,0%,0%);stroke-opacity:1;stroke-miterlimit:10;" d="M 4680.013021 1222.005208 L 5022.005208 1590.00651 L 4975 1647.005208 " transform="matrix(0.12,0,0,-0.12,2,593)"/>
<path style="fill:none;stroke-width:1;stroke-linecap:round;stroke-linejoin:round;stroke:rgb(0%,0%,0%);stroke-opacity:1;stroke-miterlimit:10;" d="M 4485.123698 1507.584635 C 4656.86849 1516.666667 4824.283854 1564.84375 4974.576823 1648.4375 " transform="matrix(0.12,0,0,-0.12,2,593)"/>
<path style="fill:none;stroke-width:1;stroke-linecap:round;stroke-linejoin:round;stroke:rgb(0%,0%,0%);stroke-opacity:1;stroke-miterlimit:10;" d="M 4484.99349 1505.989583 L 4240.00651 1405.013021 L 3880.013021 995.996094 L 3673.990885 762.011719 L 3477.994792 41.992188 L 4479.003906 41.992188 L 4766.992187 618.001302 L 4418.001302 831.998698 L 4680.013021 1222.005208 " transform="matrix(0.12,0,0,-0.12,2,593)"/>
<path style="fill:none;stroke-width:1;stroke-linecap:round;stroke-linejoin:round;stroke:rgb(0%,0%,0%);stroke-opacity:1;stroke-miterlimit:10;" d="M 4399.83724 1506.282552 C 4428.28776 1505.63151 4456.738281 1506.08724 4485.123698 1507.584635 " transform="matrix(0.12,0,0,-0.12,2,593)"/>
<path style="fill:none;stroke-width:1;stroke-linecap:round;stroke-linejoin:round;stroke:rgb(0%,0%,0%);stroke-opacity:1;stroke-miterlimit:10;" d="M 4400 1505.013021 L 4036.002604 1515.00651 L 4030.989583 1905.013021 L 4404.003906 1891.015625 " transform="matrix(0.12,0,0,-0.12,2,593)"/>
<path style="fill:none;stroke-width:1;stroke-linecap:round;stroke-linejoin:round;stroke:rgb(0%,0%,0%);stroke-opacity:1;stroke-miterlimit:10;" d="M 4404.329427 1891.210938 C 4547.949219 1887.532552 4688.932292 1930.078125 4806.542969 2012.565104 " transform="matrix(0.12,0,0,-0.12,2,593)"/>
<path style="fill:none;stroke-width:1;stroke-linecap:round;stroke-linejoin:round;stroke:rgb(0%,0%,0%);stroke-opacity:1;stroke-miterlimit:10;" d="M 4805.989583 2012.011719 L 4562.988281 2208.984375 L 4258.984375 2094.986979 L 4168.001302 2061.002604 L 4048.014323 1958.984375 L 3740.00651 1698.014323 L 3731.998698 1708.007812 L 3351.985677 1398.014323 L 3090.00651 1213.997396 L 3123.014323 1161.002604 L 2905.013021 991.992188 L 2663.997396 788.997396 L 2551.985677 694.010417 L 2475 630.013021 L 2431.998698 594.010417 L 2326.985677 475 L 1994.986979 233.984375 L 1711.002604 41.992188 L 3477.994792 41.992188 L 3673.990885 762.011719 L 3880.013021 995.996094 L 4240.00651 1405.013021 L 4484.99349 1505.989583 " transform="matrix(0.12,0,0,-0.12,2,593)"/>
<path style="fill:none;stroke-width:1;stroke-linecap:round;stroke-linejoin:round;stroke:rgb(0%,0%,0%);stroke-opacity:1;stroke-miterlimit:10;" d="M 1055.013021 205.013021 L 1076.009115 240.00651 L 1016.992187 273.990885 L 1016.992187 41.992188 L 1358.984375 41.992188 L 1325 50 L 1055.013021 205.013021 " transform="matrix(0.12,0,0,-0.12,2,593)"/>
<path style="fill:none;stroke-width:1;stroke-linecap:round;stroke-linejoin:round;stroke:rgb(0%,0%,0%);stroke-opacity:1;stroke-miterlimit:10;" d="M 4036.002604 1515.00651 L 4400 1505.013021 " transform="matrix(0.12,0,0,-0.12,2,593)"/>
<path style="fill:none;stroke-width:1;stroke-linecap:round;stroke-linejoin:round;stroke:rgb(0%,0%,0%);stroke-opacity:1;stroke-miterlimit:10;" d="M 4399.83724 1506.282552 C 4788.378906 1497.460938 5154.166667 1688.997396 5368.229167 2013.411458 " transform="matrix(0.12,0,0,-0.12,2,593)"/>
<path style="fill:none;stroke-width:1;stroke-linecap:round;stroke-linejoin:round;stroke:rgb(0%,0%,0%);stroke-opacity:1;stroke-miterlimit:10;" d="M 5368.001302 2012.011719 L 5544.010417 2227.994792 L 5226.985677 2484.99349 L 4966.992187 2172.005208 " transform="matrix(0.12,0,0,-0.12,2,593)"/>
<path style="fill:none;stroke-width:1;stroke-linecap:round;stroke-linejoin:round;stroke:rgb(0%,0%,0%);stroke-opacity:1;stroke-miterlimit:10;" d="M 4404.329427 1891.210938 C 4627.311198 1885.514323 4838.541667 1991.048177 4967.838542 2172.786458 " transform="matrix(0.12,0,0,-0.12,2,593)"/>
<path style="fill:none;stroke-width:1;stroke-linecap:round;stroke-linejoin:round;stroke:rgb(0%,0%,0%);stroke-opacity:1;stroke-miterlimit:10;" d="M 4404.003906 1891.015625 L 4030.989583 1905.013021 L 4036.002604 1515.00651 " transform="matrix(0.12,0,0,-0.12,2,593)"/>
<path style="fill:none;stroke-width:1;stroke-linecap:round;stroke-linejoin:round;stroke:rgb(0%,0%,0%);stroke-opacity:1;stroke-miterlimit:10;" d="M 4426.985677 2908.007812 L 4213.997396 2670.996094 L 4097.005208 2756.998698 L 4031.998698 2713.997396 L 3927.994792 2797.005208 L 3977.994792 2862.011719 L 3898.990885 2915.00651 L 3952.994792 3044.986979 L 3855.989583 3080.989583 L 3884.99349 3155.989583 L 3981.998698 3123.990885 L 4237.011719 3030.013021 L 4426.985677 2908.007812 " transform="matrix(0.12,0,0,-0.12,2,593)"/>
<path style="fill:none;stroke-width:1;stroke-linecap:round;stroke-linejoin:round;stroke:rgb(0%,0%,0%);stroke-opacity:1;stroke-miterlimit:10;" d="M 2786.002604 1302.994792 L 2380.013021 1209.99349 L 2405.013021 1033.984375 L 2829.003906 1134.99349 L 2786.002604 1302.994792 " transform="matrix(0.12,0,0,-0.12,2,593)"/>
<path style="fill:none;stroke-width:1;stroke-linecap:round;stroke-linejoin:round;stroke:rgb(0%,0%,0%);stroke-opacity:1;stroke-miterlimit:10;" d="M 2444.986979 2072.005208 L 2438.997396 2030.989583 L 2412.011719 2030.989583 L 2402.994792 1980.989583 L 2363.997396 1975 L 2316.015625 1844.986979 L 2305.013021 1733.984375 L 2286.002604 1484.99349 L 2591.992188 1504.003906 L 2631.998698 2061.002604 L 2444.986979 2072.005208 " transform="matrix(0.12,0,0,-0.12,2,593)"/>
<path style="fill:none;stroke-width:1;stroke-linecap:round;stroke-linejoin:round;stroke:rgb(0%,0%,0%);stroke-opacity:1;stroke-miterlimit:10;" d="M 1723.014323 620.996094 L 2036.002604 545.996094 L 2002.994792 376.985677 L 1766.015625 434.99349 L 1751.985677 394.986979 L 1669.010417 426.985677 L 1723.014323 620.996094 " transform="matrix(0.12,0,0,-0.12,2,593)"/>
<path style="fill:none;stroke-width:1;stroke-linecap:round;stroke-linejoin:round;stroke:rgb(0%,0%,0%);stroke-opacity:1;stroke-miterlimit:10;" d="M 1223.990885 498.990885 L 1055.013021 205.013021 L 1325 50 L 1465.00651 295.996094 L 1259.99349 405.989583 L 1288.997396 459.99349 L 1223.990885 498.990885 " transform="matrix(0.12,0,0,-0.12,2,593)"/>
<g clip-path="url(#clip6)" clip-rule="nonzero">
<path style="fill:none;stroke-width:1;stroke-linecap:round;stroke-linejoin:round;stroke:rgb(0%,0%,0%);stroke-opacity:1;stroke-miterlimit:10;" d="M 2643.001302 4922.005208 L 2643.001302 4922.005208 " transform="matrix(0.12,0,0,-0.12,2,593)"/>
</g>
<g clip-path="url(#clip7)" clip-rule="nonzero">
<path style="fill:none;stroke-width:1;stroke-linecap:round;stroke-linejoin:round;stroke:rgb(0%,0%,0%);stroke-opacity:1;stroke-miterlimit:10;" d="M 2851.009115 4922.005208 L 2851.009115 4922.005208 " transform="matrix(0.12,0,0,-0.12,2,593)"/>
</g>
<g clip-path="url(#clip8)" clip-rule="nonzero">
<path style="fill:none;stroke-width:1;stroke-linecap:round;stroke-linejoin:round;stroke:rgb(0%,0%,0%);stroke-opacity:1;stroke-miterlimit:10;" d="M 1837.988281 4922.005208 L 1837.988281 4919.010417 L 1902.994792 4922.005208 " transform="matrix(0.12,0,0,-0.12,2,593)"/>
</g>
<g clip-path="url(#clip9)" clip-rule="nonzero">
<path style="fill:none;stroke-width:1;stroke-linecap:round;stroke-linejoin:round;stroke:rgb(0%,0%,0%);stroke-opacity:1;stroke-miterlimit:10;" d="M 2616.015625 4922.005208 L 2616.015625 4922.005208 " transform="matrix(0.12,0,0,-0.12,2,593)"/>
</g>
<g clip-path="url(#clip10)" clip-rule="nonzero">
<path style="fill:none;stroke-width:1;stroke-linecap:round;stroke-linejoin:round;stroke:rgb(0%,0%,0%);stroke-opacity:1;stroke-miterlimit:10;" d="M 2223.990885 4922.005208 L 2223.990885 4922.005208 " transform="matrix(0.12,0,0,-0.12,2,593)"/>
</g>
<g clip-path="url(#clip11)" clip-rule="nonzero">
<path style="fill:none;stroke-width:1;stroke-linecap:round;stroke-linejoin:round;stroke:rgb(0%,0%,0%);stroke-opacity:1;stroke-miterlimit:10;" d="M 1320.996094 4922.005208 L 1320.996094 4922.005208 " transform="matrix(0.12,0,0,-0.12,2,593)"/>
</g>
<g clip-path="url(#clip12)" clip-rule="nonzero">
<path style="fill:none;stroke-width:1;stroke-linecap:round;stroke-linejoin:round;stroke:rgb(0%,0%,0%);stroke-opacity:1;stroke-miterlimit:10;" d="M 1126.009115 4922.005208 L 1126.009115 4922.005208 " transform="matrix(0.12,0,0,-0.12,2,593)"/>
</g>
<path style="fill:none;stroke-width:1;stroke-linecap:round;stroke-linejoin:round;stroke:rgb(0%,0%,0%);stroke-opacity:1;stroke-miterlimit:10;" d="M 5054.003906 2812.988281 L 4843.001302 2983.984375 L 4650 2747.005208 L 4861.002604 2576.009115 L 5054.003906 2812.988281 " transform="matrix(0.12,0,0,-0.12,2,593)"/>
<path style="fill:none;stroke-width:1;stroke-linecap:round;stroke-linejoin:round;stroke:rgb(0%,0%,0%);stroke-opacity:1;stroke-miterlimit:10;" d="M 4570.996094 2722.005208 L 4756.998698 2538.997396 L 4523.014323 2294.010417 L 4313.997396 2494.010417 L 4570.996094 2722.005208 " transform="matrix(0.12,0,0,-0.12,2,593)"/>
<path style="fill:none;stroke-width:1;stroke-linecap:round;stroke-linejoin:round;stroke:rgb(0%,0%,0%);stroke-opacity:1;stroke-miterlimit:10;" d="M 4426.985677 2908.007812 L 4059.99349 2495.996094 L 4179.003906 2390.00651 L 4515.00651 2811.002604 L 4426.985677 2908.007812 " transform="matrix(0.12,0,0,-0.12,2,593)"/>
<path style="fill:none;stroke-width:1;stroke-linecap:round;stroke-linejoin:round;stroke:rgb(0%,0%,0%);stroke-opacity:1;stroke-miterlimit:10;" d="M 3201.009115 2241.992188 L 3366.992187 2218.001302 L 3393.001302 2401.985677 L 3368.001302 2441.015625 L 3219.986979 2423.990885 L 3201.009115 2241.992188 " transform="matrix(0.12,0,0,-0.12,2,593)"/>
<path style="fill:none;stroke-width:1;stroke-linecap:round;stroke-linejoin:round;stroke:rgb(0%,0%,0%);stroke-opacity:1;stroke-miterlimit:10;" d="M 3073.014323 3358.984375 L 3265.00651 3393.001302 L 3329.003906 3050 L 3127.994792 3019.986979 L 3073.014323 3358.984375 " transform="matrix(0.12,0,0,-0.12,2,593)"/>
<path style="fill:none;stroke-width:1;stroke-linecap:round;stroke-linejoin:round;stroke:rgb(0%,0%,0%);stroke-opacity:1;stroke-miterlimit:10;" d="M 3094.986979 3222.005208 L 2773.014323 3169.010417 L 2816.015625 2926.985677 L 2994.986979 2973.990885 L 2980.989583 3030.013021 L 3123.014323 3051.985677 L 3094.986979 3222.005208 " transform="matrix(0.12,0,0,-0.12,2,593)"/>
<path style="fill:none;stroke-width:1;stroke-linecap:round;stroke-linejoin:round;stroke:rgb(0%,0%,0%);stroke-opacity:1;stroke-miterlimit:10;" d="M 2009.99349 684.99349 L 1980.013021 558.984375 L 2245.996094 494.986979 L 2276.985677 623.014323 L 2009.99349 684.99349 " transform="matrix(0.12,0,0,-0.12,2,593)"/>
<path style="fill:none;stroke-width:1;stroke-linecap:round;stroke-linejoin:round;stroke:rgb(0%,0%,0%);stroke-opacity:1;stroke-miterlimit:10;" d="M 2187.988281 886.002604 L 2180.013021 645.996094 L 2366.992188 625 L 2375 877.994792 L 2187.988281 886.002604 " transform="matrix(0.12,0,0,-0.12,2,593)"/>
<path style="fill:none;stroke-width:1;stroke-linecap:round;stroke-linejoin:round;stroke:rgb(0%,0%,0%);stroke-opacity:1;stroke-miterlimit:10;" d="M 2426.009115 912.011719 L 2475 630.013021 L 2551.985677 694.010417 L 2663.997396 788.997396 L 2612.011719 950 L 2426.009115 912.011719 " transform="matrix(0.12,0,0,-0.12,2,593)"/>
<path style="fill:none;stroke-width:1;stroke-linecap:round;stroke-linejoin:round;stroke:rgb(0%,0%,0%);stroke-opacity:1;stroke-miterlimit:10;" d="M 2872.005208 1931.998698 L 3184.99349 1906.998698 L 3180.989583 1606.998698 L 2956.998698 1544.010417 L 2872.005208 1931.998698 " transform="matrix(0.12,0,0,-0.12,2,593)"/>
<path style="fill:none;stroke-width:1;stroke-linecap:round;stroke-linejoin:round;stroke:rgb(0%,0%,0%);stroke-opacity:1;stroke-miterlimit:10;" d="M 3251.009115 1626.009115 L 3351.985677 1398.014323 L 3090.00651 1213.997396 L 3044.986979 1286.002604 L 2843.001302 1233.984375 L 2783.007812 1469.010417 L 2952.994792 1538.997396 L 2963.997396 1490.00651 L 3191.992187 1569.986979 L 3180.989583 1606.998698 L 3251.009115 1626.009115 " transform="matrix(0.12,0,0,-0.12,2,593)"/>
<path style="fill:none;stroke-width:1;stroke-linecap:round;stroke-linejoin:round;stroke:rgb(0%,0%,0%);stroke-opacity:1;stroke-miterlimit:10;" d="M 3412.988281 3294.010417 L 3429.003906 2900 L 3738.997396 2941.015625 L 3738.997396 2991.015625 L 3837.988281 2991.015625 L 3809.99349 3256.998698 L 3754.003906 3256.998698 L 3754.003906 3323.014323 L 3412.988281 3294.010417 " transform="matrix(0.12,0,0,-0.12,2,593)"/>
<path style="fill:none;stroke-width:1;stroke-linecap:round;stroke-linejoin:round;stroke:rgb(0%,0%,0%);stroke-opacity:1;stroke-miterlimit:10;" d="M 3030.989583 2126.009115 L 3012.988281 1988.997396 L 3419.010417 1895.996094 L 3450 2063.997396 L 3030.989583 2126.009115 " transform="matrix(0.12,0,0,-0.12,2,593)"/>
<path style="fill:none;stroke-width:1;stroke-linecap:round;stroke-linejoin:round;stroke:rgb(0%,0%,0%);stroke-opacity:1;stroke-miterlimit:10;" d="M 1016.992187 3933.984375 L 1116.992187 3840.00651 L 1116.992187 3552.994792 L 1016.992187 3552.994792 L 1016.992187 3933.984375 " transform="matrix(0.12,0,0,-0.12,2,593)"/>
<path style="fill:none;stroke-width:1;stroke-linecap:round;stroke-linejoin:round;stroke:rgb(0%,0%,0%);stroke-opacity:1;stroke-miterlimit:10;" d="M 2677.994792 3105.989583 L 1975 2855.013021 L 1770.996094 3426.009115 L 2497.005208 3698.014323 L 2677.994792 3105.989583 " transform="matrix(0.12,0,0,-0.12,2,593)"/>
<path style="fill:none;stroke-width:1;stroke-linecap:round;stroke-linejoin:round;stroke:rgb(0%,0%,0%);stroke-opacity:1;stroke-miterlimit:10;" d="M 1116.992187 3751.985677 L 1280.013021 3755.989583 L 1291.992187 3638.997396 L 1461.002604 3647.005208 L 1491.992187 3497.005208 L 1168.001302 3427.994792 L 1116.992187 3751.985677 " transform="matrix(0.12,0,0,-0.12,2,593)"/>
<path style="fill:none;stroke-width:1;stroke-linecap:round;stroke-linejoin:round;stroke:rgb(0%,0%,0%);stroke-opacity:1;stroke-miterlimit:10;" d="M 1076.009115 4880.013021 L 1116.015625 4711.002604 L 1069.010417 4705.013021 L 1144.986979 4419.010417 L 1281.998698 4441.992187 L 1262.011719 4525 L 1487.988281 4551.009115 L 1441.992187 4751.009115 L 1369.010417 4741.015625 L 1337.988281 4880.013021 L 1076.009115 4880.013021 " transform="matrix(0.12,0,0,-0.12,2,593)"/>
<path style="fill:none;stroke-width:1;stroke-linecap:round;stroke-linejoin:round;stroke:rgb(0%,0%,0%);stroke-opacity:1;stroke-miterlimit:10;" d="M 2363.997396 4459.99349 L 2493.001302 4055.013021 L 2662.988281 4059.99349 L 2561.002604 4391.015625 L 2605.989583 4405.989583 L 2569.010417 4519.986979 L 2363.997396 4459.99349 L 1976.985677 4354.003906 L 1995.996094 4179.003906 L 2038.997396 4069.010417 L 2091.015625 4090.00651 L 2395.996094 4090.00651 L 2493.001302 4055.013021 L 2363.997396 4459.99349 " transform="matrix(0.12,0,0,-0.12,2,593)"/>
<path style="fill:none;stroke-width:1;stroke-linecap:round;stroke-linejoin:round;stroke:rgb(0%,0%,0%);stroke-opacity:1;stroke-miterlimit:10;" d="M 2891.992187 4601.985677 L 2709.99349 4547.005208 L 2701.985677 4573.014323 L 2566.992188 4526.009115 L 2605.989583 4405.989583 L 2561.002604 4391.015625 L 2641.015625 4130.013021 L 2801.009115 4179.003906 L 2773.990885 4266.015625 L 2987.988281 4334.99349 L 2891.992187 4601.985677 " transform="matrix(0.12,0,0,-0.12,2,593)"/>
<path style="fill:none;stroke-width:1;stroke-linecap:round;stroke-linejoin:round;stroke:rgb(0%,0%,0%);stroke-opacity:1;stroke-miterlimit:10;" d="M 2556.998698 3922.005208 L 2766.015625 3995.996094 L 2806.998698 3880.989583 L 3009.99349 3937.011719 L 3080.013021 3686.002604 L 2662.988281 3541.015625 L 2566.015625 3830.989583 L 2591.992188 3840.00651 L 2556.998698 3922.005208 " transform="matrix(0.12,0,0,-0.12,2,593)"/>
<path style="fill:none;stroke-width:1;stroke-linecap:round;stroke-linejoin:round;stroke:rgb(0%,0%,0%);stroke-opacity:1;stroke-miterlimit:10;" d="M 3486.002604 3411.002604 L 3095.996094 3462.988281 L 3197.005208 3931.998698 L 3573.990885 3936.002604 L 3486.002604 3411.002604 " transform="matrix(0.12,0,0,-0.12,2,593)"/>
<path style="fill:none;stroke-width:1;stroke-linecap:round;stroke-linejoin:round;stroke:rgb(0%,0%,0%);stroke-opacity:1;stroke-miterlimit:10;" d="M 3095.996094 4790.00651 L 2926.009115 4661.002604 L 3079.003906 4427.994792 L 3286.002604 4562.988281 L 3095.996094 4790.00651 " transform="matrix(0.12,0,0,-0.12,2,593)"/>
<path style="fill:none;stroke-width:1;stroke-linecap:round;stroke-linejoin:round;stroke:rgb(0%,0%,0%);stroke-opacity:1;stroke-miterlimit:10;" d="M 3225 4880.013021 L 3311.002604 4705.013021 L 3450 4794.986979 L 3488.997396 4734.99349 L 3595.996094 4823.014323 L 3595.996094 4880.013021 L 3225 4880.013021 " transform="matrix(0.12,0,0,-0.12,2,593)"/>
<path style="fill:none;stroke-width:1;stroke-linecap:round;stroke-linejoin:round;stroke:rgb(0%,0%,0%);stroke-opacity:1;stroke-miterlimit:10;" d="M 3595.996094 4880.013021 L 3595.996094 4737.011719 L 4058.007812 4823.014323 L 4047.005208 4880.013021 L 3595.996094 4880.013021 " transform="matrix(0.12,0,0,-0.12,2,593)"/>
<path style="fill:none;stroke-width:1;stroke-linecap:round;stroke-linejoin:round;stroke:rgb(0%,0%,0%);stroke-opacity:1;stroke-miterlimit:10;" d="M 4162.011719 4634.99349 L 4197.005208 4281.998698 L 3704.003906 4233.984375 L 3648.990885 4558.984375 L 4162.011719 4634.99349 " transform="matrix(0.12,0,0,-0.12,2,593)"/>
<path style="fill:none;stroke-width:1;stroke-linecap:round;stroke-linejoin:round;stroke:rgb(0%,0%,0%);stroke-opacity:1;stroke-miterlimit:10;" d="M 1776.985677 4880.013021 L 1780.013021 4544.986979 L 2294.986979 4662.011719 L 2294.986979 4880.013021 L 1776.985677 4880.013021 " transform="matrix(0.12,0,0,-0.12,2,593)"/>
<path style="fill:none;stroke-width:1;stroke-linecap:round;stroke-linejoin:round;stroke:rgb(0%,0%,0%);stroke-opacity:1;stroke-miterlimit:10;" d="M 2294.986979 4662.011719 L 2704.003906 4762.988281 L 2744.010417 4780.989583 L 2783.984375 4801.009115 L 2820.996094 4825 L 2856.998698 4851.009115 L 2890.00651 4880.013021 L 2294.986979 4880.013021 L 2294.986979 4662.011719 " transform="matrix(0.12,0,0,-0.12,2,593)"/>
<path style="fill:none;stroke-width:1;stroke-linecap:round;stroke-linejoin:round;stroke:rgb(0%,0%,0%);stroke-opacity:1;stroke-miterlimit:10;" d="M 3423.014323 3054.003906 L 3329.003906 3050 L 3277.994792 3325 L 3447.005208 3356.998698 L 3451.985677 3297.005208 L 3412.988281 3294.010417 L 3423.014323 3054.003906 " transform="matrix(0.12,0,0,-0.12,2,593)"/>
<path style="fill:none;stroke-width:1;stroke-linecap:round;stroke-linejoin:round;stroke:rgb(0%,0%,0%);stroke-opacity:1;stroke-miterlimit:10;" d="M 3583.984375 3447.005208 L 3726.009115 3877.994792 L 3950 3805.013021 L 3911.002604 3686.002604 L 3973.990885 3665.00651 L 3869.986979 3348.990885 L 3583.984375 3447.005208 " transform="matrix(0.12,0,0,-0.12,2,593)"/>
<path style="fill:none;stroke-width:1;stroke-linecap:round;stroke-linejoin:round;stroke:rgb(0%,0%,0%);stroke-opacity:1;stroke-miterlimit:10;" d="M 3225 4880.013021 L 3119.010417 4880.013021 L 3095.996094 4790.00651 L 3206.998698 4658.007812 L 3311.002604 4705.013021 L 3225 4880.013021 " transform="matrix(0.12,0,0,-0.12,2,593)"/>
<path style="fill:none;stroke-width:1;stroke-linecap:round;stroke-linejoin:round;stroke:rgb(0%,0%,0%);stroke-opacity:1;stroke-miterlimit:10;" d="M 4105.013021 3579.003906 L 4430.013021 3391.992187 L 4268.001302 3163.997396 L 4241.015625 3183.984375 L 4205.989583 3116.992187 L 4077.994792 3194.986979 L 3966.992187 3281.998698 L 4105.013021 3579.003906 " transform="matrix(0.12,0,0,-0.12,2,593)"/>
<path style="fill:none;stroke-width:1;stroke-linecap:round;stroke-linejoin:round;stroke:rgb(0%,0%,0%);stroke-opacity:1;stroke-miterlimit:10;" d="M 2883.007812 2681.998698 L 2925 2412.988281 L 3333.984375 2469.010417 L 3302.994792 2731.998698 L 2883.007812 2681.998698 " transform="matrix(0.12,0,0,-0.12,2,593)"/>
<path style="fill:none;stroke-width:1;stroke-linecap:round;stroke-linejoin:round;stroke:rgb(0%,0%,0%);stroke-opacity:1;stroke-miterlimit:10;" d="M 3148.014323 2412.988281 L 3170.996094 2233.007812 L 2905.013021 2198.990885 L 2888.997396 2391.015625 L 3148.014323 2412.988281 " transform="matrix(0.12,0,0,-0.12,2,593)"/>
<path style="fill:none;stroke-width:1;stroke-linecap:round;stroke-linejoin:round;stroke:rgb(0%,0%,0%);stroke-opacity:1;stroke-miterlimit:10;" d="M 3351.985677 1398.014323 L 3731.998698 1708.007812 L 3586.002604 1876.009115 L 3184.99349 1906.998698 L 3180.989583 1606.998698 L 3251.009115 1626.009115 L 3351.985677 1398.014323 " transform="matrix(0.12,0,0,-0.12,2,593)"/>
<path style="fill:none;stroke-width:1;stroke-linecap:round;stroke-linejoin:round;stroke:rgb(0%,0%,0%);stroke-opacity:1;stroke-miterlimit:10;" d="M 3244.986979 2234.99349 L 3241.015625 2094.986979 L 3450 2063.997396 L 3450 1895.996094 L 3643.001302 1891.015625 L 3641.015625 1847.005208 L 3779.003906 1784.99349 L 3845.996094 2018.001302 L 3733.007812 2051.009115 L 3751.985677 2154.003906 L 3366.992187 2218.001302 L 3244.986979 2234.99349 " transform="matrix(0.12,0,0,-0.12,2,593)"/>
<path style="fill:none;stroke-width:1;stroke-linecap:round;stroke-linejoin:round;stroke:rgb(0%,0%,0%);stroke-opacity:1;stroke-miterlimit:10;" d="M 4040.00651 2273.014323 L 4126.009115 2305.989583 L 4244.986979 2126.009115 L 4048.014323 1958.984375 L 3733.007812 2051.009115 L 3770.996094 2284.99349 L 4040.00651 2273.014323 " transform="matrix(0.12,0,0,-0.12,2,593)"/>
<path style="fill:none;stroke-width:1;stroke-linecap:round;stroke-linejoin:round;stroke:rgb(0%,0%,0%);stroke-opacity:1;stroke-miterlimit:10;" d="M 3788.997396 2948.014323 L 3477.994792 2905.989583 L 3475 2741.015625 L 3780.013021 2720.996094 L 3788.997396 2948.014323 " transform="matrix(0.12,0,0,-0.12,2,593)"/>
<path style="fill:none;stroke-width:1;stroke-linecap:round;stroke-linejoin:round;stroke:rgb(0%,0%,0%);stroke-opacity:1;stroke-miterlimit:10;" d="M 3393.001302 2401.985677 L 3630.013021 2430.989583 L 3587.988281 2180.989583 L 3366.992187 2218.001302 L 3393.001302 2401.985677 " transform="matrix(0.12,0,0,-0.12,2,593)"/>
<path style="fill:none;stroke-width:1;stroke-linecap:round;stroke-linejoin:round;stroke:rgb(0%,0%,0%);stroke-opacity:1;stroke-miterlimit:10;" d="M 3630.013021 2430.989583 L 3781.998698 2476.009115 L 3727.994792 2158.007812 L 3587.988281 2180.989583 L 3630.013021 2430.989583 " transform="matrix(0.12,0,0,-0.12,2,593)"/>
<path style="fill:none;stroke-width:1;stroke-linecap:round;stroke-linejoin:round;stroke:rgb(0%,0%,0%);stroke-opacity:1;stroke-miterlimit:10;" d="M 1847.005208 931.998698 L 1794.010417 752.994792 L 2180.013021 663.997396 L 2187.011719 854.003906 L 1847.005208 931.998698 " transform="matrix(0.12,0,0,-0.12,2,593)"/>
<path style="fill:none;stroke-width:1;stroke-linecap:round;stroke-linejoin:round;stroke:rgb(0%,0%,0%);stroke-opacity:1;stroke-miterlimit:10;" d="M 1894.010417 1086.002604 L 1869.986979 926.985677 L 2162.011719 858.984375 L 2187.988281 1052.994792 L 1894.010417 1086.002604 " transform="matrix(0.12,0,0,-0.12,2,593)"/>
<path style="fill:none;stroke-width:1;stroke-linecap:round;stroke-linejoin:round;stroke:rgb(0%,0%,0%);stroke-opacity:1;stroke-miterlimit:10;" d="M 1962.011719 1220.996094 L 1940.00651 1080.989583 L 2141.015625 1058.984375 L 2141.015625 1201.985677 L 1962.011719 1220.996094 " transform="matrix(0.12,0,0,-0.12,2,593)"/>
<path style="fill:none;stroke-width:1;stroke-linecap:round;stroke-linejoin:round;stroke:rgb(0%,0%,0%);stroke-opacity:1;stroke-miterlimit:10;" d="M 2306.998698 1480.989583 L 2305.013021 1434.99349 L 2205.989583 1426.009115 L 2205.989583 1130.013021 L 2230.013021 1130.013021 L 2230.013021 1069.010417 L 2384.99349 1069.010417 L 2348.014323 1254.003906 L 2430.013021 1254.003906 L 2523.014323 1290.00651 L 2523.014323 1481.998698 L 2306.998698 1480.989583 " transform="matrix(0.12,0,0,-0.12,2,593)"/>
<path style="fill:none;stroke-width:1;stroke-linecap:round;stroke-linejoin:round;stroke:rgb(0%,0%,0%);stroke-opacity:1;stroke-miterlimit:10;" d="M 2568.001302 1484.99349 L 2573.014323 1254.003906 L 2745.996094 1294.010417 L 2756.998698 1505.013021 L 2568.001302 1484.99349 " transform="matrix(0.12,0,0,-0.12,2,593)"/>
<path style="fill:none;stroke-width:1;stroke-linecap:round;stroke-linejoin:round;stroke:rgb(0%,0%,0%);stroke-opacity:1;stroke-miterlimit:10;" d="M 2631.998698 2061.002604 L 2819.986979 2080.013021 L 2872.005208 1931.998698 L 2956.998698 1544.010417 L 2952.994792 1538.997396 L 2783.007812 1469.010417 L 2787.011719 1530.013021 L 2591.992188 1504.003906 L 2631.998698 2061.002604 " transform="matrix(0.12,0,0,-0.12,2,593)"/>
<path style="fill:none;stroke-width:1;stroke-linecap:round;stroke-linejoin:round;stroke:rgb(0%,0%,0%);stroke-opacity:1;stroke-miterlimit:10;" d="M 2304.003906 2291.015625 L 2458.984375 2233.984375 L 2316.015625 1844.986979 L 2191.015625 1877.994792 L 2251.985677 2033.007812 L 2206.998698 2051.009115 L 2304.003906 2291.015625 " transform="matrix(0.12,0,0,-0.12,2,593)"/>
<path style="fill:none;stroke-width:1;stroke-linecap:round;stroke-linejoin:round;stroke:rgb(0%,0%,0%);stroke-opacity:1;stroke-miterlimit:10;" d="M 2405.013021 1033.984375 L 2413.997396 973.990885 L 2448.014323 983.007812 L 2459.99349 919.010417 L 2704.003906 969.010417 L 2677.994792 1098.990885 L 2405.013021 1033.984375 " transform="matrix(0.12,0,0,-0.12,2,593)"/>
<path style="fill:none;stroke-width:1;stroke-linecap:round;stroke-linejoin:round;stroke:rgb(0%,0%,0%);stroke-opacity:1;stroke-miterlimit:10;" d="M 2677.994792 1098.990885 L 2704.003906 969.010417 L 2612.011719 950 L 2663.997396 788.997396 L 2905.013021 991.992188 L 2829.003906 1134.99349 L 2677.994792 1098.990885 " transform="matrix(0.12,0,0,-0.12,2,593)"/>
<path style="fill:none;stroke-width:1;stroke-linecap:round;stroke-linejoin:round;stroke:rgb(0%,0%,0%);stroke-opacity:1;stroke-miterlimit:10;" d="M 2230.013021 1069.010417 L 2187.988281 886.002604 L 2375 877.994792 L 2433.007812 875 L 2413.997396 973.990885 L 2405.013021 1033.984375 L 2400 1069.010417 L 2230.013021 1069.010417 " transform="matrix(0.12,0,0,-0.12,2,593)"/>
<path style="fill:none;stroke-width:1;stroke-linecap:round;stroke-linejoin:round;stroke:rgb(0%,0%,0%);stroke-opacity:1;stroke-miterlimit:10;" d="M 3044.986979 1286.002604 L 2808.007812 1219.010417 L 2829.003906 1134.99349 L 2905.013021 991.992188 L 3123.014323 1161.002604 L 3044.986979 1286.002604 " transform="matrix(0.12,0,0,-0.12,2,593)"/>
<path style="fill:none;stroke-width:1;stroke-linecap:round;stroke-linejoin:round;stroke:rgb(0%,0%,0%);stroke-opacity:1;stroke-miterlimit:10;" d="M 1280.989583 2165.00651 L 1016.992187 2194.986979 L 1016.992187 1745.996094 L 1273.990885 1725 L 1280.989583 2165.00651 " transform="matrix(0.12,0,0,-0.12,2,593)"/>
<path style="fill:none;stroke-width:1;stroke-linecap:round;stroke-linejoin:round;stroke:rgb(0%,0%,0%);stroke-opacity:1;stroke-miterlimit:10;" d="M 1945.996094 1548.990885 L 1675 1616.992188 L 1650 1493.001302 L 1606.998698 1501.985677 L 1520.996094 1158.984375 L 1850 1188.997396 L 1945.996094 1548.990885 " transform="matrix(0.12,0,0,-0.12,2,593)"/>
<path style="fill:none;stroke-width:1;stroke-linecap:round;stroke-linejoin:round;stroke:rgb(0%,0%,0%);stroke-opacity:1;stroke-miterlimit:10;" d="M 1388.997396 1594.986979 L 1397.005208 1341.992188 L 1319.010417 1340.00651 L 1341.015625 1141.015625 L 1051.985677 1155.989583 L 1040.00651 1572.005208 L 1388.997396 1594.986979 L 1397.005208 1341.992188 L 1575 1375 L 1601.985677 1581.998698 L 1388.997396 1594.986979 " transform="matrix(0.12,0,0,-0.12,2,593)"/>
<path style="fill:none;stroke-width:1;stroke-linecap:round;stroke-linejoin:round;stroke:rgb(0%,0%,0%);stroke-opacity:1;stroke-miterlimit:10;" d="M 2009.99349 684.99349 L 1787.988281 731.998698 L 1758.984375 612.988281 L 1980.013021 558.984375 L 2009.99349 684.99349 " transform="matrix(0.12,0,0,-0.12,2,593)"/>
<path style="fill:none;stroke-width:1;stroke-linecap:round;stroke-linejoin:round;stroke:rgb(0%,0%,0%);stroke-opacity:1;stroke-miterlimit:10;" d="M 1691.015625 750 L 1569.986979 480.013021 L 1269.010417 619.986979 L 1305.989583 698.014323 L 1384.99349 683.984375 L 1420.996094 833.984375 L 1691.015625 750 " transform="matrix(0.12,0,0,-0.12,2,593)"/>
<path style="fill:none;stroke-width:1;stroke-linecap:round;stroke-linejoin:round;stroke:rgb(0%,0%,0%);stroke-opacity:1;stroke-miterlimit:10;" d="M 1269.010417 619.986979 L 1262.011719 565.00651 L 1223.990885 498.990885 L 1076.009115 240.00651 L 1016.992187 273.990885 L 1016.992187 573.990885 L 1130.989583 691.992188 L 1269.010417 619.986979 " transform="matrix(0.12,0,0,-0.12,2,593)"/>
<path style="fill:none;stroke-width:1;stroke-linecap:round;stroke-linejoin:round;stroke:rgb(0%,0%,0%);stroke-opacity:1;stroke-miterlimit:10;" d="M 1016.992187 738.997396 L 1069.010417 759.99349 L 1101.009115 662.011719 L 1016.992187 573.990885 L 1016.992187 738.997396 " transform="matrix(0.12,0,0,-0.12,2,593)"/>
<path style="fill:none;stroke-width:1;stroke-linecap:round;stroke-linejoin:round;stroke:rgb(0%,0%,0%);stroke-opacity:1;stroke-miterlimit:10;" d="M 1194.986979 1129.003906 L 1180.989583 837.011719 L 1375 797.005208 L 1375 1111.002604 L 1194.986979 1129.003906 " transform="matrix(0.12,0,0,-0.12,2,593)"/>
<path style="fill:none;stroke-width:1;stroke-linecap:round;stroke-linejoin:round;stroke:rgb(0%,0%,0%);stroke-opacity:1;stroke-miterlimit:10;" d="M 1180.989583 837.011719 L 1155.989583 733.984375 L 1305.989583 698.014323 L 1384.99349 683.984375 L 1409.99349 788.997396 L 1180.989583 837.011719 " transform="matrix(0.12,0,0,-0.12,2,593)"/>
<path style="fill:none;stroke-width:1;stroke-linecap:round;stroke-linejoin:round;stroke:rgb(0%,0%,0%);stroke-opacity:1;stroke-miterlimit:10;" d="M 1051.985677 1155.989583 L 1016.992187 1155.989583 L 1016.992187 1054.003906 L 1191.015625 1045.996094 L 1194.986979 1129.003906 L 1195.996094 1148.014323 L 1051.985677 1155.989583 " transform="matrix(0.12,0,0,-0.12,2,593)"/>
<path style="fill:none;stroke-width:1;stroke-linecap:round;stroke-linejoin:round;stroke:rgb(0%,0%,0%);stroke-opacity:1;stroke-miterlimit:10;" d="M 1016.992187 2194.986979 L 1016.992187 2427.994792 L 1111.002604 2402.994792 L 1111.002604 2183.984375 L 1016.992187 2194.986979 " transform="matrix(0.12,0,0,-0.12,2,593)"/>
<path style="fill:none;stroke-width:1;stroke-linecap:round;stroke-linejoin:round;stroke:rgb(0%,0%,0%);stroke-opacity:1;stroke-miterlimit:10;" d="M 1683.007812 1937.988281 L 1619.986979 1694.010417 L 1955.013021 1605.989583 L 2031.998698 1826.009115 L 1683.007812 1937.988281 " transform="matrix(0.12,0,0,-0.12,2,593)"/>
<path style="fill:none;stroke-width:1;stroke-linecap:round;stroke-linejoin:round;stroke:rgb(0%,0%,0%);stroke-opacity:1;stroke-miterlimit:10;" d="M 2031.998698 1826.009115 L 2151.009115 2104.003906 L 1741.992187 2240.00651 L 1654.003906 1945.996094 L 1683.007812 1937.988281 L 2031.998698 1826.009115 " transform="matrix(0.12,0,0,-0.12,2,593)"/>
<path style="fill:none;stroke-width:1;stroke-linecap:round;stroke-linejoin:round;stroke:rgb(0%,0%,0%);stroke-opacity:1;stroke-miterlimit:10;" d="M 2191.015625 1877.994792 L 2316.015625 1844.986979 L 2286.002604 1484.99349 L 2281.998698 1433.007812 L 2205.989583 1426.009115 L 2018.001302 1425 L 2191.015625 1877.994792 " transform="matrix(0.12,0,0,-0.12,2,593)"/>
<path style="fill:none;stroke-width:1;stroke-linecap:round;stroke-linejoin:round;stroke:rgb(0%,0%,0%);stroke-opacity:1;stroke-miterlimit:10;" d="M 2041.992187 1425 L 1991.992187 1218.001302 L 2141.015625 1201.985677 L 2205.989583 1195.996094 L 2205.989583 1426.009115 L 2041.992187 1425 " transform="matrix(0.12,0,0,-0.12,2,593)"/>
<path style="fill:none;stroke-width:1;stroke-linecap:round;stroke-linejoin:round;stroke:rgb(0%,0%,0%);stroke-opacity:1;stroke-miterlimit:10;" d="M 4120.996094 4156.998698 L 4094.986979 4087.988281 L 3981.998698 3772.005208 L 4379.003906 3629.003906 L 4422.005208 3748.014323 L 4181.998698 3834.99349 L 4266.015625 4105.013021 L 4120.996094 4156.998698 " transform="matrix(0.12,0,0,-0.12,2,593)"/>
<path style="fill:none;stroke-width:1;stroke-linecap:round;stroke-linejoin:round;stroke:rgb(0%,0%,0%);stroke-opacity:1;stroke-miterlimit:10;" d="M 4181.998698 3834.99349 L 4245.996094 4040.00651 L 4512.988281 3941.015625 L 4440.00651 3741.992187 L 4181.998698 3834.99349 " transform="matrix(0.12,0,0,-0.12,2,593)"/>
<path style="fill:none;stroke-width:1;stroke-linecap:round;stroke-linejoin:round;stroke:rgb(0%,0%,0%);stroke-opacity:1;stroke-miterlimit:10;" d="M 4280.989583 3477.994792 L 4430.013021 3391.992187 L 4543.001302 3362.988281 L 4622.005208 3569.010417 L 4387.988281 3654.003906 L 4379.003906 3629.003906 L 4333.984375 3644.986979 L 4280.989583 3477.994792 " transform="matrix(0.12,0,0,-0.12,2,593)"/>
<path style="fill:none;stroke-width:1;stroke-linecap:round;stroke-linejoin:round;stroke:rgb(0%,0%,0%);stroke-opacity:1;stroke-miterlimit:10;" d="M 4413.997396 3369.986979 L 4213.997396 3084.99349 L 4436.002604 2951.985677 L 4608.984375 3241.015625 L 4413.997396 3369.986979 " transform="matrix(0.12,0,0,-0.12,2,593)"/>
<path style="fill:none;stroke-width:1;stroke-linecap:round;stroke-linejoin:round;stroke:rgb(0%,0%,0%);stroke-opacity:1;stroke-miterlimit:10;" d="M 4965.00651 3236.002604 L 5147.005208 2930.013021 L 4986.002604 2868.001302 L 4869.010417 2962.988281 L 4790.00651 3106.998698 L 4965.00651 3236.002604 " transform="matrix(0.12,0,0,-0.12,2,593)"/>
<path style="fill:none;stroke-width:1;stroke-linecap:round;stroke-linejoin:round;stroke:rgb(0%,0%,0%);stroke-opacity:1;stroke-miterlimit:10;" d="M 4823.014323 3693.001302 L 4640.00651 3581.998698 L 4772.005208 3326.985677 L 4737.988281 3302.994792 L 4837.988281 3141.992187 L 4965.00651 3236.002604 L 4933.007812 3288.997396 L 5037.011719 3361.002604 L 4823.014323 3693.001302 " transform="matrix(0.12,0,0,-0.12,2,593)"/>
<path style="fill:none;stroke-width:1;stroke-linecap:round;stroke-linejoin:round;stroke:rgb(0%,0%,0%);stroke-opacity:1;stroke-miterlimit:10;" d="M 4551.985677 3933.984375 L 4512.988281 4173.990885 L 4395.996094 4198.014323 L 4391.015625 4168.001302 L 4358.984375 4175 L 4298.990885 4204.003906 L 4266.015625 4105.013021 L 4245.996094 4040.00651 L 4512.988281 3941.015625 L 4551.985677 3933.984375 " transform="matrix(0.12,0,0,-0.12,2,593)"/>
<path style="fill:none;stroke-width:1;stroke-linecap:round;stroke-linejoin:round;stroke:rgb(0%,0%,0%);stroke-opacity:1;stroke-miterlimit:10;" d="M 4300 4398.990885 L 4252.994792 4248.990885 L 4662.988281 4156.998698 L 4720.996094 4412.988281 L 4300 4398.990885 " transform="matrix(0.12,0,0,-0.12,2,593)"/>
<path style="fill:none;stroke-width:1;stroke-linecap:round;stroke-linejoin:round;stroke:rgb(0%,0%,0%);stroke-opacity:1;stroke-miterlimit:10;" d="M 4983.984375 4318.001302 L 4933.984375 4130.989583 L 4873.014323 4088.997396 L 4744.010417 3890.00651 L 4605.013021 3954.003906 L 4645.996094 4043.001302 L 4594.986979 4066.992187 L 4662.988281 4156.998698 L 4706.998698 4351.985677 L 4983.984375 4318.001302 " transform="matrix(0.12,0,0,-0.12,2,593)"/>
<path style="fill:none;stroke-width:1;stroke-linecap:round;stroke-linejoin:round;stroke:rgb(0%,0%,0%);stroke-opacity:1;stroke-miterlimit:10;" d="M 4175 4880.013021 L 4241.015625 4615.00651 L 4505.989583 4647.005208 L 4450 4880.013021 L 4175 4880.013021 " transform="matrix(0.12,0,0,-0.12,2,593)"/>
<path style="fill:none;stroke-width:1;stroke-linecap:round;stroke-linejoin:round;stroke:rgb(0%,0%,0%);stroke-opacity:1;stroke-miterlimit:10;" d="M 4450 4880.013021 L 4461.002604 4833.984375 L 4545.996094 4854.003906 L 4562.011719 4788.997396 L 4673.014323 4788.997396 L 4652.994792 4880.013021 L 4450 4880.013021 " transform="matrix(0.12,0,0,-0.12,2,593)"/>
</g>
</svg>
